<svg xmlns="http://www.w3.org/2000/svg" xmlns:xlink="http://www.w3.org/1999/xlink" width="1920" zoomAndPan="magnify" viewBox="0 0 1440 1439.999935" height="1920" preserveAspectRatio="xMidYMid meet" version="1.0"><defs><clipPath id="25964a4b96"><path d="M 23 169 L 1424 169 L 1424 1368 L 23 1368 Z M 23 169 " clip-rule="nonzero"/></clipPath><clipPath id="d856107993"><path d="M -168.101562 548.871094 L 988.089844 -143.699219 L 1607.816406 890.890625 L 451.625 1583.457031 Z M -168.101562 548.871094 " clip-rule="nonzero"/></clipPath><clipPath id="d95e41a3bc"><path d="M -168.101562 548.871094 L 988.089844 -143.699219 L 1607.816406 890.890625 L 451.625 1583.457031 Z M -168.101562 548.871094 " clip-rule="nonzero"/></clipPath><clipPath id="130f9da911"><path d="M -168.101562 548.871094 L 988.089844 -143.699219 L 1607.816406 890.890625 L 451.625 1583.457031 Z M -168.101562 548.871094 " clip-rule="nonzero"/></clipPath><clipPath id="6105c212fe"><path d="M 81 362 L 433 362 L 433 646 L 81 646 Z M 81 362 " clip-rule="nonzero"/></clipPath><clipPath id="a2d83e80bf"><path d="M -168.101562 548.871094 L 988.089844 -143.699219 L 1607.816406 890.890625 L 451.625 1583.457031 Z M -168.101562 548.871094 " clip-rule="nonzero"/></clipPath><clipPath id="602c64fbc9"><path d="M -168.101562 548.871094 L 988.089844 -143.699219 L 1607.816406 890.890625 L 451.625 1583.457031 Z M -168.101562 548.871094 " clip-rule="nonzero"/></clipPath><clipPath id="b138313d6e"><path d="M -168.101562 548.871094 L 988.089844 -143.699219 L 1607.816406 890.890625 L 451.625 1583.457031 Z M -168.101562 548.871094 " clip-rule="nonzero"/></clipPath><clipPath id="a894ba30c3"><path d="M 92 649 L 561 649 L 561 994 L 92 994 Z M 92 649 " clip-rule="nonzero"/></clipPath><clipPath id="5d7d006bf4"><path d="M -168.101562 548.871094 L 988.089844 -143.699219 L 1607.816406 890.890625 L 451.625 1583.457031 Z M -168.101562 548.871094 " clip-rule="nonzero"/></clipPath><clipPath id="017874a6f9"><path d="M -168.101562 548.871094 L 988.089844 -143.699219 L 1607.816406 890.890625 L 451.625 1583.457031 Z M -168.101562 548.871094 " clip-rule="nonzero"/></clipPath><clipPath id="1223dab391"><path d="M -168.101562 548.871094 L 988.089844 -143.699219 L 1607.816406 890.890625 L 451.625 1583.457031 Z M -168.101562 548.871094 " clip-rule="nonzero"/></clipPath><clipPath id="940bca3ab2"><path d="M 464 240 L 1360 240 L 1360 1222 L 464 1222 Z M 464 240 " clip-rule="nonzero"/></clipPath><clipPath id="6bf69098e6"><path d="M -168.101562 548.871094 L 988.089844 -143.699219 L 1607.816406 890.890625 L 451.625 1583.457031 Z M -168.101562 548.871094 " clip-rule="nonzero"/></clipPath><clipPath id="5ddd97a428"><path d="M -168.101562 548.871094 L 988.089844 -143.699219 L 1607.816406 890.890625 L 451.625 1583.457031 Z M -168.101562 548.871094 " clip-rule="nonzero"/></clipPath><clipPath id="1addb3fe51"><path d="M -168.101562 548.871094 L 988.089844 -143.699219 L 1607.816406 890.890625 L 451.625 1583.457031 Z M -168.101562 548.871094 " clip-rule="nonzero"/></clipPath><clipPath id="0241a9705d"><path d="M 246 871 L 697 871 L 697 1175 L 246 1175 Z M 246 871 " clip-rule="nonzero"/></clipPath><clipPath id="d9f30dc65e"><path d="M -168.101562 548.871094 L 988.089844 -143.699219 L 1607.816406 890.890625 L 451.625 1583.457031 Z M -168.101562 548.871094 " clip-rule="nonzero"/></clipPath><clipPath id="8b88d25d3f"><path d="M -168.101562 548.871094 L 988.089844 -143.699219 L 1607.816406 890.890625 L 451.625 1583.457031 Z M -168.101562 548.871094 " clip-rule="nonzero"/></clipPath><clipPath id="751b868711"><path d="M -168.101562 548.871094 L 988.089844 -143.699219 L 1607.816406 890.890625 L 451.625 1583.457031 Z M -168.101562 548.871094 " clip-rule="nonzero"/></clipPath><clipPath id="188f539a6c"><path d="M 478 992 L 822 992 L 822 1310 L 478 1310 Z M 478 992 " clip-rule="nonzero"/></clipPath><clipPath id="05d61a3249"><path d="M -168.101562 548.871094 L 988.089844 -143.699219 L 1607.816406 890.890625 L 451.625 1583.457031 Z M -168.101562 548.871094 " clip-rule="nonzero"/></clipPath><clipPath id="34968ab7c8"><path d="M -168.101562 548.871094 L 988.089844 -143.699219 L 1607.816406 890.890625 L 451.625 1583.457031 Z M -168.101562 548.871094 " clip-rule="nonzero"/></clipPath><clipPath id="cb4ba69d37"><path d="M -168.101562 548.871094 L 988.089844 -143.699219 L 1607.816406 890.890625 L 451.625 1583.457031 Z M -168.101562 548.871094 " clip-rule="nonzero"/></clipPath><clipPath id="431c4ddcff"><path d="M 83 362 L 412 362 L 412 562 L 83 562 Z M 83 362 " clip-rule="nonzero"/></clipPath><clipPath id="ea4a67ed2f"><path d="M -168.101562 548.871094 L 988.089844 -143.699219 L 1607.816406 890.890625 L 451.625 1583.457031 Z M -168.101562 548.871094 " clip-rule="nonzero"/></clipPath><clipPath id="96de686e25"><path d="M -168.101562 548.871094 L 988.089844 -143.699219 L 1607.816406 890.890625 L 451.625 1583.457031 Z M -168.101562 548.871094 " clip-rule="nonzero"/></clipPath><clipPath id="5a9042341b"><path d="M -168.101562 548.871094 L 988.089844 -143.699219 L 1607.816406 890.890625 L 451.625 1583.457031 Z M -168.101562 548.871094 " clip-rule="nonzero"/></clipPath><clipPath id="71806540ef"><path d="M 464 240 L 1107 240 L 1107 771 L 464 771 Z M 464 240 " clip-rule="nonzero"/></clipPath><clipPath id="32e26c8ef9"><path d="M -168.101562 548.871094 L 988.089844 -143.699219 L 1607.816406 890.890625 L 451.625 1583.457031 Z M -168.101562 548.871094 " clip-rule="nonzero"/></clipPath><clipPath id="1ae284a13b"><path d="M -168.101562 548.871094 L 988.089844 -143.699219 L 1607.816406 890.890625 L 451.625 1583.457031 Z M -168.101562 548.871094 " clip-rule="nonzero"/></clipPath><clipPath id="2cee65578e"><path d="M -168.101562 548.871094 L 988.089844 -143.699219 L 1607.816406 890.890625 L 451.625 1583.457031 Z M -168.101562 548.871094 " clip-rule="nonzero"/></clipPath><clipPath id="db861d9fc9"><path d="M 92 649 L 492 649 L 492 899 L 92 899 Z M 92 649 " clip-rule="nonzero"/></clipPath><clipPath id="d7c51b92de"><path d="M -168.101562 548.871094 L 988.089844 -143.699219 L 1607.816406 890.890625 L 451.625 1583.457031 Z M -168.101562 548.871094 " clip-rule="nonzero"/></clipPath><clipPath id="f5e0c52f93"><path d="M -168.101562 548.871094 L 988.089844 -143.699219 L 1607.816406 890.890625 L 451.625 1583.457031 Z M -168.101562 548.871094 " clip-rule="nonzero"/></clipPath><clipPath id="f343629b2b"><path d="M -168.101562 548.871094 L 988.089844 -143.699219 L 1607.816406 890.890625 L 451.625 1583.457031 Z M -168.101562 548.871094 " clip-rule="nonzero"/></clipPath><clipPath id="f6ca04c80d"><path d="M 769 368 L 1347 368 L 1347 990 L 769 990 Z M 769 368 " clip-rule="nonzero"/></clipPath><clipPath id="602f6a1b97"><path d="M -168.101562 548.871094 L 988.089844 -143.699219 L 1607.816406 890.890625 L 451.625 1583.457031 Z M -168.101562 548.871094 " clip-rule="nonzero"/></clipPath><clipPath id="a6ff4c17c5"><path d="M -168.101562 548.871094 L 988.089844 -143.699219 L 1607.816406 890.890625 L 451.625 1583.457031 Z M -168.101562 548.871094 " clip-rule="nonzero"/></clipPath><clipPath id="4018429e27"><path d="M -168.101562 548.871094 L 988.089844 -143.699219 L 1607.816406 890.890625 L 451.625 1583.457031 Z M -168.101562 548.871094 " clip-rule="nonzero"/></clipPath><clipPath id="076b7822f6"><path d="M 246 927 L 584 927 L 584 1126 L 246 1126 Z M 246 927 " clip-rule="nonzero"/></clipPath><clipPath id="7e4d2c332a"><path d="M -168.101562 548.871094 L 988.089844 -143.699219 L 1607.816406 890.890625 L 451.625 1583.457031 Z M -168.101562 548.871094 " clip-rule="nonzero"/></clipPath><clipPath id="56735652f0"><path d="M -168.101562 548.871094 L 988.089844 -143.699219 L 1607.816406 890.890625 L 451.625 1583.457031 Z M -168.101562 548.871094 " clip-rule="nonzero"/></clipPath><clipPath id="9d36c6087c"><path d="M -168.101562 548.871094 L 988.089844 -143.699219 L 1607.816406 890.890625 L 451.625 1583.457031 Z M -168.101562 548.871094 " clip-rule="nonzero"/></clipPath><clipPath id="bb84ca8739"><path d="M 478 1107 L 709 1107 L 709 1274 L 478 1274 Z M 478 1107 " clip-rule="nonzero"/></clipPath><clipPath id="df453063d0"><path d="M -168.101562 548.871094 L 988.089844 -143.699219 L 1607.816406 890.890625 L 451.625 1583.457031 Z M -168.101562 548.871094 " clip-rule="nonzero"/></clipPath><clipPath id="b8d5e2e28c"><path d="M -168.101562 548.871094 L 988.089844 -143.699219 L 1607.816406 890.890625 L 451.625 1583.457031 Z M -168.101562 548.871094 " clip-rule="nonzero"/></clipPath><clipPath id="206bc956c9"><path d="M -168.101562 548.871094 L 988.089844 -143.699219 L 1607.816406 890.890625 L 451.625 1583.457031 Z M -168.101562 548.871094 " clip-rule="nonzero"/></clipPath></defs><g clip-path="url(#25964a4b96)"><g clip-path="url(#d856107993)"><g clip-path="url(#d95e41a3bc)"><g clip-path="url(#130f9da911)"><path fill="#232323" d="M 269.511719 1188.273438 C 294.410156 1210.570312 323.636719 1223.167969 356.921875 1225.867188 C 378.644531 1228.539062 400.863281 1224.992188 422.304688 1228.425781 C 450.375 1283.441406 497.542969 1324.132812 552.097656 1351.597656 C 584.304688 1367.445312 620.40625 1372.375 655.355469 1363.277344 C 715.179688 1348.523438 760.9375 1312.753906 810.15625 1280.539062 C 871.628906 1284.84375 930.125 1275.769531 985.746094 1248.445312 C 1068.535156 1213.351562 1133.074219 1144.214844 1162.664062 1059.46875 C 1204.839844 1067.863281 1247.085938 1065.636719 1285.222656 1044.199219 C 1342.632812 1014.914062 1378.488281 961.628906 1399.796875 902.332031 C 1431.984375 809.816406 1429.085938 705.542969 1404.289062 611.652344 C 1379.796875 519.503906 1331.171875 428.566406 1257.375 366.761719 C 1208.382812 325.242188 1142.496094 297.390625 1077.535156 307.15625 C 1058.277344 309.222656 1039.699219 319.832031 1020.707031 320.113281 C 966.652344 264.089844 901.398438 220.992188 828.96875 192.472656 C 748.628906 161.367188 656.117188 162.191406 576.128906 194.050781 C 516.71875 217.28125 469.78125 260.34375 435.167969 313.109375 C 339.609375 295.261719 244.550781 322.097656 157.066406 359.480469 C 116.179688 378.796875 71.132812 407.480469 48.363281 447.898438 C 20.917969 492.375 17.046875 550.765625 32.300781 600.070312 C 45.667969 639.1875 73.722656 665.882812 108.949219 685.539062 C 87.332031 699.96875 67 712.222656 54.972656 736.367188 C 31.226562 781.585938 35.871094 840.351562 51.410156 887.414062 C 73 951.121094 121.820312 1013.976562 185.761719 1039.074219 C 199.847656 1093.589844 226.839844 1150.507812 269.511719 1188.273438 Z M 269.511719 1188.273438 " fill-opacity="1" fill-rule="nonzero"/></g></g></g></g><g clip-path="url(#6105c212fe)"><g clip-path="url(#a2d83e80bf)"><g clip-path="url(#602c64fbc9)"><g clip-path="url(#b138313d6e)"><path fill="#ababab" d="M 211.097656 645.214844 C 285.179688 645.371094 359.644531 635.90625 432.691406 624.328125 C 423.921875 592.890625 414.835938 561.789062 407.941406 529.890625 C 400.835938 496.789062 396.71875 463.230469 398.921875 429.359375 C 400.136719 407.550781 406.859375 385.175781 411.742188 363.683594 C 344.324219 359.089844 282.351562 375.574219 218.429688 395.222656 C 182.359375 406.398438 148.578125 423.746094 119.507812 447.96875 C 99.496094 465.207031 88.558594 488.695312 83.0625 514.109375 C 79.269531 546.933594 81.167969 584.191406 104.800781 609.683594 C 131.617188 639.265625 173.328125 644.535156 211.097656 645.214844 Z M 211.097656 645.214844 " fill-opacity="1" fill-rule="nonzero"/></g></g></g></g><g clip-path="url(#a894ba30c3)"><g clip-path="url(#5d7d006bf4)"><g clip-path="url(#017874a6f9)"><g clip-path="url(#1223dab391)"><path fill="#ababab" d="M 310.046875 987.410156 C 401.007812 967.691406 494.042969 930.679688 560.277344 863.261719 C 533.800781 843.765625 512.015625 820.859375 491.910156 794.953125 C 465.65625 752.238281 453.96875 697.398438 439.484375 649.628906 C 372.917969 668.9375 304.511719 687.277344 235.589844 695.121094 C 210.464844 698.261719 187.761719 695.441406 164.699219 706.222656 C 141.1875 716.753906 112.515625 733.117188 100.707031 757.128906 C 85.144531 791.675781 93.953125 831.082031 103.808594 865.941406 C 121.105469 906.179688 147.300781 949.296875 184.039062 974.5625 C 220.691406 998.324219 268.949219 995.753906 310.046875 987.410156 Z M 310.046875 987.410156 " fill-opacity="1" fill-rule="nonzero"/></g></g></g></g><g clip-path="url(#940bca3ab2)"><g clip-path="url(#6bf69098e6)"><g clip-path="url(#5ddd97a428)"><g clip-path="url(#1addb3fe51)"><path fill="#ababab" d="M 1078.148438 370.925781 C 1131.175781 445.613281 1154.710938 537.523438 1134.988281 627.75 C 1125.121094 592.753906 1121.296875 557.464844 1106.71875 523.734375 C 1073.617188 443.769531 1009.589844 376.410156 938.320312 328.703125 C 882.289062 293.46875 821.449219 257.117188 755.582031 245.234375 C 698.160156 234.726562 636.121094 241.707031 583.449219 267.414062 C 527.0625 295.9375 483.578125 348.101562 469.246094 410.019531 C 455.523438 472.464844 476.738281 536.542969 492.691406 596.523438 C 508.746094 651.859375 519.972656 712.230469 544.324219 764.371094 C 556.203125 788.027344 573.648438 805.914062 598.742188 815.070312 C 627.492188 826.996094 656.867188 818.351562 682.371094 803 C 711.917969 785.003906 730.207031 755.261719 742.585938 723.800781 C 763.390625 669.472656 769.816406 610.289062 761.820312 552.714844 C 756.71875 507.761719 741.566406 467.273438 728.3125 424.390625 C 750.734375 451.574219 769.09375 481.113281 778.894531 515.265625 C 798 579.273438 825.554688 643.183594 864.378906 697.746094 C 890.550781 734.519531 922.683594 763.578125 951.164062 797.414062 C 923.183594 792.207031 897.449219 790.011719 872.710938 774.28125 C 845.28125 757.640625 827.765625 733.585938 809.664062 707.8125 C 801.484375 740.972656 789.660156 771.875 769.195312 799.59375 C 753.089844 818.785156 734.160156 834.859375 714.5 850.335938 C 730.617188 881.441406 741.140625 911.609375 743.277344 946.796875 C 782.5 965.835938 820.261719 992.558594 847.980469 1026.480469 C 872.035156 1055.644531 874.472656 1095.167969 873.53125 1131.390625 C 872.742188 1163.300781 862.257812 1191.253906 852.199219 1221.027344 C 913.007812 1213.601562 971.085938 1193.828125 1022.121094 1159.707031 C 1068.03125 1126.289062 1107.875 1077.9375 1124.445312 1022.960938 C 1139.367188 971.78125 1141.019531 920.929688 1142.867188 868.1875 C 1171.167969 910.859375 1175.070312 957.644531 1174.324219 1007.285156 C 1208.917969 1005.128906 1240.746094 1002.5625 1269.675781 980.941406 C 1320.160156 944.414062 1346.425781 876.972656 1355.050781 817.136719 C 1362.96875 760.683594 1360.761719 702.898438 1346.273438 647.589844 C 1330.039062 563.289062 1288.511719 479.640625 1224.882812 421.21875 C 1184.441406 384.335938 1133.625 361.882812 1078.148438 370.925781 Z M 1078.148438 370.925781 " fill-opacity="1" fill-rule="nonzero"/></g></g></g></g><g clip-path="url(#0241a9705d)"><g clip-path="url(#d9f30dc65e)"><g clip-path="url(#8b88d25d3f)"><g clip-path="url(#751b868711)"><path fill="#ababab" d="M 573.144531 927.976562 C 500.71875 991.113281 408.363281 1027.277344 314.757812 1044.804688 C 292.023438 1049.101562 269.113281 1048.769531 246.273438 1051.652344 C 252.054688 1075.632812 263.957031 1096.242188 277.734375 1116.398438 C 296.589844 1140.835938 316.042969 1163.800781 347.515625 1170.765625 C 387.023438 1179.28125 430.9375 1173.542969 469.589844 1163.335938 C 517.179688 1150.511719 564.78125 1134.5 608.796875 1112.128906 C 644.875 1094.289062 660.023438 1056.214844 675.292969 1021.550781 C 685.578125 996.226562 697.78125 966.578125 696.695312 938.820312 C 695.824219 913.894531 682.027344 892.347656 670.417969 871.117188 C 651.441406 875.75 631.292969 877.6875 612.945312 884.238281 C 598.695312 897.878906 587.058594 914.023438 573.144531 927.976562 Z M 573.144531 927.976562 " fill-opacity="1" fill-rule="nonzero"/></g></g></g></g><g clip-path="url(#188f539a6c)"><g clip-path="url(#05d61a3249)"><g clip-path="url(#34968ab7c8)"><g clip-path="url(#cb4ba69d37)"><path fill="#ababab" d="M 584.382812 1179.203125 C 550.179688 1194.734375 514.378906 1203.894531 478.960938 1215.792969 C 496.261719 1238.125 515.960938 1256.804688 538.71875 1273.429688 C 565.425781 1293.308594 596.910156 1314.988281 632.050781 1308.808594 C 668.5 1302.214844 703.742188 1280.140625 734.890625 1260.746094 C 779.957031 1231.234375 813.714844 1186.304688 819.671875 1131.769531 C 822.085938 1106.648438 823.503906 1074.0625 806.726562 1053.339844 C 787.75 1028.828125 760.859375 1009.132812 735.042969 992.339844 C 717.800781 1031.371094 705.578125 1070.503906 683.039062 1107.605469 C 659.222656 1145.171875 623.191406 1160.984375 584.382812 1179.203125 Z M 584.382812 1179.203125 " fill-opacity="1" fill-rule="nonzero"/></g></g></g></g><g clip-path="url(#431c4ddcff)"><g clip-path="url(#ea4a67ed2f)"><g clip-path="url(#96de686e25)"><g clip-path="url(#5a9042341b)"><path fill="#ffffff" d="M 407.941406 529.890625 C 400.835938 496.789062 396.71875 463.230469 398.921875 429.359375 C 400.136719 407.550781 406.859375 385.175781 411.742188 363.683594 C 344.324219 359.089844 282.351562 375.574219 218.429688 395.222656 C 182.359375 406.398438 148.578125 423.746094 119.507812 447.96875 C 99.496094 465.207031 88.558594 488.695312 83.0625 514.109375 C 98.234375 530.542969 109.609375 546.808594 132.496094 552.410156 C 227.492188 573.769531 316.101562 555.683594 407.941406 529.890625 Z M 407.941406 529.890625 " fill-opacity="1" fill-rule="nonzero"/></g></g></g></g><g clip-path="url(#71806540ef)"><g clip-path="url(#32e26c8ef9)"><g clip-path="url(#1ae284a13b)"><g clip-path="url(#2cee65578e)"><path fill="#ffffff" d="M 544.324219 764.371094 C 570.171875 768.492188 597.085938 775.746094 622.097656 764.019531 C 657.175781 747.226562 675.597656 713.253906 683.976562 676.722656 C 694.433594 628.960938 694.308594 578.359375 689.113281 529.910156 C 685.042969 490.625 673.601562 453.613281 666.085938 415.132812 C 691.921875 397.734375 719.371094 389.578125 747.242188 407.578125 C 818.25 454.851562 854.035156 555.84375 924.609375 604.488281 C 955.613281 626.230469 992.894531 637.707031 1030.199219 626.238281 C 1075.1875 612.898438 1105.863281 570.113281 1106.71875 523.734375 C 1073.617188 443.769531 1009.589844 376.410156 938.320312 328.703125 C 882.289062 293.46875 821.449219 257.117188 755.582031 245.234375 C 698.160156 234.726562 636.121094 241.707031 583.449219 267.414062 C 527.0625 295.9375 483.578125 348.101562 469.246094 410.019531 C 455.523438 472.464844 476.738281 536.542969 492.691406 596.523438 C 508.746094 651.859375 519.972656 712.230469 544.324219 764.371094 Z M 544.324219 764.371094 " fill-opacity="1" fill-rule="nonzero"/></g></g></g></g><g clip-path="url(#db861d9fc9)"><g clip-path="url(#d7c51b92de)"><g clip-path="url(#f5e0c52f93)"><g clip-path="url(#f343629b2b)"><path fill="#ffffff" d="M 212.503906 897.445312 C 313.953125 884.613281 404.089844 845.855469 491.910156 794.953125 C 465.65625 752.238281 453.96875 697.398438 439.484375 649.628906 C 372.917969 668.9375 304.511719 687.277344 235.589844 695.121094 C 210.464844 698.261719 187.761719 695.441406 164.699219 706.222656 C 141.1875 716.753906 112.515625 733.117188 100.707031 757.128906 C 85.144531 791.675781 93.953125 831.082031 103.808594 865.941406 C 137.832031 893.347656 169.296875 901.652344 212.503906 897.445312 Z M 212.503906 897.445312 " fill-opacity="1" fill-rule="nonzero"/></g></g></g></g><g clip-path="url(#f6ca04c80d)"><g clip-path="url(#602f6a1b97)"><g clip-path="url(#a6ff4c17c5)"><g clip-path="url(#4018429e27)"><path fill="#ffffff" d="M 1047.976562 784.992188 C 1018.015625 804.273438 984.921875 804.488281 951.164062 797.414062 C 923.183594 792.207031 897.449219 790.011719 872.710938 774.28125 C 845.28125 757.640625 827.765625 733.585938 809.664062 707.8125 C 801.484375 740.972656 789.660156 771.875 769.195312 799.59375 C 775.6875 846.007812 780.703125 888.722656 811.574219 926.671875 C 863.917969 997.257812 971.890625 1007.667969 1043.03125 960.539062 C 1093.171875 929.988281 1121.449219 879.613281 1129.617188 822.34375 C 1155.257812 840.570312 1179.363281 859.199219 1212.433594 859.066406 C 1253.632812 858.429688 1286.183594 829.390625 1306.421875 795.738281 C 1334.695312 750.175781 1338.40625 699.425781 1346.273438 647.585938 C 1330.039062 563.289062 1288.511719 479.640625 1224.882812 421.21875 C 1184.441406 384.335938 1133.625 361.882812 1078.148438 370.925781 C 1131.175781 445.613281 1154.710938 537.523438 1134.988281 627.75 C 1124.957031 686.726562 1101.46875 752.136719 1047.976562 784.992188 Z M 1047.976562 784.992188 " fill-opacity="1" fill-rule="nonzero"/></g></g></g></g><g clip-path="url(#076b7822f6)"><g clip-path="url(#7e4d2c332a)"><g clip-path="url(#56735652f0)"><g clip-path="url(#9d36c6087c)"><path fill="#ffffff" d="M 576.933594 1010.632812 C 588.679688 982.070312 581.1875 956.226562 573.144531 927.976562 C 500.71875 991.113281 408.363281 1027.277344 314.757812 1044.804688 C 292.023438 1049.101562 269.113281 1048.769531 246.273438 1051.652344 C 252.054688 1075.632812 263.957031 1096.242188 277.734375 1116.398438 C 352.671875 1134.167969 430.929688 1128.199219 498.40625 1089.039062 C 528.847656 1070.804688 562.6875 1044.171875 576.933594 1010.632812 Z M 576.933594 1010.632812 " fill-opacity="1" fill-rule="nonzero"/></g></g></g></g><g clip-path="url(#bb84ca8739)"><g clip-path="url(#df453063d0)"><g clip-path="url(#b8d5e2e28c)"><g clip-path="url(#206bc956c9)"><path fill="#ffffff" d="M 647.054688 1237.757812 C 674.914062 1219.664062 705.992188 1190.023438 708.316406 1154.75 C 709.976562 1134.667969 694.542969 1121.871094 683.039062 1107.605469 C 659.222656 1145.171875 623.191406 1160.984375 584.382812 1179.203125 C 550.179688 1194.734375 514.378906 1203.894531 478.960938 1215.792969 C 496.261719 1238.125 515.960938 1256.804688 538.71875 1273.429688 C 577.34375 1266.640625 613.726562 1260.308594 647.054688 1237.757812 Z M 647.054688 1237.757812 " fill-opacity="1" fill-rule="nonzero"/></g></g></g></g></svg>