<svg xmlns="http://www.w3.org/2000/svg" xmlns:xlink="http://www.w3.org/1999/xlink" width="1920" zoomAndPan="magnify" viewBox="0 0 1440 1439.999935" height="1920" preserveAspectRatio="xMidYMid meet" version="1.0"><path stroke-linecap="butt" transform="matrix(7.309644, 0, 0, 7.309644, -10.964434, -10.964486)" fill-opacity="1" fill="#ffffff" fill-rule="nonzero" stroke-linejoin="miter" d="M 195.499914 100.000014 C 195.499914 101.563124 195.461438 103.125166 195.385019 104.686139 C 195.308066 106.247112 195.193171 107.805413 195.040333 109.360508 C 194.886961 110.916137 194.695647 112.466956 194.466391 114.012966 C 194.237135 115.558976 193.969936 117.098038 193.664796 118.631223 C 193.36019 120.163873 193.017641 121.688506 192.637685 123.20459 C 192.258264 124.720674 191.841434 126.226604 191.387731 127.72238 C 190.934028 129.217622 190.443987 130.701642 189.917606 132.172837 C 189.390691 133.644565 188.828505 135.1024 188.230515 136.54634 C 187.632525 137.99028 186.999265 139.418722 186.330735 140.831667 C 185.662739 142.244612 184.960007 143.639922 184.223608 145.018132 C 183.486675 146.396875 182.716609 147.756381 181.912877 149.096648 C 181.109678 150.437449 180.273882 151.757409 179.405487 153.057062 C 178.537092 154.356715 177.637168 155.633923 176.706249 156.889221 C 175.77533 158.144519 174.81395 159.376304 173.822644 160.584575 C 172.830804 161.792846 171.81064 162.976 170.761085 164.134038 C 169.710995 165.292076 168.633652 166.423394 167.528519 167.528526 C 166.423387 168.633659 165.292069 169.711003 164.134031 170.760558 C 162.975993 171.810648 161.792839 172.830811 160.584568 173.822651 C 159.376297 174.813957 158.144512 175.775337 156.889214 176.706256 C 155.633916 177.637175 154.356708 178.5371 153.057055 179.405494 C 151.757402 180.273889 150.437442 181.109686 149.09664 181.912884 C 147.756373 182.716617 146.396868 183.486682 145.018124 184.223616 C 143.639915 184.960014 142.244605 185.662746 140.83166 186.330742 C 139.418715 186.999272 137.990273 187.632532 136.546332 188.230522 C 135.102392 188.828512 133.644558 189.390698 132.172829 189.917613 C 130.701635 190.443994 129.217615 190.934036 127.722373 191.387739 C 126.226597 191.841441 124.720667 192.258271 123.204583 192.638227 C 121.688499 193.017649 120.163865 193.360197 118.631215 193.664803 C 117.098031 193.969944 115.558968 194.237142 114.012959 194.466398 C 112.466949 194.695654 110.916129 194.886969 109.3605 195.04034 C 107.805406 195.193178 106.247105 195.308073 104.686132 195.385026 C 103.125159 195.461445 101.563117 195.499922 100.000007 195.499922 C 98.436896 195.499922 96.874854 195.461445 95.313882 195.385026 C 93.752909 195.308073 92.194608 195.193178 90.639513 195.04034 C 89.083884 194.886969 87.533065 194.695654 85.987055 194.466398 C 84.441045 194.237142 82.901982 193.969944 81.368798 193.664803 C 79.836148 193.360197 78.311514 193.017649 76.795431 192.637693 C 75.279347 192.258271 73.773417 191.841441 72.27764 191.387739 C 70.782398 190.934036 69.298378 190.443994 67.827184 189.917613 C 66.355455 189.390698 64.897621 188.828512 63.453681 188.230522 C 62.009741 187.632532 60.581298 186.999272 59.168353 186.330742 C 57.755408 185.662746 56.360098 184.960014 54.981355 184.223616 C 53.603145 183.486682 52.24364 182.716617 50.903373 181.912884 C 49.562572 181.109686 48.242612 180.273889 46.942959 179.405494 C 45.643306 178.5371 44.366097 177.637175 43.110799 176.706256 C 41.855501 175.775337 40.623717 174.813957 39.415446 173.822651 C 38.207175 172.830811 37.02402 171.810648 35.865983 170.760558 C 34.707945 169.711003 33.576627 168.633659 32.471494 167.528526 C 31.366362 166.423394 30.289018 165.292076 29.238928 164.134038 C 28.189373 162.976 27.16921 161.792846 26.177369 160.584575 C 25.186063 159.376304 24.224684 158.144519 23.293764 156.889221 C 22.362845 155.633923 21.462921 154.356715 20.594526 153.057062 C 19.726132 151.757409 18.890335 150.437449 18.087137 149.096648 C 17.283404 147.756381 16.513338 146.396875 15.776405 145.018132 C 15.040006 143.639922 14.337275 142.244612 13.669279 140.831667 C 13.000748 139.418722 12.367488 137.99028 11.769498 136.54634 C 11.171508 135.1024 10.609323 133.644565 10.082408 132.172837 C 9.556027 130.701642 9.065985 129.217622 8.612282 127.72238 C 8.158579 126.226604 7.74175 124.720674 7.361794 123.20459 C 6.982372 121.688506 6.639824 120.163873 6.335218 118.631223 C 6.030077 117.098038 5.762879 115.558976 5.533622 114.012966 C 5.304366 112.466956 5.113052 110.916137 4.95968 109.360508 C 4.806843 107.805413 4.691947 106.247112 4.614994 104.686139 C 4.538576 103.125166 4.500099 101.563124 4.500099 100.000014 C 4.500099 98.436903 4.538576 96.874862 4.614994 95.313889 C 4.691947 93.752916 4.806843 92.194615 4.95968 90.63952 C 5.113052 89.083891 5.304366 87.533072 5.533622 85.987062 C 5.762879 84.441052 6.030077 82.90199 6.335218 81.368805 C 6.639824 79.836155 6.982372 78.311521 7.361794 76.795438 C 7.74175 75.279354 8.158579 73.773424 8.612282 72.277648 C 9.065985 70.782405 9.556027 69.298386 10.082408 67.827191 C 10.609323 66.355463 11.171508 64.897628 11.769498 63.453688 C 12.367488 62.009748 13.000748 60.581306 13.669279 59.168361 C 14.337275 57.755416 15.040006 56.360106 15.776405 54.981362 C 16.513338 53.603153 17.283404 52.243647 18.087137 50.90338 C 18.890335 49.562579 19.726132 48.242619 20.594526 46.942966 C 21.462921 45.643313 22.362845 44.366105 23.293764 43.110807 C 24.224684 41.855509 25.186063 40.623724 26.177369 39.415453 C 27.16921 38.207182 28.189373 37.024028 29.238928 35.86599 C 30.289018 34.707952 31.366362 33.576634 32.471494 32.471502 C 33.576627 31.366369 34.707945 30.289025 35.865983 29.238936 C 37.02402 28.18938 38.207175 27.169217 39.415446 26.177376 C 40.623717 25.18607 41.855501 24.224691 43.110799 23.293772 C 44.366097 22.362852 45.643306 21.462928 46.942959 20.594533 C 48.242612 19.726139 49.562572 18.890342 50.903373 18.087144 C 52.24364 17.283411 53.603145 16.513345 54.981355 15.776412 C 56.360098 15.040014 57.755408 14.337282 59.168353 13.669286 C 60.581298 13.000756 62.009741 12.367495 63.453681 11.769505 C 64.897621 11.171515 66.355455 10.60933 67.827184 10.082415 C 69.298378 9.556034 70.782398 9.065992 72.27764 8.612289 C 73.773417 8.158586 75.279347 7.741757 76.795431 7.361801 C 78.311514 6.982379 79.836148 6.639831 81.368798 6.335225 C 82.901982 6.030084 84.441045 5.762886 85.987055 5.53363 C 87.533065 5.304373 89.083884 5.113059 90.639513 4.959687 C 92.194608 4.80685 93.752909 4.691955 95.313882 4.615002 C 96.874854 4.538583 98.436896 4.500106 100.000007 4.500106 C 101.563117 4.500106 103.125159 4.538583 104.686132 4.615002 C 106.247105 4.691955 107.805406 4.80685 109.3605 4.959687 C 110.916129 5.113059 112.466949 5.304373 114.012959 5.53363 C 115.558968 5.762886 117.098031 6.030084 118.631215 6.335225 C 120.163865 6.639831 121.688499 6.982379 123.204583 7.361801 C 124.720667 7.741757 126.226597 8.158586 127.722373 8.612289 C 129.217615 9.065992 130.701635 9.556034 132.172829 10.082415 C 133.644558 10.60933 135.102392 11.171515 136.546332 11.769505 C 137.990273 12.367495 139.418715 13.000756 140.83166 13.669286 C 142.244605 14.337282 143.639915 15.040014 145.018124 15.776412 C 146.396868 16.513345 147.756373 17.283411 149.09664 18.087144 C 150.437442 18.890342 151.757402 19.726139 153.057055 20.594533 C 154.356708 21.462928 155.633916 22.362852 156.889214 23.293772 C 158.144512 24.224691 159.376297 25.18607 160.584568 26.177376 C 161.792839 27.169217 162.975993 28.18938 164.134031 29.238936 C 165.292069 30.289025 166.423387 31.366369 167.528519 32.471502 C 168.633652 33.576634 169.710995 34.707952 170.761085 35.86599 C 171.81064 37.024028 172.830804 38.207182 173.822644 39.415453 C 174.81395 40.623724 175.77533 41.855509 176.706249 43.110807 C 177.637168 44.366105 178.537092 45.643313 179.405487 46.942966 C 180.273882 48.242619 181.109678 49.562579 181.912877 50.90338 C 182.716609 52.243647 183.486675 53.603153 184.223608 54.981362 C 184.960007 56.360106 185.662739 57.755416 186.330735 59.168361 C 186.999265 60.581306 187.632525 62.009748 188.230515 63.453688 C 188.828505 64.897628 189.390691 66.355463 189.917606 67.827191 C 190.443987 69.298386 190.934028 70.782405 191.387731 72.277648 C 191.841434 73.773424 192.258264 75.279354 192.63822 76.795438 C 193.017641 78.311521 193.36019 79.836155 193.664796 81.368805 C 193.969936 82.90199 194.237135 84.441052 194.466391 85.987062 C 194.695647 87.533072 194.886961 89.083891 195.040333 90.63952 C 195.193171 92.194615 195.308066 93.752916 195.385019 95.313889 C 195.461438 96.874862 195.499914 98.436903 195.499914 100.000014 Z M 195.499914 100.000014 " stroke="#000000" stroke-width="6" stroke-opacity="1" stroke-miterlimit="10"/><path stroke-linecap="butt" transform="matrix(7.309644, 0, 0, 7.309644, -10.964434, -10.964486)" fill-opacity="0.27" fill="#000000" fill-rule="nonzero" stroke-linejoin="miter" d="M 166.000144 100.000014 C 166.000144 101.08003 165.973425 102.159511 165.920519 103.238458 C 165.867614 104.317405 165.787989 105.394215 165.682178 106.468887 C 165.576368 107.544093 165.444372 108.615559 165.285656 109.684352 C 165.12694 110.752611 164.942573 111.816595 164.732021 112.875769 C 164.520934 113.935478 164.284731 114.988774 164.021808 116.036726 C 163.759419 117.084678 163.471379 118.125149 163.158222 119.158672 C 162.844532 120.192196 162.505724 121.217703 162.1418 122.23466 C 161.777876 123.251617 161.389369 124.258955 160.97628 125.257208 C 160.562657 126.254927 160.124986 127.241958 159.663268 128.218835 C 159.201549 129.195178 158.715782 130.159764 158.207036 131.112059 C 157.697756 132.064888 157.165497 133.004358 156.610259 133.931002 C 156.055021 134.857111 155.477338 135.769327 154.87721 136.667648 C 154.277083 137.565969 153.655045 138.448792 153.011631 139.316118 C 152.368217 140.183978 151.703962 141.034738 151.018866 141.87 C 150.333235 142.704728 149.628365 143.522355 148.902654 144.322881 C 148.177478 145.123408 147.433063 145.90523 146.668876 146.668883 C 145.905223 147.43307 145.1234 148.177485 144.322874 148.902662 C 143.522348 149.628372 142.704721 150.333242 141.869993 151.018873 C 141.034731 151.703969 140.183437 152.368225 139.316111 153.011638 C 138.448785 153.655052 137.565961 154.27709 136.667641 154.877217 C 135.76932 155.477345 134.857104 156.055028 133.930995 156.610266 C 133.004351 157.165504 132.064881 157.697763 131.112052 158.207044 C 130.159757 158.715789 129.195171 159.201556 128.218828 159.663275 C 127.24195 160.124994 126.25492 160.562665 125.257201 160.976288 C 124.258948 161.389376 123.25161 161.777883 122.234653 162.141807 C 121.217696 162.505731 120.192188 162.844539 119.158665 163.15823 C 118.125142 163.471386 117.084671 163.759426 116.036719 164.021815 C 114.988767 164.284738 113.935471 164.520941 112.875762 164.732028 C 111.816588 164.94258 110.752604 165.126947 109.684345 165.285663 C 108.615551 165.444379 107.544086 165.576375 106.46888 165.682185 C 105.394208 165.787996 104.317398 165.867621 103.238451 165.920526 C 102.159504 165.973432 101.080023 166.000152 100.000007 166.000152 C 98.919991 166.000152 97.840509 165.973432 96.761562 165.920526 C 95.682615 165.867621 94.605806 165.787996 93.531134 165.682185 C 92.455928 165.576375 91.384462 165.444379 90.315669 165.285663 C 89.247409 165.126947 88.183426 164.94258 87.124251 164.732028 C 86.064542 164.520941 85.011246 164.284738 83.963294 164.021815 C 82.915342 163.759426 81.874872 163.471386 80.841348 163.15823 C 79.807825 162.844539 78.782318 162.505731 77.765361 162.141807 C 76.748404 161.777883 75.741066 161.389376 74.742813 160.976288 C 73.745094 160.562665 72.757529 160.124994 71.781186 159.663275 C 70.804843 159.201556 69.840257 158.715789 68.887962 158.207044 C 67.935132 157.697763 66.995663 157.165504 66.069019 156.610266 C 65.142909 156.055028 64.230694 155.477345 63.332373 154.877217 C 62.434052 154.27709 61.551229 153.655052 60.683903 153.011638 C 59.816042 152.368225 58.964748 151.703969 58.13002 151.018873 C 57.295293 150.333242 56.477666 149.628372 55.677139 148.902662 C 54.876613 148.177485 54.094791 147.43307 53.331138 146.668883 C 52.56695 145.90523 51.822535 145.123408 51.097359 144.322881 C 50.371648 143.522355 49.666779 142.704728 48.981148 141.87 C 48.296051 141.034738 47.631796 140.183444 46.988382 139.316118 C 46.344969 138.448792 45.722931 137.565969 45.122803 136.667648 C 44.522676 135.769327 43.944993 134.857111 43.389755 133.931002 C 42.834516 133.004358 42.302257 132.064888 41.792977 131.112059 C 41.284231 130.159764 40.798465 129.195178 40.336746 128.218835 C 39.875027 127.241958 39.437356 126.254927 39.023733 125.257208 C 38.610644 124.258955 38.222138 123.251617 37.858214 122.23466 C 37.49429 121.217703 37.155482 120.192196 36.841791 119.158672 C 36.528635 118.125149 36.240595 117.084678 35.977671 116.036726 C 35.715283 114.988774 35.479079 113.935478 35.267993 112.875769 C 35.05744 111.816595 34.873073 110.752611 34.714358 109.684352 C 34.555642 108.615559 34.423646 107.544093 34.317835 106.468887 C 34.212025 105.394215 34.132399 104.317405 34.079494 103.238458 C 34.026589 102.159511 33.999869 101.08003 33.999869 100.000014 C 33.999869 98.919998 34.026589 97.840517 34.079494 96.76157 C 34.132399 95.682622 34.212025 94.605813 34.317835 93.531141 C 34.423646 92.455935 34.555642 91.384469 34.714358 90.315676 C 34.873073 89.247417 35.05744 88.183433 35.267993 87.124258 C 35.479079 86.06455 35.715283 85.011254 35.977671 83.963301 C 36.240595 82.915349 36.528635 81.874879 36.841791 80.841356 C 37.155482 79.807832 37.49429 78.782325 37.858214 77.765368 C 38.222138 76.748411 38.610644 75.741073 39.023733 74.74282 C 39.437356 73.745101 39.875027 72.757536 40.336746 71.781193 C 40.798465 70.80485 41.284231 69.840264 41.792977 68.887969 C 42.302257 67.935139 42.834516 66.99567 43.389755 66.069026 C 43.944993 65.142916 44.522676 64.230701 45.122803 63.33238 C 45.722931 62.434059 46.344969 61.551236 46.988382 60.68391 C 47.631796 59.816049 48.296051 58.964755 48.981148 58.130028 C 49.666779 57.2953 50.371648 56.477673 51.097359 55.677147 C 51.822535 54.87662 52.56695 54.094798 53.331138 53.331145 C 54.094791 52.566957 54.876613 51.822543 55.677139 51.097366 C 56.477666 50.371655 57.295293 49.666786 58.13002 48.981155 C 58.964748 48.296058 59.816042 47.631803 60.683903 46.98839 C 61.551229 46.344976 62.434052 45.722938 63.332373 45.12281 C 64.230694 44.522683 65.142909 43.945 66.069019 43.389762 C 66.995663 42.834524 67.935132 42.302264 68.887962 41.792984 C 69.840257 41.284239 70.804843 40.798472 71.781186 40.336753 C 72.757529 39.875034 73.745094 39.437363 74.742813 39.02374 C 75.741066 38.610652 76.748404 38.222145 77.765361 37.858221 C 78.782318 37.494297 79.807825 37.155489 80.841348 36.841798 C 81.874872 36.528642 82.915342 36.240602 83.963294 35.977679 C 85.011246 35.71529 86.064542 35.479086 87.124251 35.268 C 88.183426 35.057447 89.247409 34.873081 90.315669 34.714365 C 91.384462 34.555649 92.455928 34.423653 93.531134 34.317842 C 94.605806 34.212032 95.682615 34.132407 96.761562 34.079501 C 97.840509 34.026596 98.919991 33.999876 100.000007 33.999876 C 101.080023 33.999876 102.159504 34.026596 103.238451 34.079501 C 104.317398 34.132407 105.394208 34.212032 106.46888 34.317842 C 107.544086 34.423653 108.615551 34.555649 109.684345 34.714365 C 110.752604 34.873081 111.816588 35.057447 112.875762 35.268 C 113.935471 35.479086 114.988767 35.71529 116.036719 35.977679 C 117.084671 36.240602 118.125142 36.528642 119.158665 36.841798 C 120.192188 37.155489 121.217696 37.494297 122.234653 37.858221 C 123.25161 38.222145 124.258948 38.610652 125.257201 39.02374 C 126.25492 39.437363 127.24195 39.875034 128.218828 40.336753 C 129.195171 40.798472 130.159757 41.284239 131.112052 41.792984 C 132.064881 42.302264 133.004351 42.834524 133.930995 43.389762 C 134.857104 43.945 135.76932 44.522683 136.667641 45.12281 C 137.565961 45.722938 138.448785 46.344976 139.316111 46.98839 C 140.183971 47.631803 141.034731 48.296058 141.869993 48.981155 C 142.704721 49.666786 143.522348 50.371655 144.322874 51.097366 C 145.1234 51.822543 145.905223 52.566957 146.668876 53.331145 C 147.433063 54.094798 148.177478 54.87662 148.902654 55.677147 C 149.628365 56.477673 150.333235 57.2953 151.018866 58.130028 C 151.703962 58.964755 152.368217 59.816049 153.011631 60.68391 C 153.655045 61.551236 154.277083 62.434059 154.87721 63.33238 C 155.477338 64.230701 156.055021 65.142916 156.610259 66.069026 C 157.165497 66.99567 157.697756 67.935139 158.207036 68.887969 C 158.715782 69.840264 159.201549 70.80485 159.663268 71.781193 C 160.124986 72.757536 160.562657 73.745101 160.97628 74.74282 C 161.389369 75.741073 161.777876 76.748411 162.1418 77.765368 C 162.505724 78.782325 162.844532 79.807832 163.158222 80.841356 C 163.471379 81.874879 163.759419 82.915349 164.021808 83.963301 C 164.284731 85.011254 164.520934 86.06455 164.732021 87.124258 C 164.942573 88.183433 165.12694 89.247417 165.285656 90.315676 C 165.444372 91.384469 165.576368 92.455935 165.682178 93.531141 C 165.787989 94.605813 165.867614 95.682622 165.920519 96.76157 C 165.973425 97.840517 166.000144 98.919998 166.000144 100.000014 Z M 166.000144 100.000014 " stroke="#000000" stroke-width="6" stroke-opacity="1" stroke-miterlimit="10"/><path fill="#000000" d="M 778.476562 127.917969 C 778.476562 129.832031 778.382812 131.746094 778.195312 133.652344 C 778.007812 135.554688 777.726562 137.449219 777.351562 139.328125 C 776.980469 141.207031 776.515625 143.0625 775.960938 144.894531 C 775.402344 146.726562 774.757812 148.527344 774.027344 150.296875 C 773.292969 152.066406 772.476562 153.796875 771.570312 155.484375 C 770.667969 157.171875 769.6875 158.816406 768.621094 160.40625 C 767.558594 162 766.417969 163.535156 765.203125 165.015625 C 763.988281 166.496094 762.703125 167.914062 761.347656 169.269531 C 759.996094 170.621094 758.578125 171.90625 757.097656 173.121094 C 755.617188 174.335938 754.082031 175.476562 752.488281 176.539062 C 750.894531 177.605469 749.253906 178.589844 747.566406 179.492188 C 745.875 180.394531 744.148438 181.210938 742.378906 181.945312 C 740.609375 182.675781 738.808594 183.320312 736.976562 183.878906 C 735.140625 184.433594 733.285156 184.898438 731.410156 185.273438 C 729.53125 185.644531 727.636719 185.925781 725.730469 186.113281 C 723.824219 186.300781 721.914062 186.394531 720 186.394531 C 718.085938 186.394531 716.175781 186.300781 714.269531 186.113281 C 712.363281 185.925781 710.46875 185.644531 708.589844 185.273438 C 706.714844 184.898438 704.859375 184.433594 703.023438 183.878906 C 701.191406 183.320312 699.390625 182.675781 697.621094 181.945312 C 695.851562 181.210938 694.121094 180.394531 692.433594 179.492188 C 690.746094 178.589844 689.105469 177.605469 687.511719 176.539062 C 685.917969 175.476562 684.382812 174.335938 682.902344 173.121094 C 681.421875 171.90625 680.003906 170.621094 678.648438 169.269531 C 677.296875 167.914062 676.011719 166.496094 674.796875 165.015625 C 673.582031 163.535156 672.441406 162 671.378906 160.40625 C 670.3125 158.816406 669.332031 157.171875 668.425781 155.484375 C 667.523438 153.796875 666.707031 152.066406 665.972656 150.296875 C 665.242188 148.527344 664.597656 146.726562 664.039062 144.894531 C 663.484375 143.0625 663.019531 141.207031 662.644531 139.328125 C 662.273438 137.449219 661.992188 135.554688 661.804688 133.652344 C 661.617188 131.746094 661.523438 129.832031 661.523438 127.917969 C 661.523438 126.003906 661.617188 124.09375 661.804688 122.1875 C 661.992188 120.28125 662.273438 118.390625 662.644531 116.511719 C 663.019531 114.632812 663.484375 112.777344 664.039062 110.945312 C 664.597656 109.109375 665.242188 107.308594 665.972656 105.539062 C 666.707031 103.769531 667.523438 102.042969 668.425781 100.351562 C 669.332031 98.664062 670.3125 97.023438 671.378906 95.429688 C 672.441406 93.839844 673.582031 92.300781 674.796875 90.820312 C 676.011719 89.339844 677.296875 87.921875 678.648438 86.570312 C 680.003906 85.214844 681.421875 83.929688 682.902344 82.714844 C 684.382812 81.5 685.917969 80.359375 687.511719 79.296875 C 689.105469 78.234375 690.746094 77.25 692.433594 76.347656 C 694.121094 75.445312 695.851562 74.625 697.621094 73.894531 C 699.390625 73.160156 701.191406 72.515625 703.023438 71.960938 C 704.859375 71.402344 706.714844 70.9375 708.589844 70.566406 C 710.46875 70.191406 712.363281 69.910156 714.269531 69.722656 C 716.175781 69.535156 718.085938 69.441406 720 69.441406 C 721.914062 69.441406 723.824219 69.535156 725.730469 69.722656 C 727.636719 69.910156 729.53125 70.191406 731.410156 70.566406 C 733.285156 70.9375 735.140625 71.402344 736.976562 71.960938 C 738.808594 72.515625 740.609375 73.160156 742.378906 73.894531 C 744.148438 74.625 745.875 75.445312 747.566406 76.347656 C 749.253906 77.25 750.894531 78.234375 752.488281 79.296875 C 754.082031 80.359375 755.617188 81.5 757.097656 82.714844 C 758.578125 83.929688 759.996094 85.214844 761.347656 86.570312 C 762.703125 87.921875 763.988281 89.339844 765.203125 90.820312 C 766.417969 92.300781 767.558594 93.839844 768.621094 95.429688 C 769.6875 97.023438 770.667969 98.664062 771.570312 100.351562 C 772.476562 102.042969 773.292969 103.769531 774.027344 105.539062 C 774.757812 107.308594 775.402344 109.109375 775.957031 110.945312 C 776.515625 112.777344 776.980469 114.632812 777.351562 116.511719 C 777.726562 118.390625 778.007812 120.28125 778.195312 122.1875 C 778.382812 124.09375 778.476562 126.003906 778.476562 127.917969 Z M 778.476562 127.917969 " fill-opacity="0.27" fill-rule="nonzero"/><path fill="#000000" d="M 575.972656 163.625 C 575.972656 165.542969 575.875 167.453125 575.6875 169.359375 C 575.5 171.265625 575.21875 173.15625 574.847656 175.035156 C 574.472656 176.914062 574.007812 178.769531 573.453125 180.601562 C 572.898438 182.433594 572.253906 184.234375 571.519531 186.003906 C 570.785156 187.773438 569.96875 189.503906 569.066406 191.191406 C 568.164062 192.882812 567.179688 194.523438 566.117188 196.113281 C 565.050781 197.707031 563.910156 199.242188 562.695312 200.722656 C 561.480469 202.203125 560.199219 203.621094 558.84375 204.976562 C 557.488281 206.332031 556.070312 207.613281 554.589844 208.828125 C 553.109375 210.042969 551.574219 211.183594 549.980469 212.25 C 548.390625 213.3125 546.75 214.296875 545.058594 215.199219 C 543.371094 216.101562 541.640625 216.917969 539.871094 217.652344 C 538.101562 218.386719 536.300781 219.03125 534.46875 219.585938 C 532.636719 220.140625 530.78125 220.605469 528.902344 220.980469 C 527.023438 221.355469 525.132812 221.632812 523.226562 221.820312 C 521.320312 222.007812 519.410156 222.101562 517.492188 222.101562 C 515.578125 222.101562 513.667969 222.007812 511.761719 221.820312 C 509.855469 221.632812 507.964844 221.355469 506.085938 220.980469 C 504.207031 220.605469 502.351562 220.140625 500.519531 219.585938 C 498.6875 219.03125 496.882812 218.386719 495.117188 217.652344 C 493.347656 216.917969 491.617188 216.101562 489.925781 215.199219 C 488.238281 214.296875 486.597656 213.3125 485.003906 212.25 C 483.414062 211.183594 481.875 210.042969 480.394531 208.828125 C 478.914062 207.613281 477.5 206.332031 476.144531 204.976562 C 474.789062 203.621094 473.503906 202.203125 472.289062 200.722656 C 471.074219 199.242188 469.9375 197.707031 468.871094 196.113281 C 467.808594 194.523438 466.824219 192.882812 465.921875 191.191406 C 465.019531 189.503906 464.199219 187.773438 463.46875 186.003906 C 462.734375 184.234375 462.089844 182.433594 461.535156 180.601562 C 460.976562 178.769531 460.515625 176.914062 460.140625 175.035156 C 459.765625 173.15625 459.484375 171.265625 459.296875 169.359375 C 459.109375 167.453125 459.015625 165.542969 459.015625 163.625 C 459.015625 161.710938 459.109375 159.800781 459.296875 157.894531 C 459.484375 155.988281 459.765625 154.097656 460.140625 152.21875 C 460.511719 150.339844 460.976562 148.484375 461.535156 146.652344 C 462.089844 144.820312 462.734375 143.015625 463.46875 141.25 C 464.199219 139.480469 465.019531 137.75 465.921875 136.058594 C 466.824219 134.371094 467.808594 132.730469 468.871094 131.136719 C 469.9375 129.546875 471.074219 128.007812 472.289062 126.527344 C 473.503906 125.046875 474.789062 123.632812 476.144531 122.277344 C 477.5 120.921875 478.914062 119.636719 480.394531 118.421875 C 481.875 117.207031 483.414062 116.070312 485.003906 115.003906 C 486.597656 113.941406 488.238281 112.957031 489.925781 112.054688 C 491.617188 111.152344 493.347656 110.332031 495.117188 109.601562 C 496.882812 108.867188 498.6875 108.222656 500.519531 107.667969 C 502.351562 107.109375 504.207031 106.644531 506.085938 106.273438 C 507.964844 105.898438 509.855469 105.617188 511.761719 105.429688 C 513.667969 105.242188 515.578125 105.148438 517.492188 105.148438 C 519.410156 105.148438 521.320312 105.242188 523.226562 105.429688 C 525.132812 105.617188 527.023438 105.898438 528.902344 106.273438 C 530.78125 106.644531 532.636719 107.109375 534.46875 107.667969 C 536.300781 108.222656 538.101562 108.867188 539.871094 109.601562 C 541.640625 110.332031 543.371094 111.152344 545.058594 112.054688 C 546.75 112.957031 548.390625 113.941406 549.980469 115.003906 C 551.574219 116.070312 553.109375 117.207031 554.589844 118.421875 C 556.070312 119.636719 557.488281 120.921875 558.84375 122.277344 C 560.199219 123.632812 561.480469 125.046875 562.695312 126.527344 C 563.910156 128.007812 565.050781 129.546875 566.117188 131.136719 C 567.179688 132.730469 568.164062 134.371094 569.066406 136.058594 C 569.96875 137.75 570.785156 139.480469 571.519531 141.25 C 572.253906 143.015625 572.898438 144.820312 573.453125 146.652344 C 574.007812 148.484375 574.472656 150.339844 574.847656 152.21875 C 575.21875 154.097656 575.5 155.988281 575.6875 157.894531 C 575.875 159.800781 575.972656 161.710938 575.972656 163.625 Z M 575.972656 163.625 " fill-opacity="0.27" fill-rule="nonzero"/><path fill="#000000" d="M 397.894531 266.4375 C 397.894531 268.351562 397.800781 270.261719 397.613281 272.167969 C 397.425781 274.074219 397.144531 275.964844 396.769531 277.84375 C 396.394531 279.722656 395.929688 281.578125 395.375 283.410156 C 394.820312 285.246094 394.175781 287.046875 393.441406 288.816406 C 392.707031 290.585938 391.890625 292.3125 390.988281 294.003906 C 390.085938 295.691406 389.101562 297.332031 388.039062 298.925781 C 386.972656 300.515625 385.835938 302.054688 384.621094 303.535156 C 383.40625 305.015625 382.121094 306.433594 380.765625 307.785156 C 379.410156 309.140625 377.992188 310.425781 376.511719 311.640625 C 375.03125 312.855469 373.496094 313.996094 371.902344 315.058594 C 370.3125 316.121094 368.671875 317.105469 366.980469 318.007812 C 365.292969 318.910156 363.5625 319.730469 361.792969 320.460938 C 360.023438 321.195312 358.222656 321.839844 356.390625 322.394531 C 354.558594 322.953125 352.703125 323.417969 350.824219 323.789062 C 348.945312 324.164062 347.054688 324.445312 345.148438 324.632812 C 343.242188 324.820312 341.332031 324.914062 339.417969 324.914062 C 337.5 324.914062 335.589844 324.820312 333.683594 324.632812 C 331.777344 324.445312 329.886719 324.164062 328.007812 323.789062 C 326.128906 323.417969 324.273438 322.953125 322.441406 322.394531 C 320.609375 321.839844 318.808594 321.195312 317.039062 320.460938 C 315.269531 319.730469 313.539062 318.910156 311.851562 318.007812 C 310.160156 317.105469 308.519531 316.121094 306.929688 315.058594 C 305.335938 313.996094 303.800781 312.855469 302.320312 311.640625 C 300.839844 310.425781 299.421875 309.140625 298.066406 307.785156 C 296.710938 306.433594 295.425781 305.015625 294.210938 303.535156 C 292.996094 302.054688 291.859375 300.515625 290.792969 298.925781 C 289.730469 297.332031 288.746094 295.691406 287.84375 294.003906 C 286.941406 292.3125 286.125 290.585938 285.390625 288.816406 C 284.65625 287.046875 284.011719 285.246094 283.457031 283.410156 C 282.902344 281.578125 282.4375 279.722656 282.0625 277.84375 C 281.6875 275.964844 281.40625 274.074219 281.21875 272.167969 C 281.03125 270.261719 280.9375 268.351562 280.9375 266.4375 C 280.9375 264.519531 281.03125 262.609375 281.21875 260.703125 C 281.40625 258.796875 281.6875 256.90625 282.0625 255.027344 C 282.4375 253.148438 282.902344 251.292969 283.457031 249.460938 C 284.011719 247.628906 284.65625 245.828125 285.390625 244.058594 C 286.125 242.289062 286.941406 240.558594 287.84375 238.871094 C 288.746094 237.179688 289.730469 235.539062 290.792969 233.949219 C 291.859375 232.355469 292.996094 230.820312 294.210938 229.339844 C 295.425781 227.859375 296.710938 226.441406 298.066406 225.085938 C 299.421875 223.734375 300.839844 222.449219 302.320312 221.234375 C 303.800781 220.019531 305.335938 218.878906 306.929688 217.816406 C 308.519531 216.75 310.160156 215.765625 311.851562 214.863281 C 313.539062 213.960938 315.269531 213.144531 317.039062 212.410156 C 318.808594 211.675781 320.609375 211.035156 322.441406 210.476562 C 324.273438 209.921875 326.128906 209.457031 328.007812 209.082031 C 329.886719 208.710938 331.777344 208.429688 333.683594 208.242188 C 335.589844 208.054688 337.5 207.960938 339.417969 207.960938 C 341.332031 207.960938 343.242188 208.054688 345.148438 208.242188 C 347.054688 208.429688 348.945312 208.710938 350.824219 209.082031 C 352.703125 209.457031 354.558594 209.921875 356.390625 210.476562 C 358.222656 211.035156 360.023438 211.679688 361.792969 212.410156 C 363.5625 213.144531 365.292969 213.960938 366.980469 214.863281 C 368.671875 215.765625 370.3125 216.75 371.902344 217.816406 C 373.496094 218.878906 375.03125 220.019531 376.511719 221.234375 C 377.992188 222.449219 379.410156 223.734375 380.765625 225.085938 C 382.121094 226.441406 383.40625 227.859375 384.621094 229.339844 C 385.835938 230.820312 386.972656 232.355469 388.039062 233.949219 C 389.101562 235.539062 390.085938 237.179688 390.988281 238.871094 C 391.890625 240.558594 392.707031 242.289062 393.441406 244.058594 C 394.175781 245.828125 394.820312 247.628906 395.375 249.460938 C 395.929688 251.292969 396.394531 253.148438 396.769531 255.027344 C 397.144531 256.90625 397.425781 258.796875 397.613281 260.703125 C 397.800781 262.609375 397.894531 264.519531 397.894531 266.4375 Z M 397.894531 266.4375 " fill-opacity="0.27" fill-rule="nonzero"/><path fill="#000000" d="M 265.71875 423.960938 C 265.71875 425.875 265.625 427.785156 265.4375 429.691406 C 265.25 431.597656 264.96875 433.488281 264.597656 435.367188 C 264.222656 437.246094 263.757812 439.101562 263.203125 440.933594 C 262.644531 442.765625 262 444.566406 261.269531 446.335938 C 260.535156 448.105469 259.71875 449.835938 258.816406 451.523438 C 257.914062 453.214844 256.929688 454.855469 255.863281 456.449219 C 254.800781 458.039062 253.660156 459.578125 252.445312 461.058594 C 251.230469 462.539062 249.945312 463.953125 248.59375 465.308594 C 247.238281 466.664062 245.820312 467.949219 244.339844 469.164062 C 242.859375 470.378906 241.324219 471.515625 239.730469 472.582031 C 238.140625 473.644531 236.496094 474.628906 234.808594 475.53125 C 233.121094 476.433594 231.390625 477.253906 229.621094 477.984375 C 227.851562 478.71875 226.050781 479.363281 224.21875 479.917969 C 222.386719 480.472656 220.53125 480.9375 218.652344 481.3125 C 216.773438 481.6875 214.878906 481.96875 212.976562 482.15625 C 211.070312 482.34375 209.160156 482.4375 207.242188 482.4375 C 205.328125 482.4375 203.417969 482.34375 201.511719 482.15625 C 199.605469 481.96875 197.714844 481.6875 195.835938 481.3125 C 193.957031 480.9375 192.101562 480.472656 190.269531 479.917969 C 188.433594 479.363281 186.632812 478.71875 184.863281 477.984375 C 183.09375 477.253906 181.367188 476.433594 179.675781 475.53125 C 177.988281 474.628906 176.347656 473.644531 174.753906 472.582031 C 173.164062 471.515625 171.625 470.378906 170.144531 469.164062 C 168.664062 467.949219 167.246094 466.664062 165.894531 465.308594 C 164.539062 463.953125 163.253906 462.539062 162.039062 461.058594 C 160.824219 459.578125 159.683594 458.039062 158.621094 456.449219 C 157.558594 454.855469 156.574219 453.214844 155.671875 451.523438 C 154.769531 449.835938 153.949219 448.105469 153.21875 446.335938 C 152.484375 444.566406 151.839844 442.765625 151.285156 440.933594 C 150.726562 439.101562 150.261719 437.246094 149.890625 435.367188 C 149.515625 433.488281 149.234375 431.597656 149.046875 429.691406 C 148.859375 427.785156 148.765625 425.875 148.765625 423.960938 C 148.765625 422.042969 148.859375 420.132812 149.046875 418.226562 C 149.234375 416.320312 149.515625 414.429688 149.890625 412.550781 C 150.261719 410.671875 150.726562 408.816406 151.285156 406.984375 C 151.839844 405.152344 152.484375 403.351562 153.21875 401.582031 C 153.949219 399.8125 154.769531 398.082031 155.671875 396.394531 C 156.574219 394.703125 157.558594 393.0625 158.621094 391.472656 C 159.683594 389.878906 160.824219 388.34375 162.039062 386.863281 C 163.253906 385.382812 164.539062 383.964844 165.894531 382.609375 C 167.246094 381.253906 168.664062 379.972656 170.144531 378.753906 C 171.625 377.539062 173.164062 376.402344 174.753906 375.335938 C 176.347656 374.273438 177.988281 373.289062 179.675781 372.386719 C 181.367188 371.484375 183.09375 370.667969 184.863281 369.933594 C 186.632812 369.199219 188.433594 368.554688 190.269531 368 C 192.101562 367.445312 193.957031 366.980469 195.835938 366.605469 C 197.714844 366.230469 199.605469 365.953125 201.511719 365.765625 C 203.417969 365.574219 205.328125 365.480469 207.242188 365.480469 C 209.160156 365.480469 211.070312 365.574219 212.976562 365.765625 C 214.878906 365.953125 216.773438 366.230469 218.652344 366.605469 C 220.53125 366.980469 222.386719 367.445312 224.21875 368 C 226.050781 368.554688 227.851562 369.199219 229.621094 369.933594 C 231.390625 370.667969 233.121094 371.484375 234.808594 372.386719 C 236.496094 373.289062 238.140625 374.273438 239.730469 375.335938 C 241.324219 376.402344 242.859375 377.539062 244.339844 378.753906 C 245.820312 379.972656 247.238281 381.253906 248.59375 382.609375 C 249.945312 383.964844 251.230469 385.382812 252.445312 386.863281 C 253.660156 388.34375 254.800781 389.878906 255.863281 391.472656 C 256.929688 393.0625 257.914062 394.703125 258.816406 396.394531 C 259.71875 398.082031 260.535156 399.8125 261.269531 401.582031 C 262 403.351562 262.644531 405.152344 263.203125 406.984375 C 263.757812 408.816406 264.222656 410.671875 264.597656 412.550781 C 264.96875 414.429688 265.25 416.320312 265.4375 418.226562 C 265.625 420.132812 265.71875 422.042969 265.71875 423.960938 Z M 265.71875 423.960938 " fill-opacity="0.27" fill-rule="nonzero"/><path fill="#000000" d="M 195.394531 617.183594 C 195.394531 619.097656 195.300781 621.007812 195.113281 622.914062 C 194.925781 624.820312 194.644531 626.710938 194.269531 628.589844 C 193.898438 630.46875 193.433594 632.324219 192.875 634.15625 C 192.320312 635.988281 191.675781 637.792969 190.941406 639.5625 C 190.210938 641.328125 189.390625 643.058594 188.488281 644.75 C 187.585938 646.4375 186.601562 648.078125 185.539062 649.671875 C 184.476562 651.261719 183.335938 652.800781 182.121094 654.28125 C 180.90625 655.761719 179.621094 657.179688 178.265625 658.53125 C 176.914062 659.886719 175.496094 661.171875 174.015625 662.386719 C 172.535156 663.601562 170.996094 664.742188 169.40625 665.804688 C 167.8125 666.867188 166.171875 667.851562 164.484375 668.753906 C 162.792969 669.65625 161.066406 670.476562 159.296875 671.207031 C 157.527344 671.941406 155.726562 672.585938 153.890625 673.140625 C 152.058594 673.699219 150.203125 674.164062 148.324219 674.535156 C 146.445312 674.910156 144.554688 675.191406 142.648438 675.378906 C 140.742188 675.566406 138.832031 675.660156 136.917969 675.660156 C 135 675.660156 133.089844 675.566406 131.183594 675.378906 C 129.277344 675.191406 127.386719 674.910156 125.507812 674.535156 C 123.628906 674.164062 121.773438 673.699219 119.941406 673.140625 C 118.109375 672.585938 116.308594 671.941406 114.539062 671.207031 C 112.769531 670.476562 111.039062 669.65625 109.351562 668.753906 C 107.660156 667.851562 106.019531 666.867188 104.429688 665.804688 C 102.835938 664.742188 101.300781 663.601562 99.820312 662.386719 C 98.339844 661.171875 96.921875 659.886719 95.566406 658.53125 C 94.214844 657.179688 92.929688 655.761719 91.714844 654.28125 C 90.5 652.800781 89.359375 651.261719 88.296875 649.671875 C 87.230469 648.078125 86.246094 646.4375 85.34375 644.75 C 84.441406 643.058594 83.625 641.328125 82.890625 639.558594 C 82.160156 637.792969 81.515625 635.988281 80.957031 634.15625 C 80.402344 632.324219 79.9375 630.46875 79.5625 628.589844 C 79.191406 626.710938 78.910156 624.820312 78.722656 622.914062 C 78.535156 621.007812 78.441406 619.097656 78.441406 617.183594 C 78.441406 615.265625 78.535156 613.355469 78.722656 611.449219 C 78.910156 609.542969 79.191406 607.652344 79.5625 605.773438 C 79.9375 603.894531 80.402344 602.039062 80.957031 600.207031 C 81.515625 598.375 82.160156 596.574219 82.890625 594.804688 C 83.625 593.035156 84.441406 591.304688 85.34375 589.617188 C 86.246094 587.925781 87.230469 586.285156 88.296875 584.695312 C 89.359375 583.101562 90.5 581.566406 91.714844 580.085938 C 92.929688 578.605469 94.214844 577.1875 95.566406 575.832031 C 96.921875 574.480469 98.339844 573.195312 99.820312 571.980469 C 101.300781 570.765625 102.835938 569.625 104.429688 568.558594 C 106.019531 567.496094 107.660156 566.511719 109.351562 565.609375 C 111.039062 564.707031 112.769531 563.890625 114.539062 563.15625 C 116.308594 562.421875 118.109375 561.777344 119.941406 561.222656 C 121.773438 560.667969 123.628906 560.203125 125.507812 559.828125 C 127.386719 559.457031 129.277344 559.175781 131.183594 558.988281 C 133.089844 558.800781 135 558.707031 136.917969 558.707031 C 138.832031 558.707031 140.742188 558.800781 142.648438 558.988281 C 144.554688 559.175781 146.445312 559.457031 148.324219 559.828125 C 150.203125 560.203125 152.058594 560.667969 153.890625 561.222656 C 155.726562 561.777344 157.527344 562.421875 159.296875 563.15625 C 161.066406 563.890625 162.792969 564.707031 164.484375 565.609375 C 166.171875 566.511719 167.8125 567.496094 169.40625 568.558594 C 170.996094 569.625 172.535156 570.765625 174.015625 571.980469 C 175.496094 573.195312 176.914062 574.480469 178.265625 575.832031 C 179.621094 577.1875 180.90625 578.605469 182.121094 580.085938 C 183.335938 581.566406 184.476562 583.101562 185.539062 584.695312 C 186.601562 586.285156 187.585938 587.925781 188.488281 589.617188 C 189.390625 591.304688 190.210938 593.035156 190.941406 594.804688 C 191.675781 596.574219 192.320312 598.375 192.875 600.207031 C 193.433594 602.039062 193.898438 603.894531 194.269531 605.773438 C 194.644531 607.652344 194.925781 609.542969 195.113281 611.449219 C 195.300781 613.355469 195.394531 615.265625 195.394531 617.183594 Z M 195.394531 617.183594 " fill-opacity="0.27" fill-rule="nonzero"/><path fill="#000000" d="M 195.394531 822.816406 C 195.394531 824.734375 195.300781 826.644531 195.113281 828.550781 C 194.925781 830.457031 194.644531 832.347656 194.269531 834.226562 C 193.898438 836.105469 193.433594 837.960938 192.875 839.792969 C 192.320312 841.625 191.675781 843.425781 190.941406 845.195312 C 190.210938 846.964844 189.390625 848.695312 188.488281 850.382812 C 187.585938 852.074219 186.601562 853.714844 185.539062 855.304688 C 184.476562 856.898438 183.335938 858.433594 182.121094 859.914062 C 180.90625 861.394531 179.621094 862.8125 178.265625 864.167969 C 176.914062 865.519531 175.496094 866.804688 174.015625 868.019531 C 172.535156 869.234375 170.996094 870.375 169.40625 871.4375 C 167.8125 872.503906 166.171875 873.488281 164.484375 874.390625 C 162.792969 875.292969 161.066406 876.109375 159.296875 876.84375 C 157.527344 877.574219 155.726562 878.21875 153.890625 878.777344 C 152.058594 879.332031 150.203125 879.796875 148.324219 880.171875 C 146.445312 880.542969 144.554688 880.824219 142.648438 881.011719 C 140.742188 881.199219 138.832031 881.292969 136.917969 881.292969 C 135 881.292969 133.089844 881.199219 131.183594 881.011719 C 129.277344 880.824219 127.386719 880.542969 125.507812 880.171875 C 123.628906 879.796875 121.773438 879.332031 119.941406 878.777344 C 118.109375 878.21875 116.308594 877.574219 114.539062 876.84375 C 112.769531 876.109375 111.039062 875.292969 109.351562 874.390625 C 107.660156 873.488281 106.019531 872.503906 104.429688 871.4375 C 102.835938 870.375 101.300781 869.234375 99.820312 868.019531 C 98.339844 866.804688 96.921875 865.519531 95.566406 864.167969 C 94.214844 862.8125 92.929688 861.394531 91.714844 859.914062 C 90.5 858.433594 89.359375 856.898438 88.296875 855.304688 C 87.230469 853.714844 86.246094 852.070312 85.34375 850.382812 C 84.441406 848.695312 83.625 846.964844 82.890625 845.195312 C 82.160156 843.425781 81.515625 841.625 80.957031 839.792969 C 80.402344 837.960938 79.9375 836.105469 79.5625 834.226562 C 79.191406 832.347656 78.910156 830.457031 78.722656 828.550781 C 78.535156 826.644531 78.441406 824.734375 78.441406 822.816406 C 78.441406 820.902344 78.535156 818.992188 78.722656 817.085938 C 78.910156 815.179688 79.191406 813.289062 79.5625 811.410156 C 79.9375 809.53125 80.402344 807.675781 80.957031 805.84375 C 81.515625 804.007812 82.160156 802.207031 82.890625 800.4375 C 83.625 798.667969 84.441406 796.941406 85.34375 795.25 C 86.246094 793.5625 87.230469 791.921875 88.296875 790.328125 C 89.359375 788.738281 90.5 787.199219 91.714844 785.71875 C 92.929688 784.238281 94.214844 782.820312 95.566406 781.46875 C 96.921875 780.113281 98.339844 778.828125 99.820312 777.613281 C 101.300781 776.398438 102.835938 775.257812 104.429688 774.195312 C 106.019531 773.132812 107.660156 772.148438 109.351562 771.246094 C 111.039062 770.34375 112.769531 769.523438 114.539062 768.792969 C 116.308594 768.058594 118.109375 767.414062 119.941406 766.859375 C 121.773438 766.300781 123.628906 765.835938 125.507812 765.464844 C 127.386719 765.089844 129.277344 764.808594 131.183594 764.621094 C 133.089844 764.433594 135 764.339844 136.917969 764.339844 C 138.832031 764.339844 140.742188 764.433594 142.648438 764.621094 C 144.554688 764.808594 146.445312 765.089844 148.324219 765.464844 C 150.203125 765.835938 152.058594 766.300781 153.890625 766.859375 C 155.726562 767.414062 157.527344 768.058594 159.296875 768.792969 C 161.066406 769.523438 162.792969 770.34375 164.484375 771.246094 C 166.171875 772.148438 167.8125 773.132812 169.40625 774.195312 C 170.996094 775.257812 172.535156 776.398438 174.015625 777.613281 C 175.496094 778.828125 176.914062 780.113281 178.265625 781.46875 C 179.621094 782.820312 180.90625 784.238281 182.121094 785.71875 C 183.335938 787.199219 184.476562 788.738281 185.539062 790.328125 C 186.601562 791.921875 187.585938 793.5625 188.488281 795.25 C 189.390625 796.941406 190.210938 798.667969 190.941406 800.4375 C 191.675781 802.207031 192.320312 804.007812 192.875 805.84375 C 193.433594 807.675781 193.898438 809.53125 194.269531 811.410156 C 194.644531 813.289062 194.925781 815.179688 195.113281 817.085938 C 195.300781 818.992188 195.394531 820.902344 195.394531 822.816406 Z M 195.394531 822.816406 " fill-opacity="0.27" fill-rule="nonzero"/><path fill="#000000" d="M 265.71875 1016.039062 C 265.71875 1017.957031 265.625 1019.867188 265.4375 1021.773438 C 265.25 1023.679688 264.96875 1025.570312 264.597656 1027.449219 C 264.222656 1029.328125 263.757812 1031.183594 263.203125 1033.015625 C 262.644531 1034.847656 262 1036.648438 261.269531 1038.417969 C 260.535156 1040.1875 259.71875 1041.917969 258.816406 1043.605469 C 257.914062 1045.296875 256.929688 1046.9375 255.863281 1048.527344 C 254.800781 1050.121094 253.660156 1051.65625 252.445312 1053.136719 C 251.230469 1054.617188 249.945312 1056.035156 248.59375 1057.390625 C 247.238281 1058.746094 245.820312 1060.027344 244.339844 1061.242188 C 242.859375 1062.457031 241.324219 1063.597656 239.730469 1064.664062 C 238.140625 1065.726562 236.496094 1066.710938 234.808594 1067.613281 C 233.121094 1068.515625 231.390625 1069.332031 229.621094 1070.066406 C 227.851562 1070.800781 226.050781 1071.445312 224.21875 1072 C 222.386719 1072.554688 220.53125 1073.019531 218.652344 1073.394531 C 216.773438 1073.769531 214.878906 1074.046875 212.976562 1074.234375 C 211.070312 1074.421875 209.160156 1074.519531 207.242188 1074.519531 C 205.328125 1074.519531 203.417969 1074.421875 201.511719 1074.234375 C 199.605469 1074.046875 197.714844 1073.769531 195.835938 1073.394531 C 193.957031 1073.019531 192.101562 1072.554688 190.269531 1072 C 188.433594 1071.445312 186.632812 1070.800781 184.863281 1070.066406 C 183.09375 1069.332031 181.367188 1068.515625 179.675781 1067.613281 C 177.988281 1066.710938 176.347656 1065.726562 174.753906 1064.664062 C 173.164062 1063.597656 171.625 1062.457031 170.144531 1061.242188 C 168.664062 1060.027344 167.246094 1058.746094 165.894531 1057.390625 C 164.539062 1056.035156 163.253906 1054.617188 162.039062 1053.136719 C 160.824219 1051.65625 159.683594 1050.121094 158.621094 1048.527344 C 157.558594 1046.9375 156.574219 1045.296875 155.671875 1043.605469 C 154.769531 1041.917969 153.949219 1040.1875 153.21875 1038.417969 C 152.484375 1036.648438 151.839844 1034.847656 151.285156 1033.015625 C 150.726562 1031.183594 150.261719 1029.328125 149.890625 1027.449219 C 149.515625 1025.570312 149.234375 1023.679688 149.046875 1021.773438 C 148.859375 1019.867188 148.765625 1017.957031 148.765625 1016.039062 C 148.765625 1014.125 148.859375 1012.214844 149.046875 1010.308594 C 149.234375 1008.402344 149.515625 1006.511719 149.890625 1004.632812 C 150.261719 1002.753906 150.726562 1000.898438 151.285156 999.066406 C 151.839844 997.234375 152.484375 995.429688 153.21875 993.660156 C 153.949219 991.894531 154.769531 990.164062 155.671875 988.472656 C 156.574219 986.785156 157.558594 985.144531 158.621094 983.550781 C 159.683594 981.960938 160.824219 980.421875 162.039062 978.941406 C 163.253906 977.460938 164.539062 976.046875 165.894531 974.691406 C 167.246094 973.335938 168.664062 972.050781 170.144531 970.835938 C 171.625 969.621094 173.164062 968.484375 174.753906 967.417969 C 176.347656 966.355469 177.988281 965.371094 179.675781 964.46875 C 181.367188 963.566406 183.09375 962.746094 184.863281 962.015625 C 186.632812 961.28125 188.433594 960.636719 190.269531 960.082031 C 192.101562 959.523438 193.957031 959.0625 195.835938 958.6875 C 197.714844 958.3125 199.605469 958.03125 201.511719 957.84375 C 203.417969 957.65625 205.328125 957.5625 207.242188 957.5625 C 209.160156 957.5625 211.070312 957.65625 212.976562 957.84375 C 214.878906 958.03125 216.773438 958.3125 218.652344 958.6875 C 220.53125 959.0625 222.386719 959.523438 224.21875 960.082031 C 226.050781 960.636719 227.851562 961.28125 229.621094 962.015625 C 231.390625 962.746094 233.121094 963.566406 234.808594 964.46875 C 236.496094 965.371094 238.140625 966.355469 239.730469 967.417969 C 241.324219 968.484375 242.859375 969.621094 244.339844 970.835938 C 245.820312 972.050781 247.238281 973.335938 248.59375 974.691406 C 249.945312 976.046875 251.230469 977.460938 252.445312 978.941406 C 253.660156 980.421875 254.800781 981.960938 255.863281 983.550781 C 256.929688 985.144531 257.914062 986.785156 258.816406 988.472656 C 259.71875 990.164062 260.535156 991.894531 261.269531 993.660156 C 262 995.429688 262.644531 997.234375 263.203125 999.066406 C 263.757812 1000.898438 264.222656 1002.753906 264.597656 1004.632812 C 264.96875 1006.511719 265.25 1008.402344 265.4375 1010.308594 C 265.625 1012.214844 265.71875 1014.125 265.71875 1016.039062 Z M 265.71875 1016.039062 " fill-opacity="0.27" fill-rule="nonzero"/><path fill="#000000" d="M 397.894531 1173.5625 C 397.894531 1175.476562 397.800781 1177.390625 397.613281 1179.296875 C 397.425781 1181.199219 397.144531 1183.09375 396.769531 1184.972656 C 396.394531 1186.851562 395.929688 1188.707031 395.375 1190.539062 C 394.820312 1192.371094 394.175781 1194.171875 393.441406 1195.941406 C 392.707031 1197.710938 391.890625 1199.441406 390.988281 1201.128906 C 390.085938 1202.816406 389.101562 1204.457031 388.039062 1206.050781 C 386.972656 1207.644531 385.835938 1209.179688 384.621094 1210.660156 C 383.40625 1212.140625 382.121094 1213.558594 380.765625 1214.914062 C 379.410156 1216.265625 377.992188 1217.550781 376.511719 1218.765625 C 375.03125 1219.980469 373.496094 1221.121094 371.902344 1222.183594 C 370.3125 1223.25 368.671875 1224.234375 366.980469 1225.136719 C 365.292969 1226.039062 363.5625 1226.855469 361.792969 1227.589844 C 360.023438 1228.320312 358.222656 1228.964844 356.390625 1229.523438 C 354.558594 1230.078125 352.703125 1230.542969 350.824219 1230.917969 C 348.945312 1231.289062 347.054688 1231.570312 345.148438 1231.757812 C 343.242188 1231.945312 341.332031 1232.039062 339.417969 1232.039062 C 337.5 1232.039062 335.589844 1231.945312 333.683594 1231.757812 C 331.777344 1231.570312 329.886719 1231.289062 328.007812 1230.917969 C 326.128906 1230.542969 324.273438 1230.078125 322.441406 1229.523438 C 320.609375 1228.964844 318.808594 1228.320312 317.039062 1227.589844 C 315.269531 1226.855469 313.539062 1226.039062 311.851562 1225.136719 C 310.160156 1224.234375 308.519531 1223.25 306.929688 1222.183594 C 305.335938 1221.121094 303.800781 1219.980469 302.320312 1218.765625 C 300.839844 1217.550781 299.421875 1216.265625 298.066406 1214.914062 C 296.710938 1213.558594 295.425781 1212.140625 294.210938 1210.660156 C 292.996094 1209.179688 291.859375 1207.644531 290.792969 1206.050781 C 289.730469 1204.457031 288.746094 1202.816406 287.84375 1201.128906 C 286.941406 1199.441406 286.125 1197.710938 285.390625 1195.941406 C 284.65625 1194.171875 284.011719 1192.371094 283.457031 1190.539062 C 282.902344 1188.707031 282.4375 1186.851562 282.0625 1184.972656 C 281.6875 1183.09375 281.40625 1181.199219 281.21875 1179.296875 C 281.03125 1177.390625 280.9375 1175.476562 280.9375 1173.5625 C 280.9375 1171.648438 281.03125 1169.738281 281.21875 1167.832031 C 281.40625 1165.925781 281.6875 1164.035156 282.0625 1162.15625 C 282.4375 1160.277344 282.902344 1158.421875 283.457031 1156.589844 C 284.011719 1154.753906 284.65625 1152.953125 285.390625 1151.183594 C 286.125 1149.414062 286.941406 1147.6875 287.84375 1145.996094 C 288.746094 1144.308594 289.730469 1142.667969 290.792969 1141.074219 C 291.859375 1139.484375 292.996094 1137.945312 294.210938 1136.464844 C 295.425781 1134.984375 296.710938 1133.566406 298.066406 1132.214844 C 299.421875 1130.859375 300.839844 1129.574219 302.320312 1128.359375 C 303.800781 1127.144531 305.335938 1126.003906 306.929688 1124.941406 C 308.519531 1123.878906 310.160156 1122.894531 311.851562 1121.992188 C 313.539062 1121.089844 315.269531 1120.269531 317.039062 1119.539062 C 318.808594 1118.804688 320.609375 1118.160156 322.441406 1117.605469 C 324.273438 1117.046875 326.128906 1116.582031 328.007812 1116.210938 C 329.886719 1115.835938 331.777344 1115.554688 333.683594 1115.367188 C 335.589844 1115.179688 337.5 1115.085938 339.417969 1115.085938 C 341.332031 1115.085938 343.242188 1115.179688 345.148438 1115.367188 C 347.054688 1115.554688 348.945312 1115.835938 350.824219 1116.210938 C 352.703125 1116.582031 354.558594 1117.046875 356.390625 1117.605469 C 358.222656 1118.160156 360.023438 1118.804688 361.792969 1119.539062 C 363.5625 1120.269531 365.292969 1121.089844 366.980469 1121.992188 C 368.671875 1122.894531 370.3125 1123.878906 371.902344 1124.941406 C 373.496094 1126.003906 375.03125 1127.144531 376.511719 1128.359375 C 377.992188 1129.574219 379.410156 1130.859375 380.765625 1132.214844 C 382.121094 1133.566406 383.40625 1134.984375 384.621094 1136.464844 C 385.835938 1137.945312 386.972656 1139.484375 388.039062 1141.074219 C 389.101562 1142.667969 390.085938 1144.308594 390.988281 1145.996094 C 391.890625 1147.6875 392.707031 1149.414062 393.441406 1151.183594 C 394.175781 1152.953125 394.820312 1154.753906 395.375 1156.589844 C 395.929688 1158.421875 396.394531 1160.277344 396.769531 1162.15625 C 397.144531 1164.035156 397.425781 1165.925781 397.613281 1167.832031 C 397.800781 1169.738281 397.894531 1171.648438 397.894531 1173.5625 Z M 397.894531 1173.5625 " fill-opacity="0.27" fill-rule="nonzero"/><path fill="#000000" d="M 575.972656 1276.375 C 575.972656 1278.289062 575.875 1280.199219 575.6875 1282.105469 C 575.5 1284.011719 575.21875 1285.902344 574.847656 1287.78125 C 574.472656 1289.660156 574.007812 1291.515625 573.453125 1293.347656 C 572.898438 1295.179688 572.253906 1296.980469 571.519531 1298.75 C 570.785156 1300.519531 569.96875 1302.25 569.066406 1303.9375 C 568.164062 1305.628906 567.179688 1307.269531 566.117188 1308.863281 C 565.050781 1310.453125 563.910156 1311.992188 562.695312 1313.472656 C 561.480469 1314.953125 560.199219 1316.367188 558.84375 1317.722656 C 557.488281 1319.078125 556.070312 1320.363281 554.589844 1321.578125 C 553.109375 1322.792969 551.574219 1323.929688 549.980469 1324.996094 C 548.390625 1326.058594 546.75 1327.042969 545.058594 1327.945312 C 543.371094 1328.847656 541.640625 1329.667969 539.871094 1330.398438 C 538.101562 1331.132812 536.300781 1331.777344 534.46875 1332.332031 C 532.636719 1332.886719 530.78125 1333.351562 528.902344 1333.726562 C 527.023438 1334.101562 525.132812 1334.382812 523.226562 1334.570312 C 521.320312 1334.757812 519.410156 1334.851562 517.492188 1334.851562 C 515.578125 1334.851562 513.667969 1334.757812 511.761719 1334.570312 C 509.855469 1334.382812 507.964844 1334.101562 506.085938 1333.726562 C 504.207031 1333.351562 502.351562 1332.886719 500.519531 1332.332031 C 498.6875 1331.777344 496.882812 1331.132812 495.117188 1330.398438 C 493.347656 1329.667969 491.617188 1328.847656 489.925781 1327.945312 C 488.238281 1327.042969 486.597656 1326.058594 485.003906 1324.996094 C 483.414062 1323.929688 481.875 1322.792969 480.394531 1321.578125 C 478.914062 1320.363281 477.5 1319.078125 476.144531 1317.722656 C 474.789062 1316.367188 473.503906 1314.953125 472.289062 1313.472656 C 471.074219 1311.992188 469.9375 1310.453125 468.871094 1308.863281 C 467.808594 1307.269531 466.824219 1305.628906 465.921875 1303.9375 C 465.019531 1302.25 464.199219 1300.519531 463.46875 1298.75 C 462.734375 1296.980469 462.089844 1295.179688 461.535156 1293.347656 C 460.976562 1291.515625 460.515625 1289.660156 460.140625 1287.78125 C 459.765625 1285.902344 459.484375 1284.011719 459.296875 1282.105469 C 459.109375 1280.199219 459.015625 1278.289062 459.015625 1276.375 C 459.015625 1274.457031 459.109375 1272.546875 459.296875 1270.640625 C 459.484375 1268.734375 459.765625 1266.84375 460.140625 1264.964844 C 460.511719 1263.085938 460.976562 1261.230469 461.535156 1259.398438 C 462.089844 1257.566406 462.734375 1255.765625 463.46875 1253.996094 C 464.199219 1252.226562 465.019531 1250.496094 465.921875 1248.808594 C 466.824219 1247.117188 467.808594 1245.476562 468.871094 1243.886719 C 469.9375 1242.292969 471.074219 1240.757812 472.289062 1239.277344 C 473.503906 1237.796875 474.789062 1236.378906 476.144531 1235.023438 C 477.5 1233.667969 478.914062 1232.386719 480.394531 1231.171875 C 481.875 1229.957031 483.414062 1228.816406 485.003906 1227.75 C 486.597656 1226.6875 488.238281 1225.703125 489.925781 1224.800781 C 491.617188 1223.898438 493.347656 1223.082031 495.117188 1222.347656 C 496.882812 1221.613281 498.6875 1220.96875 500.519531 1220.414062 C 502.351562 1219.859375 504.207031 1219.394531 506.085938 1219.019531 C 507.964844 1218.644531 509.855469 1218.367188 511.761719 1218.179688 C 513.667969 1217.988281 515.578125 1217.894531 517.492188 1217.894531 C 519.410156 1217.894531 521.320312 1217.992188 523.226562 1218.179688 C 525.132812 1218.367188 527.023438 1218.644531 528.902344 1219.019531 C 530.78125 1219.394531 532.636719 1219.859375 534.46875 1220.414062 C 536.300781 1220.96875 538.101562 1221.613281 539.871094 1222.347656 C 541.640625 1223.082031 543.371094 1223.898438 545.058594 1224.800781 C 546.75 1225.703125 548.390625 1226.6875 549.980469 1227.75 C 551.574219 1228.816406 553.109375 1229.957031 554.589844 1231.171875 C 556.070312 1232.386719 557.488281 1233.667969 558.84375 1235.023438 C 560.199219 1236.378906 561.480469 1237.796875 562.695312 1239.277344 C 563.910156 1240.757812 565.050781 1242.292969 566.117188 1243.886719 C 567.179688 1245.476562 568.164062 1247.117188 569.066406 1248.808594 C 569.96875 1250.496094 570.785156 1252.226562 571.519531 1253.996094 C 572.253906 1255.765625 572.898438 1257.566406 573.453125 1259.398438 C 574.007812 1261.230469 574.472656 1263.085938 574.847656 1264.964844 C 575.21875 1266.84375 575.5 1268.734375 575.6875 1270.640625 C 575.875 1272.546875 575.972656 1274.457031 575.972656 1276.375 Z M 575.972656 1276.375 " fill-opacity="0.27" fill-rule="nonzero"/><path fill="#000000" d="M 778.476562 1312.082031 C 778.476562 1313.996094 778.382812 1315.90625 778.195312 1317.8125 C 778.007812 1319.71875 777.726562 1321.609375 777.351562 1323.488281 C 776.980469 1325.367188 776.515625 1327.222656 775.960938 1329.054688 C 775.402344 1330.890625 774.757812 1332.691406 774.027344 1334.460938 C 773.292969 1336.230469 772.476562 1337.957031 771.570312 1339.648438 C 770.667969 1341.335938 769.6875 1342.976562 768.621094 1344.570312 C 767.558594 1346.160156 766.417969 1347.699219 765.203125 1349.179688 C 763.988281 1350.660156 762.703125 1352.078125 761.347656 1353.429688 C 759.996094 1354.785156 758.578125 1356.070312 757.097656 1357.285156 C 755.617188 1358.5 754.082031 1359.640625 752.488281 1360.703125 C 750.894531 1361.765625 749.253906 1362.75 747.566406 1363.652344 C 745.875 1364.554688 744.148438 1365.375 742.378906 1366.105469 C 740.609375 1366.839844 738.808594 1367.484375 736.976562 1368.039062 C 735.140625 1368.597656 733.285156 1369.0625 731.410156 1369.433594 C 729.53125 1369.808594 727.636719 1370.089844 725.730469 1370.277344 C 723.824219 1370.464844 721.914062 1370.558594 720 1370.558594 C 718.085938 1370.558594 716.175781 1370.464844 714.269531 1370.277344 C 712.363281 1370.089844 710.46875 1369.808594 708.589844 1369.433594 C 706.714844 1369.0625 704.859375 1368.597656 703.023438 1368.039062 C 701.191406 1367.484375 699.390625 1366.839844 697.621094 1366.105469 C 695.851562 1365.375 694.121094 1364.554688 692.433594 1363.652344 C 690.746094 1362.75 689.105469 1361.765625 687.511719 1360.703125 C 685.917969 1359.640625 684.382812 1358.5 682.902344 1357.285156 C 681.421875 1356.070312 680.003906 1354.785156 678.648438 1353.429688 C 677.296875 1352.078125 676.011719 1350.660156 674.796875 1349.179688 C 673.582031 1347.699219 672.441406 1346.160156 671.378906 1344.570312 C 670.3125 1342.976562 669.332031 1341.335938 668.425781 1339.648438 C 667.523438 1337.957031 666.707031 1336.230469 665.972656 1334.460938 C 665.242188 1332.691406 664.597656 1330.890625 664.039062 1329.054688 C 663.484375 1327.222656 663.019531 1325.367188 662.644531 1323.488281 C 662.273438 1321.609375 661.992188 1319.71875 661.804688 1317.8125 C 661.617188 1315.90625 661.523438 1313.996094 661.523438 1312.082031 C 661.523438 1310.164062 661.617188 1308.253906 661.804688 1306.347656 C 661.992188 1304.441406 662.273438 1302.550781 662.644531 1300.671875 C 663.019531 1298.792969 663.484375 1296.9375 664.039062 1295.105469 C 664.597656 1293.273438 665.242188 1291.472656 665.972656 1289.703125 C 666.707031 1287.933594 667.523438 1286.203125 668.425781 1284.515625 C 669.332031 1282.824219 670.3125 1281.183594 671.378906 1279.59375 C 672.441406 1278 673.582031 1276.464844 674.796875 1274.984375 C 676.011719 1273.503906 677.296875 1272.085938 678.648438 1270.730469 C 680.003906 1269.378906 681.421875 1268.09375 682.902344 1266.878906 C 684.382812 1265.664062 685.917969 1264.523438 687.511719 1263.457031 C 689.105469 1262.394531 690.746094 1261.410156 692.433594 1260.507812 C 694.121094 1259.605469 695.851562 1258.789062 697.621094 1258.054688 C 699.390625 1257.320312 701.191406 1256.679688 703.023438 1256.121094 C 704.859375 1255.566406 706.714844 1255.101562 708.589844 1254.726562 C 710.46875 1254.355469 712.363281 1254.074219 714.269531 1253.886719 C 716.175781 1253.699219 718.085938 1253.605469 720 1253.605469 C 721.914062 1253.605469 723.824219 1253.699219 725.730469 1253.886719 C 727.636719 1254.074219 729.53125 1254.355469 731.410156 1254.726562 C 733.285156 1255.101562 735.140625 1255.566406 736.976562 1256.121094 C 738.808594 1256.679688 740.609375 1257.320312 742.378906 1258.054688 C 744.148438 1258.789062 745.875 1259.605469 747.566406 1260.507812 C 749.253906 1261.410156 750.894531 1262.394531 752.488281 1263.457031 C 754.082031 1264.523438 755.617188 1265.664062 757.097656 1266.878906 C 758.578125 1268.09375 759.996094 1269.378906 761.347656 1270.730469 C 762.703125 1272.085938 763.988281 1273.503906 765.203125 1274.984375 C 766.417969 1276.464844 767.558594 1278 768.621094 1279.59375 C 769.6875 1281.183594 770.667969 1282.824219 771.570312 1284.515625 C 772.476562 1286.203125 773.292969 1287.933594 774.027344 1289.703125 C 774.757812 1291.472656 775.402344 1293.273438 775.957031 1295.105469 C 776.515625 1296.9375 776.980469 1298.792969 777.351562 1300.671875 C 777.726562 1302.550781 778.007812 1304.441406 778.195312 1306.347656 C 778.382812 1308.253906 778.476562 1310.164062 778.476562 1312.082031 Z M 778.476562 1312.082031 " fill-opacity="0.27" fill-rule="nonzero"/><path fill="#000000" d="M 980.984375 1276.375 C 980.984375 1278.289062 980.890625 1280.199219 980.703125 1282.105469 C 980.515625 1284.011719 980.234375 1285.902344 979.859375 1287.78125 C 979.484375 1289.660156 979.023438 1291.515625 978.464844 1293.347656 C 977.910156 1295.179688 977.265625 1296.980469 976.53125 1298.75 C 975.800781 1300.519531 974.980469 1302.25 974.078125 1303.9375 C 973.175781 1305.628906 972.191406 1307.269531 971.128906 1308.863281 C 970.0625 1310.453125 968.925781 1311.992188 967.710938 1313.472656 C 966.496094 1314.953125 965.210938 1316.367188 963.855469 1317.722656 C 962.5 1319.078125 961.085938 1320.363281 959.605469 1321.578125 C 958.125 1322.792969 956.585938 1323.929688 954.996094 1324.996094 C 953.402344 1326.058594 951.761719 1327.042969 950.070312 1327.945312 C 948.382812 1328.847656 946.652344 1329.667969 944.882812 1330.398438 C 943.113281 1331.132812 941.3125 1331.777344 939.480469 1332.332031 C 937.648438 1332.886719 935.792969 1333.351562 933.914062 1333.726562 C 932.035156 1334.101562 930.144531 1334.382812 928.238281 1334.570312 C 926.332031 1334.757812 924.421875 1334.851562 922.507812 1334.851562 C 920.589844 1334.851562 918.679688 1334.757812 916.773438 1334.570312 C 914.867188 1334.382812 912.976562 1334.101562 911.097656 1333.726562 C 909.21875 1333.351562 907.363281 1332.886719 905.53125 1332.332031 C 903.699219 1331.777344 901.898438 1331.132812 900.128906 1330.398438 C 898.359375 1329.667969 896.628906 1328.847656 894.941406 1327.945312 C 893.25 1327.042969 891.609375 1326.058594 890.019531 1324.996094 C 888.425781 1323.929688 886.890625 1322.792969 885.410156 1321.578125 C 883.929688 1320.363281 882.511719 1319.078125 881.15625 1317.722656 C 879.800781 1316.367188 878.519531 1314.953125 877.304688 1313.472656 C 876.085938 1311.992188 874.949219 1310.453125 873.882812 1308.863281 C 872.820312 1307.269531 871.835938 1305.628906 870.933594 1303.9375 C 870.03125 1302.25 869.214844 1300.519531 868.480469 1298.75 C 867.746094 1296.980469 867.101562 1295.179688 866.546875 1293.347656 C 865.992188 1291.515625 865.527344 1289.660156 865.152344 1287.78125 C 864.777344 1285.902344 864.5 1284.011719 864.3125 1282.105469 C 864.125 1280.199219 864.027344 1278.289062 864.027344 1276.375 C 864.027344 1274.457031 864.125 1272.546875 864.3125 1270.640625 C 864.5 1268.734375 864.777344 1266.84375 865.152344 1264.964844 C 865.527344 1263.085938 865.992188 1261.230469 866.546875 1259.398438 C 867.101562 1257.566406 867.746094 1255.765625 868.480469 1253.996094 C 869.214844 1252.226562 870.03125 1250.496094 870.933594 1248.808594 C 871.835938 1247.117188 872.820312 1245.476562 873.882812 1243.886719 C 874.949219 1242.292969 876.085938 1240.757812 877.304688 1239.277344 C 878.519531 1237.796875 879.800781 1236.378906 881.15625 1235.023438 C 882.511719 1233.667969 883.929688 1232.386719 885.410156 1231.171875 C 886.890625 1229.957031 888.425781 1228.816406 890.019531 1227.75 C 891.609375 1226.6875 893.25 1225.703125 894.941406 1224.800781 C 896.628906 1223.898438 898.359375 1223.082031 900.128906 1222.347656 C 901.898438 1221.613281 903.699219 1220.96875 905.53125 1220.414062 C 907.363281 1219.859375 909.21875 1219.394531 911.097656 1219.019531 C 912.976562 1218.644531 914.867188 1218.367188 916.773438 1218.179688 C 918.679688 1217.988281 920.589844 1217.894531 922.507812 1217.894531 C 924.421875 1217.894531 926.332031 1217.992188 928.238281 1218.179688 C 930.144531 1218.367188 932.035156 1218.644531 933.914062 1219.019531 C 935.792969 1219.394531 937.648438 1219.859375 939.480469 1220.414062 C 941.3125 1220.96875 943.113281 1221.613281 944.882812 1222.347656 C 946.652344 1223.082031 948.382812 1223.898438 950.070312 1224.800781 C 951.761719 1225.703125 953.402344 1226.6875 954.996094 1227.75 C 956.585938 1228.816406 958.125 1229.957031 959.605469 1231.171875 C 961.085938 1232.386719 962.5 1233.667969 963.855469 1235.023438 C 965.210938 1236.378906 966.496094 1237.796875 967.710938 1239.277344 C 968.925781 1240.757812 970.0625 1242.292969 971.128906 1243.886719 C 972.191406 1245.476562 973.175781 1247.117188 974.078125 1248.808594 C 974.980469 1250.496094 975.800781 1252.226562 976.53125 1253.996094 C 977.265625 1255.765625 977.910156 1257.566406 978.464844 1259.398438 C 979.019531 1261.230469 979.484375 1263.085938 979.859375 1264.964844 C 980.234375 1266.84375 980.515625 1268.734375 980.703125 1270.640625 C 980.890625 1272.546875 980.984375 1274.457031 980.984375 1276.375 Z M 980.984375 1276.375 " fill-opacity="0.27" fill-rule="nonzero"/><path fill="#000000" d="M 1159.0625 1173.5625 C 1159.0625 1175.476562 1158.96875 1177.390625 1158.78125 1179.296875 C 1158.589844 1181.199219 1158.3125 1183.09375 1157.9375 1184.972656 C 1157.5625 1186.851562 1157.097656 1188.707031 1156.542969 1190.539062 C 1155.988281 1192.371094 1155.34375 1194.171875 1154.609375 1195.941406 C 1153.875 1197.710938 1153.058594 1199.441406 1152.15625 1201.128906 C 1151.253906 1202.816406 1150.269531 1204.457031 1149.207031 1206.050781 C 1148.140625 1207.644531 1147.003906 1209.179688 1145.789062 1210.660156 C 1144.570312 1212.140625 1143.289062 1213.558594 1141.933594 1214.914062 C 1140.578125 1216.265625 1139.160156 1217.550781 1137.679688 1218.765625 C 1136.199219 1219.980469 1134.664062 1221.121094 1133.070312 1222.183594 C 1131.480469 1223.25 1129.839844 1224.234375 1128.148438 1225.136719 C 1126.460938 1226.039062 1124.730469 1226.855469 1122.960938 1227.589844 C 1121.191406 1228.320312 1119.390625 1228.964844 1117.558594 1229.523438 C 1115.726562 1230.078125 1113.871094 1230.542969 1111.992188 1230.917969 C 1110.113281 1231.289062 1108.222656 1231.570312 1106.316406 1231.757812 C 1104.410156 1231.945312 1102.5 1232.039062 1100.582031 1232.039062 C 1098.667969 1232.039062 1096.757812 1231.945312 1094.851562 1231.757812 C 1092.945312 1231.570312 1091.054688 1231.289062 1089.175781 1230.917969 C 1087.296875 1230.542969 1085.441406 1230.078125 1083.609375 1229.523438 C 1081.777344 1228.964844 1079.976562 1228.320312 1078.207031 1227.589844 C 1076.4375 1226.855469 1074.707031 1226.039062 1073.019531 1225.136719 C 1071.328125 1224.234375 1069.6875 1223.25 1068.09375 1222.183594 C 1066.503906 1221.121094 1064.964844 1219.980469 1063.484375 1218.765625 C 1062.007812 1217.550781 1060.589844 1216.265625 1059.234375 1214.914062 C 1057.878906 1213.558594 1056.59375 1212.140625 1055.378906 1210.660156 C 1054.164062 1209.179688 1053.027344 1207.644531 1051.960938 1206.050781 C 1050.898438 1204.457031 1049.914062 1202.816406 1049.011719 1201.128906 C 1048.109375 1199.441406 1047.289062 1197.710938 1046.558594 1195.941406 C 1045.824219 1194.171875 1045.179688 1192.371094 1044.625 1190.539062 C 1044.070312 1188.707031 1043.605469 1186.851562 1043.230469 1184.972656 C 1042.855469 1183.09375 1042.574219 1181.199219 1042.386719 1179.296875 C 1042.199219 1177.390625 1042.105469 1175.476562 1042.105469 1173.5625 C 1042.105469 1171.648438 1042.199219 1169.738281 1042.386719 1167.832031 C 1042.574219 1165.925781 1042.855469 1164.035156 1043.230469 1162.15625 C 1043.605469 1160.277344 1044.070312 1158.421875 1044.625 1156.589844 C 1045.179688 1154.753906 1045.824219 1152.953125 1046.558594 1151.183594 C 1047.289062 1149.414062 1048.109375 1147.6875 1049.011719 1145.996094 C 1049.914062 1144.308594 1050.898438 1142.667969 1051.960938 1141.074219 C 1053.027344 1139.484375 1054.164062 1137.945312 1055.378906 1136.464844 C 1056.59375 1134.984375 1057.878906 1133.566406 1059.234375 1132.214844 C 1060.589844 1130.859375 1062.007812 1129.574219 1063.484375 1128.359375 C 1064.964844 1127.144531 1066.503906 1126.003906 1068.09375 1124.941406 C 1069.6875 1123.878906 1071.328125 1122.894531 1073.019531 1121.992188 C 1074.707031 1121.089844 1076.4375 1120.269531 1078.207031 1119.539062 C 1079.976562 1118.804688 1081.777344 1118.160156 1083.609375 1117.605469 C 1085.441406 1117.046875 1087.296875 1116.582031 1089.175781 1116.210938 C 1091.054688 1115.835938 1092.945312 1115.554688 1094.851562 1115.367188 C 1096.757812 1115.179688 1098.667969 1115.085938 1100.582031 1115.085938 C 1102.5 1115.085938 1104.410156 1115.179688 1106.316406 1115.367188 C 1108.222656 1115.554688 1110.113281 1115.835938 1111.992188 1116.210938 C 1113.871094 1116.582031 1115.726562 1117.046875 1117.558594 1117.605469 C 1119.390625 1118.160156 1121.191406 1118.804688 1122.960938 1119.539062 C 1124.730469 1120.269531 1126.460938 1121.089844 1128.148438 1121.992188 C 1129.839844 1122.894531 1131.480469 1123.878906 1133.070312 1124.941406 C 1134.664062 1126.003906 1136.199219 1127.144531 1137.679688 1128.359375 C 1139.160156 1129.574219 1140.578125 1130.859375 1141.933594 1132.214844 C 1143.289062 1133.566406 1144.570312 1134.984375 1145.785156 1136.464844 C 1147.003906 1137.945312 1148.140625 1139.484375 1149.207031 1141.074219 C 1150.269531 1142.667969 1151.253906 1144.308594 1152.15625 1145.996094 C 1153.058594 1147.6875 1153.875 1149.414062 1154.609375 1151.183594 C 1155.34375 1152.953125 1155.988281 1154.753906 1156.542969 1156.589844 C 1157.097656 1158.421875 1157.5625 1160.277344 1157.9375 1162.15625 C 1158.3125 1164.035156 1158.589844 1165.925781 1158.78125 1167.832031 C 1158.96875 1169.738281 1159.0625 1171.648438 1159.0625 1173.5625 Z M 1159.0625 1173.5625 " fill-opacity="0.27" fill-rule="nonzero"/><path fill="#000000" d="M 1291.234375 1016.039062 C 1291.234375 1017.957031 1291.140625 1019.867188 1290.953125 1021.773438 C 1290.765625 1023.679688 1290.484375 1025.570312 1290.109375 1027.449219 C 1289.738281 1029.328125 1289.273438 1031.183594 1288.714844 1033.015625 C 1288.160156 1034.847656 1287.515625 1036.648438 1286.78125 1038.417969 C 1286.050781 1040.1875 1285.230469 1041.917969 1284.328125 1043.605469 C 1283.425781 1045.296875 1282.441406 1046.9375 1281.378906 1048.527344 C 1280.316406 1050.121094 1279.175781 1051.65625 1277.960938 1053.136719 C 1276.746094 1054.617188 1275.460938 1056.035156 1274.105469 1057.390625 C 1272.753906 1058.746094 1271.335938 1060.027344 1269.855469 1061.242188 C 1268.375 1062.457031 1266.835938 1063.597656 1265.246094 1064.664062 C 1263.652344 1065.726562 1262.011719 1066.710938 1260.324219 1067.613281 C 1258.632812 1068.515625 1256.90625 1069.332031 1255.136719 1070.066406 C 1253.367188 1070.800781 1251.566406 1071.445312 1249.730469 1072 C 1247.898438 1072.554688 1246.042969 1073.019531 1244.164062 1073.394531 C 1242.285156 1073.769531 1240.394531 1074.046875 1238.488281 1074.234375 C 1236.582031 1074.421875 1234.671875 1074.519531 1232.757812 1074.519531 C 1230.839844 1074.519531 1228.929688 1074.421875 1227.023438 1074.234375 C 1225.117188 1074.046875 1223.226562 1073.769531 1221.347656 1073.394531 C 1219.46875 1073.019531 1217.613281 1072.554688 1215.78125 1072 C 1213.949219 1071.445312 1212.148438 1070.800781 1210.378906 1070.066406 C 1208.609375 1069.332031 1206.878906 1068.515625 1205.191406 1067.613281 C 1203.5 1066.710938 1201.859375 1065.726562 1200.269531 1064.664062 C 1198.675781 1063.597656 1197.140625 1062.457031 1195.660156 1061.242188 C 1194.179688 1060.027344 1192.761719 1058.746094 1191.40625 1057.390625 C 1190.054688 1056.035156 1188.769531 1054.617188 1187.554688 1053.136719 C 1186.339844 1051.65625 1185.199219 1050.121094 1184.136719 1048.527344 C 1183.070312 1046.9375 1182.085938 1045.296875 1181.183594 1043.605469 C 1180.28125 1041.917969 1179.464844 1040.1875 1178.730469 1038.417969 C 1177.996094 1036.648438 1177.355469 1034.847656 1176.796875 1033.015625 C 1176.242188 1031.183594 1175.777344 1029.328125 1175.402344 1027.449219 C 1175.03125 1025.570312 1174.75 1023.679688 1174.5625 1021.773438 C 1174.375 1019.867188 1174.28125 1017.957031 1174.28125 1016.039062 C 1174.28125 1014.125 1174.375 1012.214844 1174.5625 1010.308594 C 1174.75 1008.402344 1175.03125 1006.511719 1175.402344 1004.632812 C 1175.777344 1002.753906 1176.242188 1000.898438 1176.796875 999.066406 C 1177.355469 997.234375 1177.996094 995.429688 1178.730469 993.660156 C 1179.464844 991.894531 1180.28125 990.164062 1181.183594 988.472656 C 1182.085938 986.785156 1183.070312 985.144531 1184.136719 983.550781 C 1185.199219 981.960938 1186.339844 980.421875 1187.554688 978.941406 C 1188.769531 977.460938 1190.054688 976.046875 1191.40625 974.691406 C 1192.761719 973.335938 1194.179688 972.050781 1195.660156 970.835938 C 1197.140625 969.621094 1198.675781 968.484375 1200.269531 967.417969 C 1201.859375 966.355469 1203.5 965.371094 1205.191406 964.46875 C 1206.878906 963.566406 1208.609375 962.746094 1210.378906 962.015625 C 1212.148438 961.28125 1213.949219 960.636719 1215.78125 960.082031 C 1217.613281 959.523438 1219.46875 959.0625 1221.347656 958.6875 C 1223.226562 958.3125 1225.117188 958.03125 1227.023438 957.84375 C 1228.929688 957.65625 1230.839844 957.5625 1232.757812 957.5625 C 1234.671875 957.5625 1236.582031 957.65625 1238.488281 957.84375 C 1240.394531 958.03125 1242.285156 958.3125 1244.164062 958.6875 C 1246.042969 959.0625 1247.898438 959.523438 1249.730469 960.082031 C 1251.566406 960.636719 1253.367188 961.28125 1255.136719 962.015625 C 1256.90625 962.746094 1258.632812 963.566406 1260.324219 964.46875 C 1262.011719 965.371094 1263.652344 966.355469 1265.246094 967.417969 C 1266.835938 968.484375 1268.375 969.621094 1269.855469 970.835938 C 1271.335938 972.050781 1272.753906 973.335938 1274.105469 974.691406 C 1275.460938 976.046875 1276.746094 977.460938 1277.960938 978.941406 C 1279.175781 980.421875 1280.316406 981.960938 1281.378906 983.550781 C 1282.441406 985.144531 1283.425781 986.785156 1284.328125 988.472656 C 1285.230469 990.164062 1286.050781 991.894531 1286.78125 993.660156 C 1287.515625 995.429688 1288.160156 997.234375 1288.714844 999.066406 C 1289.273438 1000.898438 1289.738281 1002.753906 1290.109375 1004.632812 C 1290.484375 1006.511719 1290.765625 1008.402344 1290.953125 1010.308594 C 1291.140625 1012.214844 1291.234375 1014.125 1291.234375 1016.039062 Z M 1291.234375 1016.039062 " fill-opacity="0.27" fill-rule="nonzero"/><path fill="#000000" d="M 1361.558594 822.816406 C 1361.558594 824.734375 1361.464844 826.644531 1361.277344 828.550781 C 1361.089844 830.457031 1360.808594 832.347656 1360.4375 834.226562 C 1360.0625 836.105469 1359.597656 837.960938 1359.042969 839.792969 C 1358.484375 841.625 1357.839844 843.425781 1357.109375 845.195312 C 1356.375 846.964844 1355.558594 848.695312 1354.65625 850.382812 C 1353.753906 852.074219 1352.769531 853.714844 1351.703125 855.304688 C 1350.640625 856.898438 1349.5 858.433594 1348.285156 859.914062 C 1347.070312 861.394531 1345.785156 862.8125 1344.433594 864.167969 C 1343.078125 865.519531 1341.660156 866.804688 1340.179688 868.019531 C 1338.699219 869.234375 1337.164062 870.375 1335.570312 871.4375 C 1333.980469 872.503906 1332.335938 873.488281 1330.648438 874.390625 C 1328.960938 875.292969 1327.230469 876.109375 1325.460938 876.84375 C 1323.691406 877.574219 1321.890625 878.21875 1320.058594 878.777344 C 1318.226562 879.332031 1316.371094 879.796875 1314.492188 880.171875 C 1312.613281 880.542969 1310.71875 880.824219 1308.816406 881.011719 C 1306.910156 881.199219 1305 881.292969 1303.082031 881.292969 C 1301.167969 881.292969 1299.257812 881.199219 1297.351562 881.011719 C 1295.445312 880.824219 1293.554688 880.542969 1291.675781 880.171875 C 1289.796875 879.796875 1287.941406 879.332031 1286.109375 878.777344 C 1284.273438 878.21875 1282.472656 877.574219 1280.703125 876.84375 C 1278.933594 876.109375 1277.207031 875.292969 1275.515625 874.390625 C 1273.828125 873.488281 1272.1875 872.503906 1270.59375 871.4375 C 1269.003906 870.375 1267.464844 869.234375 1265.984375 868.019531 C 1264.503906 866.804688 1263.085938 865.519531 1261.734375 864.167969 C 1260.378906 862.8125 1259.09375 861.394531 1257.878906 859.914062 C 1256.664062 858.433594 1255.523438 856.898438 1254.460938 855.304688 C 1253.398438 853.714844 1252.414062 852.070312 1251.511719 850.382812 C 1250.609375 848.695312 1249.789062 846.964844 1249.058594 845.195312 C 1248.324219 843.425781 1247.679688 841.625 1247.125 839.792969 C 1246.566406 837.960938 1246.101562 836.105469 1245.730469 834.226562 C 1245.355469 832.347656 1245.074219 830.457031 1244.886719 828.550781 C 1244.699219 826.644531 1244.605469 824.734375 1244.605469 822.816406 C 1244.605469 820.902344 1244.699219 818.992188 1244.886719 817.085938 C 1245.074219 815.179688 1245.355469 813.289062 1245.730469 811.410156 C 1246.101562 809.53125 1246.566406 807.675781 1247.125 805.84375 C 1247.679688 804.007812 1248.324219 802.207031 1249.058594 800.4375 C 1249.789062 798.667969 1250.609375 796.941406 1251.511719 795.25 C 1252.414062 793.5625 1253.398438 791.921875 1254.460938 790.328125 C 1255.523438 788.738281 1256.664062 787.199219 1257.878906 785.71875 C 1259.09375 784.238281 1260.378906 782.820312 1261.734375 781.46875 C 1263.085938 780.113281 1264.503906 778.828125 1265.984375 777.613281 C 1267.464844 776.398438 1269.003906 775.257812 1270.59375 774.195312 C 1272.1875 773.132812 1273.828125 772.148438 1275.515625 771.246094 C 1277.207031 770.34375 1278.933594 769.523438 1280.703125 768.792969 C 1282.472656 768.058594 1284.273438 767.414062 1286.109375 766.859375 C 1287.941406 766.300781 1289.796875 765.835938 1291.675781 765.464844 C 1293.554688 765.089844 1295.445312 764.808594 1297.351562 764.621094 C 1299.257812 764.433594 1301.167969 764.339844 1303.082031 764.339844 C 1305 764.339844 1306.910156 764.433594 1308.816406 764.621094 C 1310.71875 764.808594 1312.613281 765.089844 1314.492188 765.464844 C 1316.371094 765.835938 1318.226562 766.300781 1320.058594 766.859375 C 1321.890625 767.414062 1323.691406 768.058594 1325.460938 768.792969 C 1327.230469 769.523438 1328.960938 770.34375 1330.648438 771.246094 C 1332.335938 772.148438 1333.980469 773.132812 1335.570312 774.195312 C 1337.164062 775.257812 1338.699219 776.398438 1340.179688 777.613281 C 1341.660156 778.828125 1343.078125 780.113281 1344.433594 781.46875 C 1345.785156 782.820312 1347.070312 784.238281 1348.285156 785.71875 C 1349.5 787.199219 1350.640625 788.738281 1351.703125 790.328125 C 1352.769531 791.921875 1353.753906 793.5625 1354.65625 795.25 C 1355.558594 796.941406 1356.375 798.667969 1357.109375 800.4375 C 1357.839844 802.207031 1358.484375 804.007812 1359.042969 805.84375 C 1359.597656 807.675781 1360.0625 809.53125 1360.4375 811.410156 C 1360.808594 813.289062 1361.089844 815.179688 1361.277344 817.085938 C 1361.464844 818.992188 1361.558594 820.902344 1361.558594 822.816406 Z M 1361.558594 822.816406 " fill-opacity="0.27" fill-rule="nonzero"/><path fill="#000000" d="M 1361.558594 617.183594 C 1361.558594 619.097656 1361.464844 621.007812 1361.277344 622.914062 C 1361.089844 624.820312 1360.808594 626.710938 1360.4375 628.589844 C 1360.0625 630.46875 1359.597656 632.324219 1359.042969 634.15625 C 1358.484375 635.988281 1357.839844 637.792969 1357.109375 639.5625 C 1356.375 641.328125 1355.558594 643.058594 1354.65625 644.75 C 1353.753906 646.4375 1352.769531 648.078125 1351.703125 649.671875 C 1350.640625 651.261719 1349.5 652.800781 1348.285156 654.28125 C 1347.070312 655.761719 1345.785156 657.179688 1344.433594 658.53125 C 1343.078125 659.886719 1341.660156 661.171875 1340.179688 662.386719 C 1338.699219 663.601562 1337.164062 664.742188 1335.570312 665.804688 C 1333.980469 666.867188 1332.335938 667.851562 1330.648438 668.753906 C 1328.960938 669.65625 1327.230469 670.476562 1325.460938 671.207031 C 1323.691406 671.941406 1321.890625 672.585938 1320.058594 673.140625 C 1318.226562 673.699219 1316.371094 674.164062 1314.492188 674.535156 C 1312.613281 674.910156 1310.71875 675.191406 1308.816406 675.378906 C 1306.910156 675.566406 1305 675.660156 1303.082031 675.660156 C 1301.167969 675.660156 1299.257812 675.566406 1297.351562 675.378906 C 1295.445312 675.191406 1293.554688 674.910156 1291.675781 674.535156 C 1289.796875 674.164062 1287.941406 673.699219 1286.109375 673.140625 C 1284.273438 672.585938 1282.472656 671.941406 1280.703125 671.207031 C 1278.933594 670.476562 1277.207031 669.65625 1275.515625 668.753906 C 1273.828125 667.851562 1272.1875 666.867188 1270.59375 665.804688 C 1269.003906 664.742188 1267.464844 663.601562 1265.984375 662.386719 C 1264.503906 661.171875 1263.085938 659.886719 1261.734375 658.53125 C 1260.378906 657.179688 1259.09375 655.761719 1257.878906 654.28125 C 1256.664062 652.800781 1255.523438 651.261719 1254.460938 649.671875 C 1253.398438 648.078125 1252.414062 646.4375 1251.511719 644.75 C 1250.609375 643.058594 1249.789062 641.328125 1249.058594 639.558594 C 1248.324219 637.792969 1247.679688 635.988281 1247.125 634.15625 C 1246.566406 632.324219 1246.101562 630.46875 1245.730469 628.589844 C 1245.355469 626.710938 1245.074219 624.820312 1244.886719 622.914062 C 1244.699219 621.007812 1244.605469 619.097656 1244.605469 617.183594 C 1244.605469 615.265625 1244.699219 613.355469 1244.886719 611.449219 C 1245.074219 609.542969 1245.355469 607.652344 1245.730469 605.773438 C 1246.101562 603.894531 1246.566406 602.039062 1247.125 600.207031 C 1247.679688 598.375 1248.324219 596.574219 1249.058594 594.804688 C 1249.789062 593.035156 1250.609375 591.304688 1251.511719 589.617188 C 1252.414062 587.925781 1253.398438 586.285156 1254.460938 584.695312 C 1255.523438 583.101562 1256.664062 581.566406 1257.878906 580.085938 C 1259.09375 578.605469 1260.378906 577.1875 1261.734375 575.832031 C 1263.085938 574.480469 1264.503906 573.195312 1265.984375 571.980469 C 1267.464844 570.765625 1269.003906 569.625 1270.59375 568.558594 C 1272.1875 567.496094 1273.828125 566.511719 1275.515625 565.609375 C 1277.207031 564.707031 1278.933594 563.890625 1280.703125 563.15625 C 1282.472656 562.421875 1284.273438 561.777344 1286.109375 561.222656 C 1287.941406 560.667969 1289.796875 560.203125 1291.675781 559.828125 C 1293.554688 559.457031 1295.445312 559.175781 1297.351562 558.988281 C 1299.257812 558.800781 1301.167969 558.707031 1303.082031 558.707031 C 1305 558.707031 1306.910156 558.800781 1308.816406 558.988281 C 1310.71875 559.175781 1312.613281 559.457031 1314.492188 559.828125 C 1316.371094 560.203125 1318.226562 560.667969 1320.058594 561.222656 C 1321.890625 561.777344 1323.691406 562.421875 1325.460938 563.15625 C 1327.230469 563.890625 1328.960938 564.707031 1330.648438 565.609375 C 1332.335938 566.511719 1333.980469 567.496094 1335.570312 568.558594 C 1337.164062 569.625 1338.699219 570.765625 1340.179688 571.980469 C 1341.660156 573.195312 1343.078125 574.480469 1344.433594 575.832031 C 1345.785156 577.1875 1347.070312 578.605469 1348.285156 580.085938 C 1349.5 581.566406 1350.640625 583.101562 1351.703125 584.695312 C 1352.769531 586.285156 1353.753906 587.925781 1354.65625 589.617188 C 1355.558594 591.304688 1356.375 593.035156 1357.109375 594.804688 C 1357.839844 596.574219 1358.484375 598.375 1359.042969 600.207031 C 1359.597656 602.039062 1360.0625 603.894531 1360.4375 605.773438 C 1360.808594 607.652344 1361.089844 609.542969 1361.277344 611.449219 C 1361.464844 613.355469 1361.558594 615.265625 1361.558594 617.183594 Z M 1361.558594 617.183594 " fill-opacity="0.27" fill-rule="nonzero"/><path fill="#000000" d="M 1291.234375 423.960938 C 1291.234375 425.875 1291.140625 427.785156 1290.953125 429.691406 C 1290.765625 431.597656 1290.484375 433.488281 1290.109375 435.367188 C 1289.738281 437.246094 1289.273438 439.101562 1288.714844 440.933594 C 1288.160156 442.765625 1287.515625 444.566406 1286.78125 446.335938 C 1286.050781 448.105469 1285.230469 449.835938 1284.328125 451.523438 C 1283.425781 453.214844 1282.441406 454.855469 1281.378906 456.449219 C 1280.316406 458.039062 1279.175781 459.578125 1277.960938 461.058594 C 1276.746094 462.539062 1275.460938 463.953125 1274.105469 465.308594 C 1272.753906 466.664062 1271.335938 467.949219 1269.855469 469.164062 C 1268.375 470.378906 1266.835938 471.515625 1265.246094 472.582031 C 1263.652344 473.644531 1262.011719 474.628906 1260.324219 475.53125 C 1258.632812 476.433594 1256.90625 477.253906 1255.136719 477.984375 C 1253.367188 478.71875 1251.566406 479.363281 1249.730469 479.917969 C 1247.898438 480.472656 1246.042969 480.9375 1244.164062 481.3125 C 1242.285156 481.6875 1240.394531 481.96875 1238.488281 482.15625 C 1236.582031 482.34375 1234.671875 482.4375 1232.757812 482.4375 C 1230.839844 482.4375 1228.929688 482.34375 1227.023438 482.15625 C 1225.117188 481.96875 1223.226562 481.6875 1221.347656 481.3125 C 1219.46875 480.9375 1217.613281 480.472656 1215.78125 479.917969 C 1213.949219 479.363281 1212.148438 478.71875 1210.378906 477.984375 C 1208.609375 477.253906 1206.878906 476.433594 1205.191406 475.53125 C 1203.5 474.628906 1201.859375 473.644531 1200.269531 472.582031 C 1198.675781 471.515625 1197.140625 470.378906 1195.660156 469.164062 C 1194.179688 467.949219 1192.761719 466.664062 1191.40625 465.308594 C 1190.054688 463.953125 1188.769531 462.539062 1187.554688 461.058594 C 1186.339844 459.578125 1185.199219 458.039062 1184.136719 456.449219 C 1183.070312 454.855469 1182.085938 453.214844 1181.183594 451.523438 C 1180.28125 449.835938 1179.464844 448.105469 1178.730469 446.335938 C 1177.996094 444.566406 1177.355469 442.765625 1176.796875 440.933594 C 1176.242188 439.101562 1175.777344 437.246094 1175.402344 435.367188 C 1175.03125 433.488281 1174.75 431.597656 1174.5625 429.691406 C 1174.375 427.785156 1174.28125 425.875 1174.28125 423.960938 C 1174.28125 422.042969 1174.375 420.132812 1174.5625 418.226562 C 1174.75 416.320312 1175.03125 414.429688 1175.402344 412.550781 C 1175.777344 410.671875 1176.242188 408.816406 1176.796875 406.984375 C 1177.355469 405.152344 1177.996094 403.351562 1178.730469 401.582031 C 1179.464844 399.8125 1180.28125 398.082031 1181.183594 396.394531 C 1182.085938 394.703125 1183.070312 393.0625 1184.136719 391.472656 C 1185.199219 389.878906 1186.339844 388.34375 1187.554688 386.863281 C 1188.769531 385.382812 1190.054688 383.964844 1191.40625 382.609375 C 1192.761719 381.253906 1194.179688 379.972656 1195.660156 378.753906 C 1197.140625 377.539062 1198.675781 376.402344 1200.269531 375.335938 C 1201.859375 374.273438 1203.5 373.289062 1205.191406 372.386719 C 1206.878906 371.484375 1208.609375 370.667969 1210.378906 369.933594 C 1212.148438 369.199219 1213.949219 368.554688 1215.78125 368 C 1217.613281 367.445312 1219.46875 366.980469 1221.347656 366.605469 C 1223.226562 366.230469 1225.117188 365.953125 1227.023438 365.765625 C 1228.929688 365.574219 1230.839844 365.480469 1232.757812 365.480469 C 1234.671875 365.480469 1236.582031 365.574219 1238.488281 365.765625 C 1240.394531 365.953125 1242.285156 366.230469 1244.164062 366.605469 C 1246.042969 366.980469 1247.898438 367.445312 1249.730469 368 C 1251.566406 368.554688 1253.367188 369.199219 1255.136719 369.933594 C 1256.90625 370.667969 1258.632812 371.484375 1260.324219 372.386719 C 1262.011719 373.289062 1263.652344 374.273438 1265.246094 375.335938 C 1266.835938 376.402344 1268.375 377.539062 1269.855469 378.753906 C 1271.335938 379.972656 1272.753906 381.253906 1274.105469 382.609375 C 1275.460938 383.964844 1276.746094 385.382812 1277.960938 386.863281 C 1279.175781 388.34375 1280.316406 389.878906 1281.378906 391.472656 C 1282.441406 393.0625 1283.425781 394.703125 1284.328125 396.394531 C 1285.230469 398.082031 1286.050781 399.8125 1286.78125 401.582031 C 1287.515625 403.351562 1288.160156 405.152344 1288.714844 406.984375 C 1289.273438 408.816406 1289.738281 410.671875 1290.109375 412.550781 C 1290.484375 414.429688 1290.765625 416.320312 1290.953125 418.226562 C 1291.140625 420.132812 1291.234375 422.042969 1291.234375 423.960938 Z M 1291.234375 423.960938 " fill-opacity="0.27" fill-rule="nonzero"/><path fill="#000000" d="M 1159.0625 266.4375 C 1159.0625 268.351562 1158.96875 270.261719 1158.78125 272.167969 C 1158.589844 274.074219 1158.3125 275.964844 1157.9375 277.84375 C 1157.5625 279.722656 1157.097656 281.578125 1156.542969 283.410156 C 1155.988281 285.246094 1155.34375 287.046875 1154.609375 288.816406 C 1153.875 290.585938 1153.058594 292.3125 1152.15625 294.003906 C 1151.253906 295.691406 1150.269531 297.332031 1149.207031 298.925781 C 1148.140625 300.515625 1147.003906 302.054688 1145.789062 303.535156 C 1144.570312 305.015625 1143.289062 306.433594 1141.933594 307.785156 C 1140.578125 309.140625 1139.160156 310.425781 1137.679688 311.640625 C 1136.199219 312.855469 1134.664062 313.996094 1133.070312 315.058594 C 1131.480469 316.121094 1129.839844 317.105469 1128.148438 318.007812 C 1126.460938 318.910156 1124.730469 319.730469 1122.960938 320.460938 C 1121.191406 321.195312 1119.390625 321.839844 1117.558594 322.394531 C 1115.726562 322.953125 1113.871094 323.417969 1111.992188 323.789062 C 1110.113281 324.164062 1108.222656 324.445312 1106.316406 324.632812 C 1104.410156 324.820312 1102.5 324.914062 1100.582031 324.914062 C 1098.667969 324.914062 1096.757812 324.820312 1094.851562 324.632812 C 1092.945312 324.445312 1091.054688 324.164062 1089.175781 323.789062 C 1087.296875 323.417969 1085.441406 322.953125 1083.609375 322.394531 C 1081.777344 321.839844 1079.976562 321.195312 1078.207031 320.460938 C 1076.4375 319.730469 1074.707031 318.910156 1073.019531 318.007812 C 1071.328125 317.105469 1069.6875 316.121094 1068.09375 315.058594 C 1066.503906 313.996094 1064.964844 312.855469 1063.484375 311.640625 C 1062.007812 310.425781 1060.589844 309.140625 1059.234375 307.785156 C 1057.878906 306.433594 1056.59375 305.015625 1055.378906 303.535156 C 1054.164062 302.054688 1053.027344 300.515625 1051.960938 298.925781 C 1050.898438 297.332031 1049.914062 295.691406 1049.011719 294.003906 C 1048.109375 292.3125 1047.289062 290.585938 1046.558594 288.816406 C 1045.824219 287.046875 1045.179688 285.246094 1044.625 283.410156 C 1044.070312 281.578125 1043.605469 279.722656 1043.230469 277.84375 C 1042.855469 275.964844 1042.574219 274.074219 1042.386719 272.167969 C 1042.199219 270.261719 1042.105469 268.351562 1042.105469 266.4375 C 1042.105469 264.519531 1042.199219 262.609375 1042.386719 260.703125 C 1042.574219 258.796875 1042.855469 256.90625 1043.230469 255.027344 C 1043.605469 253.148438 1044.070312 251.292969 1044.625 249.460938 C 1045.179688 247.628906 1045.824219 245.828125 1046.558594 244.058594 C 1047.289062 242.289062 1048.109375 240.558594 1049.011719 238.871094 C 1049.914062 237.179688 1050.898438 235.539062 1051.960938 233.949219 C 1053.027344 232.355469 1054.164062 230.820312 1055.378906 229.339844 C 1056.59375 227.859375 1057.878906 226.441406 1059.234375 225.085938 C 1060.589844 223.734375 1062.007812 222.449219 1063.484375 221.234375 C 1064.964844 220.019531 1066.503906 218.878906 1068.09375 217.816406 C 1069.6875 216.75 1071.328125 215.765625 1073.019531 214.863281 C 1074.707031 213.960938 1076.4375 213.144531 1078.207031 212.410156 C 1079.976562 211.675781 1081.777344 211.035156 1083.609375 210.476562 C 1085.441406 209.921875 1087.296875 209.457031 1089.175781 209.082031 C 1091.054688 208.710938 1092.945312 208.429688 1094.851562 208.242188 C 1096.757812 208.054688 1098.667969 207.960938 1100.582031 207.960938 C 1102.5 207.960938 1104.410156 208.054688 1106.316406 208.242188 C 1108.222656 208.429688 1110.113281 208.710938 1111.992188 209.082031 C 1113.871094 209.457031 1115.726562 209.921875 1117.558594 210.476562 C 1119.390625 211.035156 1121.191406 211.679688 1122.960938 212.410156 C 1124.730469 213.144531 1126.460938 213.960938 1128.148438 214.863281 C 1129.839844 215.765625 1131.480469 216.75 1133.070312 217.816406 C 1134.664062 218.878906 1136.199219 220.019531 1137.679688 221.234375 C 1139.160156 222.449219 1140.578125 223.734375 1141.933594 225.085938 C 1143.289062 226.441406 1144.570312 227.859375 1145.785156 229.339844 C 1147.003906 230.820312 1148.140625 232.355469 1149.207031 233.949219 C 1150.269531 235.539062 1151.253906 237.179688 1152.15625 238.871094 C 1153.058594 240.558594 1153.875 242.289062 1154.609375 244.058594 C 1155.34375 245.828125 1155.988281 247.628906 1156.542969 249.460938 C 1157.097656 251.292969 1157.5625 253.148438 1157.9375 255.027344 C 1158.3125 256.90625 1158.589844 258.796875 1158.78125 260.703125 C 1158.96875 262.609375 1159.0625 264.519531 1159.0625 266.4375 Z M 1159.0625 266.4375 " fill-opacity="0.27" fill-rule="nonzero"/><path fill="#000000" d="M 980.984375 163.625 C 980.984375 165.542969 980.890625 167.453125 980.703125 169.359375 C 980.515625 171.265625 980.234375 173.15625 979.859375 175.035156 C 979.484375 176.914062 979.023438 178.769531 978.464844 180.601562 C 977.910156 182.433594 977.265625 184.234375 976.53125 186.003906 C 975.800781 187.773438 974.980469 189.503906 974.078125 191.191406 C 973.175781 192.882812 972.191406 194.523438 971.128906 196.113281 C 970.0625 197.707031 968.925781 199.242188 967.710938 200.722656 C 966.496094 202.203125 965.210938 203.621094 963.855469 204.976562 C 962.5 206.332031 961.085938 207.613281 959.605469 208.828125 C 958.125 210.042969 956.585938 211.183594 954.996094 212.25 C 953.402344 213.3125 951.761719 214.296875 950.070312 215.199219 C 948.382812 216.101562 946.652344 216.917969 944.882812 217.652344 C 943.113281 218.386719 941.3125 219.03125 939.480469 219.585938 C 937.648438 220.140625 935.792969 220.605469 933.914062 220.980469 C 932.035156 221.355469 930.144531 221.632812 928.238281 221.820312 C 926.332031 222.007812 924.421875 222.101562 922.507812 222.101562 C 920.589844 222.101562 918.679688 222.007812 916.773438 221.820312 C 914.867188 221.632812 912.976562 221.355469 911.097656 220.980469 C 909.21875 220.605469 907.363281 220.140625 905.53125 219.585938 C 903.699219 219.03125 901.898438 218.386719 900.128906 217.652344 C 898.359375 216.917969 896.628906 216.101562 894.941406 215.199219 C 893.25 214.296875 891.609375 213.3125 890.019531 212.25 C 888.425781 211.183594 886.890625 210.042969 885.410156 208.828125 C 883.929688 207.613281 882.511719 206.332031 881.15625 204.976562 C 879.800781 203.621094 878.519531 202.203125 877.304688 200.722656 C 876.085938 199.242188 874.949219 197.707031 873.882812 196.113281 C 872.820312 194.523438 871.835938 192.882812 870.933594 191.191406 C 870.03125 189.503906 869.214844 187.773438 868.480469 186.003906 C 867.746094 184.234375 867.101562 182.433594 866.546875 180.601562 C 865.992188 178.769531 865.527344 176.914062 865.152344 175.035156 C 864.777344 173.15625 864.5 171.265625 864.3125 169.359375 C 864.125 167.453125 864.027344 165.542969 864.027344 163.625 C 864.027344 161.710938 864.125 159.800781 864.3125 157.894531 C 864.5 155.988281 864.777344 154.097656 865.152344 152.21875 C 865.527344 150.339844 865.992188 148.484375 866.546875 146.652344 C 867.101562 144.820312 867.746094 143.015625 868.480469 141.25 C 869.214844 139.480469 870.03125 137.75 870.933594 136.058594 C 871.835938 134.371094 872.820312 132.730469 873.882812 131.136719 C 874.949219 129.546875 876.085938 128.007812 877.304688 126.527344 C 878.519531 125.046875 879.800781 123.632812 881.15625 122.277344 C 882.511719 120.921875 883.929688 119.636719 885.410156 118.421875 C 886.890625 117.207031 888.425781 116.070312 890.019531 115.003906 C 891.609375 113.941406 893.25 112.957031 894.941406 112.054688 C 896.628906 111.152344 898.359375 110.332031 900.128906 109.601562 C 901.898438 108.867188 903.699219 108.222656 905.53125 107.667969 C 907.363281 107.109375 909.21875 106.644531 911.097656 106.273438 C 912.976562 105.898438 914.867188 105.617188 916.773438 105.429688 C 918.679688 105.242188 920.589844 105.148438 922.507812 105.148438 C 924.421875 105.148438 926.332031 105.242188 928.238281 105.429688 C 930.144531 105.617188 932.035156 105.898438 933.914062 106.273438 C 935.792969 106.644531 937.648438 107.109375 939.480469 107.667969 C 941.3125 108.222656 943.113281 108.867188 944.882812 109.601562 C 946.652344 110.332031 948.382812 111.152344 950.070312 112.054688 C 951.761719 112.957031 953.402344 113.941406 954.996094 115.003906 C 956.585938 116.070312 958.125 117.207031 959.605469 118.421875 C 961.085938 119.636719 962.5 120.921875 963.855469 122.277344 C 965.210938 123.632812 966.496094 125.046875 967.710938 126.527344 C 968.925781 128.007812 970.0625 129.546875 971.128906 131.136719 C 972.191406 132.730469 973.175781 134.371094 974.078125 136.058594 C 974.980469 137.75 975.800781 139.480469 976.53125 141.25 C 977.265625 143.015625 977.910156 144.820312 978.464844 146.652344 C 979.019531 148.484375 979.484375 150.339844 979.859375 152.21875 C 980.234375 154.097656 980.515625 155.988281 980.703125 157.894531 C 980.890625 159.800781 980.984375 161.710938 980.984375 163.625 Z M 980.984375 163.625 " fill-opacity="0.27" fill-rule="nonzero"/><path fill="#000000" d="M 1180.507812 741.929688 C 1191.871094 480.527344 979.71875 259.492188 720 259.492188 C 460.28125 259.492188 248.128906 480.527344 259.492188 741.929688 C 255.554688 486.488281 464.738281 274.113281 720 274.113281 C 975.261719 274.113281 1184.445312 486.488281 1180.507812 741.929688 Z M 1180.507812 741.929688 " fill-opacity="0.27" fill-rule="nonzero"/><path fill="#000000" d="M 1180.507812 741.929688 C 1168.589844 986.09375 964.453125 1180.507812 720 1180.507812 C 475.546875 1180.507812 271.410156 986.09375 259.492188 741.929688 C 286.917969 974.246094 486.066406 1151.269531 720 1151.269531 C 953.933594 1151.269531 1153.082031 974.246094 1180.507812 741.929688 Z M 1180.507812 741.929688 " fill-opacity="0.27" fill-rule="nonzero"/></svg>