<svg xmlns="http://www.w3.org/2000/svg" xmlns:xlink="http://www.w3.org/1999/xlink" width="1920" zoomAndPan="magnify" viewBox="0 0 1440 1439.999935" height="1920" preserveAspectRatio="xMidYMid meet" version="1.0"><path fill="#ffffff" d="M 720 0 C 322.355469 0 0 322.355469 0 720 C 0 1117.644531 322.355469 1440 720 1440 C 1117.644531 1440 1440 1117.644531 1440 720 C 1440 322.355469 1117.644531 0 720 0 Z M 1138.671875 740.351562 C 1118.148438 760.875 1087.859375 765.644531 1062.773438 754.707031 L 1062.773438 1027.792969 C 1062.773438 1084.585938 1016.734375 1130.625 959.941406 1130.625 L 480.058594 1130.625 C 423.265625 1130.625 377.230469 1084.585938 377.230469 1027.792969 L 377.230469 754.707031 C 352.144531 765.648438 321.855469 760.875 301.332031 740.351562 C 274.558594 713.578125 274.558594 670.171875 301.332031 643.402344 L 671.523438 273.203125 C 698.296875 246.429688 741.703125 246.429688 768.472656 273.203125 L 1138.667969 643.398438 C 1165.445312 670.171875 1165.445312 713.578125 1138.671875 740.351562 Z M 1138.671875 740.351562 " fill-opacity="1" fill-rule="nonzero"/><path fill="#ffffff" d="M 805.695312 753.574219 L 634.304688 753.574219 C 615.375 753.574219 600.027344 768.921875 600.027344 787.855469 L 600.027344 993.519531 C 600.027344 1012.449219 615.375 1027.796875 634.304688 1027.796875 L 805.695312 1027.796875 C 824.625 1027.796875 839.972656 1012.449219 839.972656 993.519531 L 839.972656 787.855469 C 839.96875 768.921875 824.625 753.574219 805.695312 753.574219 Z M 805.695312 753.574219 " fill-opacity="1" fill-rule="nonzero"/></svg>