<svg xmlns="http://www.w3.org/2000/svg" xmlns:xlink="http://www.w3.org/1999/xlink" width="1920" zoomAndPan="magnify" viewBox="0 0 1440 1439.999935" height="1920" preserveAspectRatio="xMidYMid meet" version="1.0"><defs><clipPath id="204366a7d3"><path d="M 29 62 L 1345 62 L 1345 1253 L 29 1253 Z M 29 62 " clip-rule="nonzero"/></clipPath><clipPath id="62b640320b"><path d="M 1503.222656 349.550781 L 970.117188 1549.726562 L -63.5 1090.605469 L 469.605469 -109.570312 Z M 1503.222656 349.550781 " clip-rule="nonzero"/></clipPath><clipPath id="dade22e60e"><path d="M 1503.222656 349.550781 L 970.117188 1549.726562 L -63.5 1090.605469 L 469.605469 -109.570312 Z M 1503.222656 349.550781 " clip-rule="nonzero"/></clipPath><clipPath id="a9ac979bc8"><path d="M 1503.222656 349.550781 L 970.117188 1549.726562 L -63.5 1090.605469 L 469.605469 -109.570312 Z M 1503.222656 349.550781 " clip-rule="nonzero"/></clipPath><clipPath id="8b71ce8e98"><path d="M 80 107 L 1297 107 L 1297 1200 L 80 1200 Z M 80 107 " clip-rule="nonzero"/></clipPath><clipPath id="a78aff803c"><path d="M 1503.222656 349.550781 L 970.117188 1549.726562 L -63.5 1090.605469 L 469.605469 -109.570312 Z M 1503.222656 349.550781 " clip-rule="nonzero"/></clipPath><clipPath id="b215eb25f1"><path d="M 1503.222656 349.550781 L 970.117188 1549.726562 L -63.5 1090.605469 L 469.605469 -109.570312 Z M 1503.222656 349.550781 " clip-rule="nonzero"/></clipPath><clipPath id="3e81d5a2d5"><path d="M 1503.222656 349.550781 L 970.117188 1549.726562 L -63.5 1090.605469 L 469.605469 -109.570312 Z M 1503.222656 349.550781 " clip-rule="nonzero"/></clipPath><clipPath id="a4ebeb168b"><path d="M 197 503 L 1297 503 L 1297 1199 L 197 1199 Z M 197 503 " clip-rule="nonzero"/></clipPath><clipPath id="d47ddf41b2"><path d="M 1503.222656 349.550781 L 970.117188 1549.726562 L -63.5 1090.605469 L 469.605469 -109.570312 Z M 1503.222656 349.550781 " clip-rule="nonzero"/></clipPath><clipPath id="3f1e5cf422"><path d="M 1503.222656 349.550781 L 970.117188 1549.726562 L -63.5 1090.605469 L 469.605469 -109.570312 Z M 1503.222656 349.550781 " clip-rule="nonzero"/></clipPath><clipPath id="b80a9da962"><path d="M 1503.222656 349.550781 L 970.117188 1549.726562 L -63.5 1090.605469 L 469.605469 -109.570312 Z M 1503.222656 349.550781 " clip-rule="nonzero"/></clipPath><clipPath id="981ea1345a"><path d="M 752 282 L 1170 282 L 1170 622 L 752 622 Z M 752 282 " clip-rule="nonzero"/></clipPath><clipPath id="d05e7981db"><path d="M 1503.222656 349.550781 L 970.117188 1549.726562 L -63.5 1090.605469 L 469.605469 -109.570312 Z M 1503.222656 349.550781 " clip-rule="nonzero"/></clipPath><clipPath id="fd3ea25c7f"><path d="M 1503.222656 349.550781 L 970.117188 1549.726562 L -63.5 1090.605469 L 469.605469 -109.570312 Z M 1503.222656 349.550781 " clip-rule="nonzero"/></clipPath><clipPath id="1d844102fb"><path d="M 1503.222656 349.550781 L 970.117188 1549.726562 L -63.5 1090.605469 L 469.605469 -109.570312 Z M 1503.222656 349.550781 " clip-rule="nonzero"/></clipPath><clipPath id="0b72c4e393"><path d="M 573 146 L 894 146 L 894 502 L 573 502 Z M 573 146 " clip-rule="nonzero"/></clipPath><clipPath id="4bbf95af71"><path d="M 1503.222656 349.550781 L 970.117188 1549.726562 L -63.5 1090.605469 L 469.605469 -109.570312 Z M 1503.222656 349.550781 " clip-rule="nonzero"/></clipPath><clipPath id="ed68a61ae4"><path d="M 1503.222656 349.550781 L 970.117188 1549.726562 L -63.5 1090.605469 L 469.605469 -109.570312 Z M 1503.222656 349.550781 " clip-rule="nonzero"/></clipPath><clipPath id="7a0f745df6"><path d="M 1503.222656 349.550781 L 970.117188 1549.726562 L -63.5 1090.605469 L 469.605469 -109.570312 Z M 1503.222656 349.550781 " clip-rule="nonzero"/></clipPath><clipPath id="401727ed51"><path d="M 347 109 L 589 109 L 589 451 L 347 451 Z M 347 109 " clip-rule="nonzero"/></clipPath><clipPath id="8d841369e6"><path d="M 1503.222656 349.550781 L 970.117188 1549.726562 L -63.5 1090.605469 L 469.605469 -109.570312 Z M 1503.222656 349.550781 " clip-rule="nonzero"/></clipPath><clipPath id="4070f09385"><path d="M 1503.222656 349.550781 L 970.117188 1549.726562 L -63.5 1090.605469 L 469.605469 -109.570312 Z M 1503.222656 349.550781 " clip-rule="nonzero"/></clipPath><clipPath id="e456b3a5d6"><path d="M 1503.222656 349.550781 L 970.117188 1549.726562 L -63.5 1090.605469 L 469.605469 -109.570312 Z M 1503.222656 349.550781 " clip-rule="nonzero"/></clipPath></defs><g clip-path="url(#204366a7d3)"><g clip-path="url(#62b640320b)"><g clip-path="url(#dade22e60e)"><g clip-path="url(#a9ac979bc8)"><path fill="#232323" d="M 933.125 209.902344 C 949.617188 175.703125 943.820312 135.039062 918.878906 106.609375 C 894.195312 79.023438 857.550781 69.207031 821.585938 71.9375 C 776.253906 74.988281 735.707031 97.773438 702.042969 127.109375 C 659.792969 164.875 625.1875 210.046875 593.292969 256.632812 C 607.003906 222.136719 627.84375 183.664062 628.328125 146.210938 C 629.148438 117.5 614.957031 89.625 590.089844 74.878906 C 559.035156 55.769531 515.578125 60.226562 483.640625 75.011719 C 439.402344 95.429688 401.988281 134.613281 372.917969 172.96875 C 338.433594 217.050781 317.308594 271.652344 298.816406 324.191406 C 285.828125 359.53125 284.230469 395.96875 267.757812 430.125 C 238.734375 503.675781 180.886719 550.976562 151.347656 623.464844 C 132.816406 670.929688 129.929688 721.179688 136.738281 771.304688 C 97.285156 783.0625 64.109375 810.476562 46.417969 847.84375 C 26.464844 888.066406 25.382812 933.90625 35.089844 977.035156 C 49.785156 1038.375 83.253906 1091.589844 126.875 1136.601562 C 174.949219 1185.671875 234.648438 1222.871094 300.847656 1241.804688 C 354.601562 1256.507812 412.960938 1258.257812 464.390625 1234.3125 C 486.214844 1224.832031 503.789062 1209.660156 519.105469 1191.714844 C 556.382812 1198.113281 593.367188 1194.375 630.230469 1187.042969 C 674.367188 1177.417969 711.359375 1156.648438 752.9375 1140.46875 C 799.351562 1122.421875 846.320312 1104.417969 896.316406 1100.363281 C 948.847656 1090.246094 1001.183594 1092.183594 1054.167969 1088.675781 C 1089.203125 1084.753906 1129.488281 1082.378906 1159.699219 1062.816406 C 1190.121094 1043.347656 1210.195312 1009.070312 1208.867188 972.527344 C 1207.996094 937.074219 1185.84375 905.769531 1159.269531 883.960938 C 1116.765625 849.449219 1061.714844 833.335938 1008.003906 827.453125 C 981.34375 823.894531 955.042969 825.863281 928.351562 827.660156 C 980.28125 797.789062 1033.171875 769.855469 1088.601562 747.113281 C 1159.601562 714.304688 1227.5625 692.441406 1293.632812 651.5 C 1325.019531 631.15625 1347.664062 598.59375 1344.164062 559.785156 C 1341.519531 530.316406 1323.871094 503.773438 1298.265625 489.167969 C 1260.152344 467.289062 1216.046875 463.953125 1173.367188 470.421875 C 1123.140625 477.34375 1078.066406 495.773438 1031.128906 513.585938 C 1078.03125 475.441406 1135.871094 440.117188 1176.351562 394.84375 C 1202.421875 365.835938 1222.074219 326.632812 1219.210938 286.75 C 1216.324219 252.539062 1191.824219 225.242188 1160.195312 213.746094 C 1117.234375 197.632812 1069.207031 206.988281 1028.855469 226.164062 C 935.234375 268.257812 855.777344 346.027344 779.734375 413.539062 C 806.933594 374.820312 836.21875 337.394531 866.113281 300.703125 C 889.191406 271.980469 916.554688 242.867188 933.125 209.902344 Z M 933.125 209.902344 " fill-opacity="1" fill-rule="nonzero"/></g></g></g></g><g clip-path="url(#8b71ce8e98)"><g clip-path="url(#a78aff803c)"><g clip-path="url(#b215eb25f1)"><g clip-path="url(#3e81d5a2d5)"><path fill="#ababab" d="M 530.277344 400.847656 C 515.855469 421.117188 506.28125 441.613281 487.25 456.660156 C 491.582031 418.410156 507.527344 380.632812 520.8125 344.746094 C 539.164062 300.847656 557.019531 256.777344 573.8125 212.289062 C 581.675781 189.886719 593.351562 160.789062 587 136.96875 C 583.414062 122.871094 572.929688 115.507812 560.683594 109.179688 C 530.988281 102.605469 503.179688 111.722656 479.347656 129.480469 C 427.300781 168.417969 386.902344 224.878906 361.324219 284.222656 C 341.898438 326.078125 326.117188 369.351562 311.488281 413.078125 C 298.898438 445.054688 290.320312 477.039062 273.453125 505.863281 C 245.214844 558.292969 202.949219 603.710938 187.960938 662.550781 C 179.117188 700.40625 176.980469 743.222656 189.363281 780.5625 C 203.605469 819.347656 229.664062 854.054688 263.113281 878.449219 C 285.988281 895.800781 311.574219 905.652344 335.726562 921.070312 C 299.96875 927.90625 260.230469 915.203125 229.628906 897.183594 C 195.007812 876.59375 170.304688 846.34375 149.445312 812.484375 C 126.011719 827.242188 104.699219 842.261719 92.296875 868.066406 C 71.753906 911.152344 79.445312 961.042969 97.289062 1003.566406 C 124.640625 1068.082031 177.355469 1122.65625 237.128906 1158.167969 C 283.742188 1184.601562 335.070312 1203.234375 389.386719 1198.601562 C 416.074219 1198.105469 440.320312 1188.449219 462.726562 1174.488281 C 431.164062 1154.164062 401.824219 1136.703125 382.761719 1102.910156 C 374.015625 1087.878906 370.046875 1071.003906 368.941406 1053.789062 C 409.40625 1093.59375 451.527344 1127.207031 507.949219 1141.0625 C 544.121094 1149.472656 578.734375 1144.628906 614.421875 1136.773438 C 662.046875 1125.625 705.542969 1099.71875 752.925781 1084.191406 C 804.597656 1065.5625 858.097656 1055.148438 912.523438 1048.738281 C 979.632812 1036.65625 1044.273438 1044.320312 1110.472656 1028.652344 C 1128.15625 1024.265625 1141.179688 1014.417969 1151.414062 999.476562 C 1157.414062 985.730469 1160.210938 971.808594 1153.957031 957.621094 C 1141.289062 928.078125 1109.4375 907.46875 1081.152344 894.90625 C 1018.179688 869.644531 946.84375 864.269531 881.53125 883.921875 C 851.136719 892.410156 819.597656 903.828125 787.601562 901.027344 C 775.007812 899.703125 760.082031 899.640625 749.175781 892.867188 C 732.132812 882.796875 716.800781 870.046875 699.972656 859.601562 C 637.535156 820.351562 569.417969 792.597656 494.851562 791.207031 C 537.722656 775.859375 583.769531 774.949219 627.882812 785.425781 C 685.789062 796.871094 737.648438 824.753906 781.511719 863.828125 C 828.113281 825.183594 885.367188 797.988281 937.78125 767.605469 C 1003.40625 729.539062 1072.84375 700.828125 1142.144531 670.441406 C 1182.183594 655.140625 1220.953125 637.296875 1258.625 616.878906 C 1273.53125 608.546875 1289.898438 596.328125 1295.414062 579.449219 C 1299.058594 566.324219 1295.167969 554.902344 1290.414062 542.734375 C 1264.257812 515.171875 1228.441406 508.539062 1192.015625 509.605469 C 1142.066406 511.800781 1090.480469 529.164062 1043.738281 546.074219 C 952.988281 580.53125 871.519531 629.640625 787.203125 676.59375 C 784.367188 671.480469 781.535156 666.363281 778.71875 661.207031 C 796.375 646.4375 815.148438 633.152344 834.371094 620.484375 C 847.210938 613.164062 860 605.609375 872.285156 597.414062 C 893.910156 583.105469 912.015625 564.625 933.195312 549.441406 C 986.914062 511.664062 1036.925781 465.933594 1086.300781 422.214844 C 1120.511719 390.363281 1156.324219 359.585938 1169.628906 312.976562 C 1171.644531 298.707031 1173.898438 284.128906 1164.429688 271.898438 C 1148.972656 251.800781 1122.550781 247.359375 1098.640625 248.40625 C 1060.355469 250.261719 1021.238281 270.871094 988.132812 288.992188 C 927.886719 323.976562 872.929688 368.757812 819.339844 413.050781 C 787.402344 440.027344 755.273438 466.605469 724.734375 495.246094 C 705.316406 513.035156 687.726562 531.640625 666.355469 547.261719 C 663.65625 516.15625 689.242188 483.074219 703.597656 456.730469 C 755.042969 377.980469 808.425781 300.613281 866.195312 226.390625 C 881.078125 204.96875 900.84375 179.828125 891.226562 152.210938 C 884.875 141.054688 877.582031 131.199219 865.542969 125.695312 C 838.777344 113.230469 805.011719 117.460938 778.445312 128.585938 C 740.273438 144.613281 706.980469 175.933594 678.4375 205.355469 C 620.410156 265.5 577.527344 332.007812 530.277344 400.847656 Z M 747.394531 659.589844 C 763.96875 682.21875 781.542969 710.917969 774.03125 740.144531 C 759.246094 715.601562 741.5625 693.367188 721.097656 673.28125 C 669.96875 624.050781 609.425781 583.351562 546.269531 551.234375 C 520.660156 538.503906 496.789062 524.097656 469.386719 515.414062 C 462.566406 512.230469 455.890625 508.847656 449.226562 505.316406 C 489.136719 504.964844 529.125 515.222656 566.242188 529.257812 C 635.578125 556.148438 701.34375 600.578125 747.394531 659.589844 Z M 747.394531 659.589844 " fill-opacity="1" fill-rule="nonzero"/></g></g></g></g><g clip-path="url(#a4ebeb168b)"><g clip-path="url(#d47ddf41b2)"><g clip-path="url(#3f1e5cf422)"><g clip-path="url(#b80a9da962)"><path fill="#ffffff" d="M 955.347656 635.039062 C 924.585938 655.972656 895.03125 675.824219 869.734375 703.5625 C 844.175781 730.140625 828.730469 763.503906 803.304688 790.246094 C 791.46875 774.671875 783.109375 757.359375 774.03125 740.144531 C 759.246094 715.601562 741.5625 693.367188 721.097656 673.28125 C 669.96875 624.050781 609.425781 583.351562 546.269531 551.234375 C 520.660156 538.503906 496.789062 524.097656 469.386719 515.414062 C 444.628906 508.277344 422.398438 500.378906 396.332031 504.171875 C 349.207031 509.96875 307.886719 545.28125 284.355469 585.003906 C 263.796875 623.078125 246.984375 661.046875 245.257812 704.933594 C 242.277344 752.222656 254.507812 799.179688 290.613281 831.785156 C 329.773438 865.386719 378.367188 882.542969 428.023438 893.449219 C 398.910156 909.488281 367.855469 914.65625 335.726562 921.070312 C 299.96875 927.90625 260.230469 915.203125 229.628906 897.183594 C 217.585938 912.207031 206.476562 926.546875 201.375 945.539062 C 191.652344 981.5 199.039062 1019.0625 215.164062 1051.964844 C 232.546875 1087.199219 256.25 1122.164062 286.828125 1147.15625 C 315.265625 1170.992188 355.351562 1182.441406 389.386719 1198.601562 C 416.074219 1198.105469 440.320312 1188.449219 462.726562 1174.488281 C 431.164062 1154.164062 401.824219 1136.703125 382.761719 1102.910156 C 374.015625 1087.878906 370.046875 1071.003906 368.941406 1053.789062 C 368.339844 1026.636719 368.640625 1000.976562 382.992188 976.765625 C 392.582031 959.507812 407.566406 949.125 423.808594 938.832031 C 425.050781 962.3125 423.324219 985.667969 435.207031 1006.890625 C 454.53125 1041.734375 493.132812 1063.101562 531.300781 1070.3125 C 569.488281 1077.113281 604.984375 1067.820312 640.796875 1055.226562 C 673.59375 1043.324219 707.625 1035.566406 740.609375 1024.0625 C 768.628906 1014.46875 795.484375 1004.097656 824.886719 999.128906 C 903.945312 983.601562 993.773438 1001.304688 1073.585938 1007.890625 C 1100.34375 1009.929688 1125.34375 1004.207031 1151.414062 999.476562 C 1157.414062 985.730469 1160.210938 971.808594 1153.957031 957.621094 C 1141.289062 928.078125 1109.4375 907.46875 1081.152344 894.90625 C 1018.179688 869.644531 946.84375 864.269531 881.53125 883.921875 C 851.136719 892.410156 819.597656 903.828125 787.601562 901.023438 C 775.007812 899.703125 760.082031 899.640625 749.175781 892.867188 C 732.132812 882.796875 716.800781 870.046875 699.972656 859.601562 C 637.535156 820.351562 569.417969 792.597656 494.851562 791.207031 C 537.722656 775.859375 583.769531 774.949219 627.882812 785.425781 C 685.789062 796.871094 737.648438 824.753906 781.511719 863.828125 C 828.113281 825.183594 885.367188 797.988281 937.78125 767.605469 C 1003.40625 729.539062 1072.847656 700.828125 1142.144531 670.441406 C 1182.183594 655.140625 1220.953125 637.296875 1258.625 616.878906 C 1273.53125 608.546875 1289.898438 596.328125 1295.414062 579.449219 C 1299.058594 566.324219 1295.167969 554.902344 1290.414062 542.734375 C 1249.847656 530.136719 1209.855469 535.246094 1169.367188 544.40625 C 1093.265625 562.550781 1020.433594 591.265625 955.347656 635.039062 Z M 539.640625 738.46875 C 527.664062 740.441406 515.699219 741.691406 503.644531 742.90625 C 499.949219 706.300781 493.835938 670.449219 480.960938 635.863281 C 472.992188 614.035156 461.980469 594.605469 452.363281 573.558594 C 474.789062 588.519531 493.300781 606.433594 508.226562 628.902344 C 530.367188 662.339844 547.390625 697.207031 539.640625 738.46875 Z M 539.640625 738.46875 " fill-opacity="1" fill-rule="nonzero"/></g></g></g></g><g clip-path="url(#981ea1345a)"><g clip-path="url(#d05e7981db)"><g clip-path="url(#fd3ea25c7f)"><g clip-path="url(#1d844102fb)"><path fill="#ffffff" d="M 1122.867188 283.242188 C 1079.9375 288.398438 1039.875 319.945312 1006.03125 344.878906 C 935.105469 398.511719 867.226562 457.613281 808.082031 524.136719 C 786.789062 548.496094 766.789062 573.582031 752.347656 602.808594 C 778.46875 620.714844 803.753906 623.609375 834.371094 620.484375 C 847.210938 613.164062 860 605.609375 872.285156 597.414062 C 893.910156 583.105469 912.015625 564.625 933.195312 549.441406 C 986.914062 511.664062 1036.925781 465.933594 1086.300781 422.214844 C 1120.511719 390.363281 1156.324219 359.585938 1169.628906 312.976562 C 1155.96875 298.570312 1145.871094 280.015625 1122.867188 283.242188 Z M 1122.867188 283.242188 " fill-opacity="1" fill-rule="nonzero"/></g></g></g></g><g clip-path="url(#0b72c4e393)"><g clip-path="url(#4bbf95af71)"><g clip-path="url(#ed68a61ae4)"><g clip-path="url(#7a0f745df6)"><path fill="#ffffff" d="M 755.738281 200.824219 C 718.207031 234.640625 688.121094 273.640625 658.664062 314.378906 C 627.578125 358.09375 600.148438 404.945312 578.976562 454.261719 C 575.988281 463.09375 569.34375 475.355469 575.6875 484.0625 C 586.421875 501.074219 607.484375 503.5 625.695312 500.386719 C 654.273438 495.054688 681.234375 474.359375 703.597656 456.730469 C 755.042969 377.980469 808.425781 300.613281 866.195312 226.390625 C 881.078125 204.96875 900.84375 179.828125 891.226562 152.210938 C 869.332031 148.480469 848.398438 143.296875 826.671875 150.683594 C 800.078125 159.765625 776.402344 182.335938 755.738281 200.824219 Z M 755.738281 200.824219 " fill-opacity="1" fill-rule="nonzero"/></g></g></g></g><g clip-path="url(#401727ed51)"><g clip-path="url(#8d841369e6)"><g clip-path="url(#4070f09385)"><g clip-path="url(#e456b3a5d6)"><path fill="#ffffff" d="M 370.84375 354.515625 C 363.054688 377.210938 353.035156 400.011719 348.527344 423.644531 C 344.773438 433.855469 357.894531 440.675781 365.128906 445.035156 C 389.988281 456.753906 422.875 449.21875 446.191406 436.960938 C 483.796875 416.933594 504.601562 382.875 520.8125 344.746094 C 539.164062 300.847656 557.019531 256.777344 573.8125 212.289062 C 581.675781 189.886719 593.351562 160.789062 587 136.96875 C 583.414062 122.871094 572.929688 115.507812 560.683594 109.179688 C 534.925781 122.125 509.96875 134.796875 489.226562 155.335938 C 430.085938 209.304688 398.695312 281.019531 370.84375 354.515625 Z M 370.84375 354.515625 " fill-opacity="1" fill-rule="nonzero"/></g></g></g></g></svg>