<svg xmlns="http://www.w3.org/2000/svg" xmlns:xlink="http://www.w3.org/1999/xlink" width="1920" zoomAndPan="magnify" viewBox="0 0 1440 1439.999935" height="1920" preserveAspectRatio="xMidYMid meet" version="1.0"><defs><clipPath id="71b86cc159"><path d="M 853 391 L 1389 391 L 1389 850 L 853 850 Z M 853 391 " clip-rule="nonzero"/></clipPath><clipPath id="0318ee6680"><path d="M 780.644531 536.378906 L 1222.019531 271.992188 L 1458.65625 667.042969 L 1017.285156 931.429688 Z M 780.644531 536.378906 " clip-rule="nonzero"/></clipPath><clipPath id="3f78af709b"><path d="M 780.644531 536.378906 L 1222.019531 271.992188 L 1458.65625 667.042969 L 1017.285156 931.429688 Z M 780.644531 536.378906 " clip-rule="nonzero"/></clipPath><clipPath id="e1386bab3a"><path d="M 780.644531 536.378906 L 1222.019531 271.992188 L 1458.65625 667.042969 L 1017.285156 931.429688 Z M 780.644531 536.378906 " clip-rule="nonzero"/></clipPath><clipPath id="8359630c9a"><path d="M 875 465 L 1011 465 L 1011 574 L 875 574 Z M 875 465 " clip-rule="nonzero"/></clipPath><clipPath id="b8e502792c"><path d="M 780.644531 536.378906 L 1222.019531 271.992188 L 1458.65625 667.042969 L 1017.285156 931.429688 Z M 780.644531 536.378906 " clip-rule="nonzero"/></clipPath><clipPath id="eb986091b5"><path d="M 780.644531 536.378906 L 1222.019531 271.992188 L 1458.65625 667.042969 L 1017.285156 931.429688 Z M 780.644531 536.378906 " clip-rule="nonzero"/></clipPath><clipPath id="3fdf92fd3b"><path d="M 780.644531 536.378906 L 1222.019531 271.992188 L 1458.65625 667.042969 L 1017.285156 931.429688 Z M 780.644531 536.378906 " clip-rule="nonzero"/></clipPath><clipPath id="ef63b6fd8d"><path d="M 880 574 L 1059 574 L 1059 707 L 880 707 Z M 880 574 " clip-rule="nonzero"/></clipPath><clipPath id="231177ab4f"><path d="M 780.644531 536.378906 L 1222.019531 271.992188 L 1458.65625 667.042969 L 1017.285156 931.429688 Z M 780.644531 536.378906 " clip-rule="nonzero"/></clipPath><clipPath id="91c684516b"><path d="M 780.644531 536.378906 L 1222.019531 271.992188 L 1458.65625 667.042969 L 1017.285156 931.429688 Z M 780.644531 536.378906 " clip-rule="nonzero"/></clipPath><clipPath id="83973cd591"><path d="M 780.644531 536.378906 L 1222.019531 271.992188 L 1458.65625 667.042969 L 1017.285156 931.429688 Z M 780.644531 536.378906 " clip-rule="nonzero"/></clipPath><clipPath id="f4ef9c6c15"><path d="M 1022 418 L 1364 418 L 1364 794 L 1022 794 Z M 1022 418 " clip-rule="nonzero"/></clipPath><clipPath id="27239f2707"><path d="M 780.644531 536.378906 L 1222.019531 271.992188 L 1458.65625 667.042969 L 1017.285156 931.429688 Z M 780.644531 536.378906 " clip-rule="nonzero"/></clipPath><clipPath id="9c9eff6ede"><path d="M 780.644531 536.378906 L 1222.019531 271.992188 L 1458.65625 667.042969 L 1017.285156 931.429688 Z M 780.644531 536.378906 " clip-rule="nonzero"/></clipPath><clipPath id="0b64d601c3"><path d="M 780.644531 536.378906 L 1222.019531 271.992188 L 1458.65625 667.042969 L 1017.285156 931.429688 Z M 780.644531 536.378906 " clip-rule="nonzero"/></clipPath><clipPath id="3bf9cb62c5"><path d="M 938 659 L 1111 659 L 1111 776 L 938 776 Z M 938 659 " clip-rule="nonzero"/></clipPath><clipPath id="0fc5fcea8d"><path d="M 780.644531 536.378906 L 1222.019531 271.992188 L 1458.65625 667.042969 L 1017.285156 931.429688 Z M 780.644531 536.378906 " clip-rule="nonzero"/></clipPath><clipPath id="1013b63586"><path d="M 780.644531 536.378906 L 1222.019531 271.992188 L 1458.65625 667.042969 L 1017.285156 931.429688 Z M 780.644531 536.378906 " clip-rule="nonzero"/></clipPath><clipPath id="381785561c"><path d="M 780.644531 536.378906 L 1222.019531 271.992188 L 1458.65625 667.042969 L 1017.285156 931.429688 Z M 780.644531 536.378906 " clip-rule="nonzero"/></clipPath><clipPath id="6a34647e79"><path d="M 1027 705 L 1159 705 L 1159 827 L 1027 827 Z M 1027 705 " clip-rule="nonzero"/></clipPath><clipPath id="b4d719239b"><path d="M 780.644531 536.378906 L 1222.019531 271.992188 L 1458.65625 667.042969 L 1017.285156 931.429688 Z M 780.644531 536.378906 " clip-rule="nonzero"/></clipPath><clipPath id="ce78a6d9a9"><path d="M 780.644531 536.378906 L 1222.019531 271.992188 L 1458.65625 667.042969 L 1017.285156 931.429688 Z M 780.644531 536.378906 " clip-rule="nonzero"/></clipPath><clipPath id="6ae98afe91"><path d="M 780.644531 536.378906 L 1222.019531 271.992188 L 1458.65625 667.042969 L 1017.285156 931.429688 Z M 780.644531 536.378906 " clip-rule="nonzero"/></clipPath><clipPath id="4219abd2c7"><path d="M 876 465 L 1003 465 L 1003 542 L 876 542 Z M 876 465 " clip-rule="nonzero"/></clipPath><clipPath id="8e598ddd91"><path d="M 780.644531 536.378906 L 1222.019531 271.992188 L 1458.65625 667.042969 L 1017.285156 931.429688 Z M 780.644531 536.378906 " clip-rule="nonzero"/></clipPath><clipPath id="660bdc2b31"><path d="M 780.644531 536.378906 L 1222.019531 271.992188 L 1458.65625 667.042969 L 1017.285156 931.429688 Z M 780.644531 536.378906 " clip-rule="nonzero"/></clipPath><clipPath id="664c516df5"><path d="M 780.644531 536.378906 L 1222.019531 271.992188 L 1458.65625 667.042969 L 1017.285156 931.429688 Z M 780.644531 536.378906 " clip-rule="nonzero"/></clipPath><clipPath id="54858eb3e6"><path d="M 1022 418 L 1268 418 L 1268 621 L 1022 621 Z M 1022 418 " clip-rule="nonzero"/></clipPath><clipPath id="2ac89da3ee"><path d="M 780.644531 536.378906 L 1222.019531 271.992188 L 1458.65625 667.042969 L 1017.285156 931.429688 Z M 780.644531 536.378906 " clip-rule="nonzero"/></clipPath><clipPath id="34eaf1ad7a"><path d="M 780.644531 536.378906 L 1222.019531 271.992188 L 1458.65625 667.042969 L 1017.285156 931.429688 Z M 780.644531 536.378906 " clip-rule="nonzero"/></clipPath><clipPath id="d29ffc0b0c"><path d="M 780.644531 536.378906 L 1222.019531 271.992188 L 1458.65625 667.042969 L 1017.285156 931.429688 Z M 780.644531 536.378906 " clip-rule="nonzero"/></clipPath><clipPath id="29fbae2201"><path d="M 880 574 L 1033 574 L 1033 670 L 880 670 Z M 880 574 " clip-rule="nonzero"/></clipPath><clipPath id="910dd3db97"><path d="M 780.644531 536.378906 L 1222.019531 271.992188 L 1458.65625 667.042969 L 1017.285156 931.429688 Z M 780.644531 536.378906 " clip-rule="nonzero"/></clipPath><clipPath id="bc17568792"><path d="M 780.644531 536.378906 L 1222.019531 271.992188 L 1458.65625 667.042969 L 1017.285156 931.429688 Z M 780.644531 536.378906 " clip-rule="nonzero"/></clipPath><clipPath id="6774ea64ac"><path d="M 780.644531 536.378906 L 1222.019531 271.992188 L 1458.65625 667.042969 L 1017.285156 931.429688 Z M 780.644531 536.378906 " clip-rule="nonzero"/></clipPath><clipPath id="dcd7e339ca"><path d="M 1138 467 L 1359 467 L 1359 705 L 1138 705 Z M 1138 467 " clip-rule="nonzero"/></clipPath><clipPath id="11b15f8e19"><path d="M 780.644531 536.378906 L 1222.019531 271.992188 L 1458.65625 667.042969 L 1017.285156 931.429688 Z M 780.644531 536.378906 " clip-rule="nonzero"/></clipPath><clipPath id="05383febde"><path d="M 780.644531 536.378906 L 1222.019531 271.992188 L 1458.65625 667.042969 L 1017.285156 931.429688 Z M 780.644531 536.378906 " clip-rule="nonzero"/></clipPath><clipPath id="8ca9c772fd"><path d="M 780.644531 536.378906 L 1222.019531 271.992188 L 1458.65625 667.042969 L 1017.285156 931.429688 Z M 780.644531 536.378906 " clip-rule="nonzero"/></clipPath><clipPath id="4a5494e6a4"><path d="M 938 681 L 1068 681 L 1068 757 L 938 757 Z M 938 681 " clip-rule="nonzero"/></clipPath><clipPath id="8f6b994de5"><path d="M 780.644531 536.378906 L 1222.019531 271.992188 L 1458.65625 667.042969 L 1017.285156 931.429688 Z M 780.644531 536.378906 " clip-rule="nonzero"/></clipPath><clipPath id="bcddd0d312"><path d="M 780.644531 536.378906 L 1222.019531 271.992188 L 1458.65625 667.042969 L 1017.285156 931.429688 Z M 780.644531 536.378906 " clip-rule="nonzero"/></clipPath><clipPath id="335891deaf"><path d="M 780.644531 536.378906 L 1222.019531 271.992188 L 1458.65625 667.042969 L 1017.285156 931.429688 Z M 780.644531 536.378906 " clip-rule="nonzero"/></clipPath><clipPath id="5d8d6a1842"><path d="M 1027 749 L 1116 749 L 1116 814 L 1027 814 Z M 1027 749 " clip-rule="nonzero"/></clipPath><clipPath id="0aa2579ddb"><path d="M 780.644531 536.378906 L 1222.019531 271.992188 L 1458.65625 667.042969 L 1017.285156 931.429688 Z M 780.644531 536.378906 " clip-rule="nonzero"/></clipPath><clipPath id="26f8578ab5"><path d="M 780.644531 536.378906 L 1222.019531 271.992188 L 1458.65625 667.042969 L 1017.285156 931.429688 Z M 780.644531 536.378906 " clip-rule="nonzero"/></clipPath><clipPath id="7c42dd78de"><path d="M 780.644531 536.378906 L 1222.019531 271.992188 L 1458.65625 667.042969 L 1017.285156 931.429688 Z M 780.644531 536.378906 " clip-rule="nonzero"/></clipPath><clipPath id="afc962f874"><path d="M 317 784 L 898 784 L 898 1310 L 317 1310 Z M 317 784 " clip-rule="nonzero"/></clipPath><clipPath id="8d06edee8b"><path d="M 967.550781 910.875 L 732.511719 1440.023438 L 276.703125 1237.558594 L 511.746094 708.414062 Z M 967.550781 910.875 " clip-rule="nonzero"/></clipPath><clipPath id="6e16d8ae29"><path d="M 967.550781 910.875 L 732.511719 1440.023438 L 276.703125 1237.558594 L 511.746094 708.414062 Z M 967.550781 910.875 " clip-rule="nonzero"/></clipPath><clipPath id="895ed3ca5e"><path d="M 967.550781 910.875 L 732.511719 1440.023438 L 276.703125 1237.558594 L 511.746094 708.414062 Z M 967.550781 910.875 " clip-rule="nonzero"/></clipPath><clipPath id="910900b3c3"><path d="M 339 803 L 877 803 L 877 1286 L 339 1286 Z M 339 803 " clip-rule="nonzero"/></clipPath><clipPath id="c7361d515d"><path d="M 967.550781 910.875 L 732.511719 1440.023438 L 276.703125 1237.558594 L 511.746094 708.414062 Z M 967.550781 910.875 " clip-rule="nonzero"/></clipPath><clipPath id="79062ef34d"><path d="M 967.550781 910.875 L 732.511719 1440.023438 L 276.703125 1237.558594 L 511.746094 708.414062 Z M 967.550781 910.875 " clip-rule="nonzero"/></clipPath><clipPath id="e01b3bc0a6"><path d="M 967.550781 910.875 L 732.511719 1440.023438 L 276.703125 1237.558594 L 511.746094 708.414062 Z M 967.550781 910.875 " clip-rule="nonzero"/></clipPath><clipPath id="7987506b98"><path d="M 391 978 L 877 978 L 877 1286 L 391 1286 Z M 391 978 " clip-rule="nonzero"/></clipPath><clipPath id="ab1f18eb62"><path d="M 967.550781 910.875 L 732.511719 1440.023438 L 276.703125 1237.558594 L 511.746094 708.414062 Z M 967.550781 910.875 " clip-rule="nonzero"/></clipPath><clipPath id="9922a37364"><path d="M 967.550781 910.875 L 732.511719 1440.023438 L 276.703125 1237.558594 L 511.746094 708.414062 Z M 967.550781 910.875 " clip-rule="nonzero"/></clipPath><clipPath id="91d8aa944d"><path d="M 967.550781 910.875 L 732.511719 1440.023438 L 276.703125 1237.558594 L 511.746094 708.414062 Z M 967.550781 910.875 " clip-rule="nonzero"/></clipPath><clipPath id="c613213dbf"><path d="M 636 881 L 821 881 L 821 1031 L 636 1031 Z M 636 881 " clip-rule="nonzero"/></clipPath><clipPath id="fde393e3a4"><path d="M 967.550781 910.875 L 732.511719 1440.023438 L 276.703125 1237.558594 L 511.746094 708.414062 Z M 967.550781 910.875 " clip-rule="nonzero"/></clipPath><clipPath id="e2a18bb6b3"><path d="M 967.550781 910.875 L 732.511719 1440.023438 L 276.703125 1237.558594 L 511.746094 708.414062 Z M 967.550781 910.875 " clip-rule="nonzero"/></clipPath><clipPath id="48d47f3cc8"><path d="M 967.550781 910.875 L 732.511719 1440.023438 L 276.703125 1237.558594 L 511.746094 708.414062 Z M 967.550781 910.875 " clip-rule="nonzero"/></clipPath><clipPath id="f919897925"><path d="M 557 821 L 699 821 L 699 978 L 557 978 Z M 557 821 " clip-rule="nonzero"/></clipPath><clipPath id="f477d3dd05"><path d="M 967.550781 910.875 L 732.511719 1440.023438 L 276.703125 1237.558594 L 511.746094 708.414062 Z M 967.550781 910.875 " clip-rule="nonzero"/></clipPath><clipPath id="fc3d279c9f"><path d="M 967.550781 910.875 L 732.511719 1440.023438 L 276.703125 1237.558594 L 511.746094 708.414062 Z M 967.550781 910.875 " clip-rule="nonzero"/></clipPath><clipPath id="06a929e82a"><path d="M 967.550781 910.875 L 732.511719 1440.023438 L 276.703125 1237.558594 L 511.746094 708.414062 Z M 967.550781 910.875 " clip-rule="nonzero"/></clipPath><clipPath id="6cf79e14d5"><path d="M 458 804 L 565 804 L 565 956 L 458 956 Z M 458 804 " clip-rule="nonzero"/></clipPath><clipPath id="e973d3e9c4"><path d="M 967.550781 910.875 L 732.511719 1440.023438 L 276.703125 1237.558594 L 511.746094 708.414062 Z M 967.550781 910.875 " clip-rule="nonzero"/></clipPath><clipPath id="53498e3946"><path d="M 967.550781 910.875 L 732.511719 1440.023438 L 276.703125 1237.558594 L 511.746094 708.414062 Z M 967.550781 910.875 " clip-rule="nonzero"/></clipPath><clipPath id="e73258101b"><path d="M 967.550781 910.875 L 732.511719 1440.023438 L 276.703125 1237.558594 L 511.746094 708.414062 Z M 967.550781 910.875 " clip-rule="nonzero"/></clipPath><clipPath id="0d1a02a155"><path d="M 64 195 L 745 195 L 745 692 L 64 692 Z M 64 195 " clip-rule="nonzero"/></clipPath><clipPath id="b814af4bf4"><path d="M 437.941406 18.070312 L 817.382812 572.695312 L 379.132812 872.523438 L -0.308594 317.898438 Z M 437.941406 18.070312 " clip-rule="nonzero"/></clipPath><clipPath id="49c0a25733"><path d="M 817.199219 572.425781 L 437.757812 17.800781 L -0.496094 317.628906 L 378.949219 872.25 Z M 817.199219 572.425781 " clip-rule="nonzero"/></clipPath><clipPath id="3815cf5da9"><path d="M 817.199219 572.425781 L 437.757812 17.800781 L -0.496094 317.628906 L 378.949219 872.25 Z M 817.199219 572.425781 " clip-rule="nonzero"/></clipPath><clipPath id="cf2da3b2f5"><path d="M 283 347 L 722 347 L 722 671 L 283 671 Z M 283 347 " clip-rule="nonzero"/></clipPath><clipPath id="1af5bea1a7"><path d="M 437.941406 18.070312 L 817.382812 572.695312 L 379.132812 872.523438 L -0.308594 317.898438 Z M 437.941406 18.070312 " clip-rule="nonzero"/></clipPath><clipPath id="751d26377f"><path d="M 817.199219 572.425781 L 437.757812 17.800781 L -0.496094 317.628906 L 378.949219 872.25 Z M 817.199219 572.425781 " clip-rule="nonzero"/></clipPath><clipPath id="f5161c6d6f"><path d="M 817.199219 572.425781 L 437.757812 17.800781 L -0.496094 317.628906 L 378.949219 872.25 Z M 817.199219 572.425781 " clip-rule="nonzero"/></clipPath><clipPath id="59233c23f9"><path d="M 87 218 L 446 218 L 446 541 L 87 541 Z M 87 218 " clip-rule="nonzero"/></clipPath><clipPath id="e8d35d820d"><path d="M 437.941406 18.070312 L 817.382812 572.695312 L 379.132812 872.523438 L -0.308594 317.898438 Z M 437.941406 18.070312 " clip-rule="nonzero"/></clipPath><clipPath id="ff92abed5b"><path d="M 817.199219 572.425781 L 437.757812 17.800781 L -0.496094 317.628906 L 378.949219 872.25 Z M 817.199219 572.425781 " clip-rule="nonzero"/></clipPath><clipPath id="b7d5ed7636"><path d="M 817.199219 572.425781 L 437.757812 17.800781 L -0.496094 317.628906 L 378.949219 872.25 Z M 817.199219 572.425781 " clip-rule="nonzero"/></clipPath><clipPath id="404fa196f1"><path d="M 217 483 L 320 483 L 320 608 L 217 608 Z M 217 483 " clip-rule="nonzero"/></clipPath><clipPath id="0704fb8373"><path d="M 437.941406 18.070312 L 817.382812 572.695312 L 379.132812 872.523438 L -0.308594 317.898438 Z M 437.941406 18.070312 " clip-rule="nonzero"/></clipPath><clipPath id="9152b5678b"><path d="M 817.199219 572.425781 L 437.757812 17.800781 L -0.496094 317.628906 L 378.949219 872.25 Z M 817.199219 572.425781 " clip-rule="nonzero"/></clipPath><clipPath id="2340ff61e0"><path d="M 817.199219 572.425781 L 437.757812 17.800781 L -0.496094 317.628906 L 378.949219 872.25 Z M 817.199219 572.425781 " clip-rule="nonzero"/></clipPath><clipPath id="06034cfae7"><path d="M 380 347 L 716 347 L 716 639 L 380 639 Z M 380 347 " clip-rule="nonzero"/></clipPath><clipPath id="ea67bef3e7"><path d="M 437.941406 18.070312 L 817.382812 572.695312 L 379.132812 872.523438 L -0.308594 317.898438 Z M 437.941406 18.070312 " clip-rule="nonzero"/></clipPath><clipPath id="30cd140103"><path d="M 817.199219 572.425781 L 437.757812 17.800781 L -0.496094 317.628906 L 378.949219 872.25 Z M 817.199219 572.425781 " clip-rule="nonzero"/></clipPath><clipPath id="463d40f658"><path d="M 817.199219 572.425781 L 437.757812 17.800781 L -0.496094 317.628906 L 378.949219 872.25 Z M 817.199219 572.425781 " clip-rule="nonzero"/></clipPath><clipPath id="37202e74fb"><path d="M 215 231 L 446 231 L 446 440 L 215 440 Z M 215 231 " clip-rule="nonzero"/></clipPath><clipPath id="cf87c7614f"><path d="M 437.941406 18.070312 L 817.382812 572.695312 L 379.132812 872.523438 L -0.308594 317.898438 Z M 437.941406 18.070312 " clip-rule="nonzero"/></clipPath><clipPath id="b8bed1f4f4"><path d="M 817.199219 572.425781 L 437.757812 17.800781 L -0.496094 317.628906 L 378.949219 872.25 Z M 817.199219 572.425781 " clip-rule="nonzero"/></clipPath><clipPath id="17059778d1"><path d="M 817.199219 572.425781 L 437.757812 17.800781 L -0.496094 317.628906 L 378.949219 872.25 Z M 817.199219 572.425781 " clip-rule="nonzero"/></clipPath><clipPath id="141333c86c"><path d="M 112 218 L 288 218 L 288 459 L 112 459 Z M 112 218 " clip-rule="nonzero"/></clipPath><clipPath id="72ca9c41db"><path d="M 437.941406 18.070312 L 817.382812 572.695312 L 379.132812 872.523438 L -0.308594 317.898438 Z M 437.941406 18.070312 " clip-rule="nonzero"/></clipPath><clipPath id="0108823beb"><path d="M 817.199219 572.425781 L 437.757812 17.800781 L -0.496094 317.628906 L 378.949219 872.25 Z M 817.199219 572.425781 " clip-rule="nonzero"/></clipPath><clipPath id="457863af17"><path d="M 817.199219 572.425781 L 437.757812 17.800781 L -0.496094 317.628906 L 378.949219 872.25 Z M 817.199219 572.425781 " clip-rule="nonzero"/></clipPath><clipPath id="7e9c471ac7"><path d="M 319 493 L 424 493 L 424 593 L 319 593 Z M 319 493 " clip-rule="nonzero"/></clipPath><clipPath id="42b6156551"><path d="M 437.941406 18.070312 L 817.382812 572.695312 L 379.132812 872.523438 L -0.308594 317.898438 Z M 437.941406 18.070312 " clip-rule="nonzero"/></clipPath><clipPath id="01862d8193"><path d="M 817.199219 572.425781 L 437.757812 17.800781 L -0.496094 317.628906 L 378.949219 872.25 Z M 817.199219 572.425781 " clip-rule="nonzero"/></clipPath><clipPath id="b22609b894"><path d="M 817.199219 572.425781 L 437.757812 17.800781 L -0.496094 317.628906 L 378.949219 872.25 Z M 817.199219 572.425781 " clip-rule="nonzero"/></clipPath><clipPath id="a95d325ebe"><path d="M 252 531 L 320 531 L 320 606 L 252 606 Z M 252 531 " clip-rule="nonzero"/></clipPath><clipPath id="e74b5f7b22"><path d="M 437.941406 18.070312 L 817.382812 572.695312 L 379.132812 872.523438 L -0.308594 317.898438 Z M 437.941406 18.070312 " clip-rule="nonzero"/></clipPath><clipPath id="abac1c9b53"><path d="M 817.199219 572.425781 L 437.757812 17.800781 L -0.496094 317.628906 L 378.949219 872.25 Z M 817.199219 572.425781 " clip-rule="nonzero"/></clipPath><clipPath id="5af356269f"><path d="M 817.199219 572.425781 L 437.757812 17.800781 L -0.496094 317.628906 L 378.949219 872.25 Z M 817.199219 572.425781 " clip-rule="nonzero"/></clipPath></defs><g clip-path="url(#71b86cc159)"><g clip-path="url(#0318ee6680)"><g clip-path="url(#3f78af709b)"><g clip-path="url(#e1386bab3a)"><path fill="#232323" d="M 947.742188 780.53125 C 957.246094 789.046875 968.40625 793.859375 981.113281 794.890625 C 989.40625 795.910156 997.890625 794.558594 1006.074219 795.867188 C 1016.792969 816.875 1034.800781 832.414062 1055.628906 842.902344 C 1067.925781 848.953125 1081.710938 850.839844 1095.050781 847.367188 C 1117.890625 841.738281 1135.359375 828.082031 1154.148438 815.78125 C 1177.617188 817.429688 1199.949219 813.96875 1221.183594 803.535156 C 1252.785156 790.140625 1277.421875 763.746094 1288.714844 731.390625 C 1304.816406 734.597656 1320.945312 733.75 1335.503906 725.5625 C 1357.421875 714.386719 1371.109375 694.039062 1379.238281 671.402344 C 1391.523438 636.078125 1390.414062 596.265625 1380.945312 560.417969 C 1371.589844 525.230469 1353.019531 490.507812 1324.847656 466.90625 C 1306.140625 451.050781 1280.984375 440.414062 1256.1875 444.140625 C 1248.835938 444.929688 1241.742188 448.980469 1234.488281 449.085938 C 1213.851562 427.695312 1188.9375 411.234375 1161.285156 400.34375 C 1130.613281 388.464844 1095.292969 388.773438 1064.757812 400.933594 C 1042.078125 409.804688 1024.160156 426.242188 1010.949219 446.386719 C 974.464844 439.570312 938.175781 449.8125 904.777344 464.082031 C 889.167969 471.457031 871.972656 482.40625 863.28125 497.835938 C 852.804688 514.816406 851.332031 537.113281 857.15625 555.9375 C 862.261719 570.875 872.972656 581.066406 886.421875 588.574219 C 878.171875 594.082031 870.40625 598.761719 865.816406 607.980469 C 856.753906 625.242188 858.53125 647.679688 864.464844 665.652344 C 872.707031 689.976562 891.351562 713.976562 915.761719 723.5625 C 921.140625 744.378906 931.449219 766.113281 947.742188 780.53125 Z M 947.742188 780.53125 " fill-opacity="1" fill-rule="nonzero"/></g></g></g></g><g clip-path="url(#8359630c9a)"><g clip-path="url(#b8e502792c)"><g clip-path="url(#eb986091b5)"><g clip-path="url(#3fdf92fd3b)"><path fill="#ababab" d="M 925.417969 573.179688 C 953.703125 573.246094 982.128906 569.632812 1010.015625 565.214844 C 1006.667969 553.210938 1003.195312 541.335938 1000.5625 529.15625 C 997.847656 516.519531 996.273438 503.707031 997.117188 490.773438 C 997.578125 482.445312 1000.144531 473.902344 1002.007812 465.695312 C 976.269531 463.941406 952.609375 470.230469 928.207031 477.730469 C 914.4375 481.996094 901.542969 488.621094 890.441406 497.867188 C 882.804688 504.449219 878.628906 513.417969 876.53125 523.117188 C 875.085938 535.652344 875.8125 549.875 884.835938 559.613281 C 895.074219 570.90625 910.996094 572.921875 925.417969 573.179688 Z M 925.417969 573.179688 " fill-opacity="1" fill-rule="nonzero"/></g></g></g></g><g clip-path="url(#ef63b6fd8d)"><g clip-path="url(#231177ab4f)"><g clip-path="url(#91c684516b)"><g clip-path="url(#83973cd591)"><path fill="#ababab" d="M 963.207031 703.839844 C 997.933594 696.316406 1033.449219 682.1875 1058.734375 656.449219 C 1048.625 649.003906 1040.308594 640.257812 1032.628906 630.367188 C 1022.605469 614.054688 1018.140625 593.117188 1012.609375 574.875 C 987.199219 582.246094 961.082031 589.246094 934.769531 592.238281 C 925.179688 593.4375 916.511719 592.359375 907.707031 596.472656 C 898.730469 600.492188 887.785156 606.738281 883.277344 615.910156 C 877.339844 629.097656 880.703125 644.144531 884.464844 657.453125 C 891.070312 672.820312 901.074219 689.28125 915.101562 698.929688 C 929.09375 708.003906 947.519531 707.023438 963.207031 703.839844 Z M 963.207031 703.839844 " fill-opacity="1" fill-rule="nonzero"/></g></g></g></g><g clip-path="url(#f4ef9c6c15)"><g clip-path="url(#27239f2707)"><g clip-path="url(#9c9eff6ede)"><g clip-path="url(#0b64d601c3)"><path fill="#ababab" d="M 1256.421875 468.488281 C 1276.667969 497.007812 1285.65625 532.101562 1278.132812 566.550781 C 1274.363281 553.1875 1272.902344 539.714844 1267.335938 526.835938 C 1254.695312 496.300781 1230.25 470.582031 1203.039062 452.363281 C 1181.644531 438.90625 1158.417969 425.027344 1133.269531 420.484375 C 1111.347656 416.472656 1087.664062 419.132812 1067.554688 428.945312 C 1046.03125 439.835938 1029.429688 459.75 1023.960938 483.390625 C 1018.726562 507.234375 1026.828125 531.699219 1032.921875 554.601562 C 1039.050781 575.730469 1043.339844 598.78125 1052.640625 618.691406 C 1057.175781 627.726562 1063.835938 634.554688 1073.417969 638.050781 C 1084.394531 642.605469 1095.605469 639.304688 1105.34375 633.445312 C 1116.621094 626.578125 1123.605469 615.21875 1128.328125 603.210938 C 1136.269531 582.464844 1138.71875 559.867188 1135.664062 537.886719 C 1133.714844 520.722656 1127.929688 505.261719 1122.867188 488.890625 C 1131.429688 499.269531 1138.4375 510.546875 1142.183594 523.585938 C 1149.480469 548.027344 1160 572.429688 1174.824219 593.265625 C 1184.816406 607.308594 1197.085938 618.40625 1207.960938 631.324219 C 1197.277344 629.335938 1187.453125 628.496094 1178.007812 622.488281 C 1167.535156 616.132812 1160.847656 606.949219 1153.9375 597.105469 C 1150.816406 609.765625 1146.300781 621.566406 1138.488281 632.148438 C 1132.34375 639.476562 1125.117188 645.613281 1117.609375 651.519531 C 1123.765625 663.398438 1127.785156 674.917969 1128.601562 688.351562 C 1143.578125 695.625 1157.992188 705.828125 1168.578125 718.78125 C 1177.761719 729.917969 1178.695312 745.007812 1178.335938 758.835938 C 1178.035156 771.023438 1174.035156 781.695312 1170.195312 793.0625 C 1193.410156 790.230469 1215.582031 782.683594 1235.066406 769.65625 C 1252.589844 756.898438 1267.800781 738.4375 1274.125 717.449219 C 1279.816406 697.90625 1280.445312 678.492188 1281.152344 658.355469 C 1291.957031 674.648438 1293.449219 692.511719 1293.164062 711.464844 C 1306.371094 710.644531 1318.523438 709.664062 1329.566406 701.410156 C 1348.839844 687.464844 1358.863281 661.714844 1362.152344 638.871094 C 1365.175781 617.316406 1364.328125 595.253906 1358.796875 574.132812 C 1352.59375 541.949219 1336.738281 510.007812 1312.445312 487.699219 C 1297.003906 473.613281 1277.601562 465.039062 1256.421875 468.488281 Z M 1256.421875 468.488281 " fill-opacity="1" fill-rule="nonzero"/></g></g></g></g><g clip-path="url(#3bf9cb62c5)"><g clip-path="url(#0fc5fcea8d)"><g clip-path="url(#1013b63586)"><g clip-path="url(#381785561c)"><path fill="#ababab" d="M 1063.648438 681.160156 C 1036 705.261719 1000.742188 719.066406 965.007812 725.757812 C 956.332031 727.394531 947.582031 727.269531 938.863281 728.367188 C 941.070312 737.523438 945.617188 745.394531 950.875 753.089844 C 958.074219 762.421875 965.503906 771.191406 977.519531 773.851562 C 992.601562 777.105469 1009.367188 774.914062 1024.125 771.019531 C 1042.292969 766.125 1060.464844 760.011719 1077.265625 751.472656 C 1091.039062 744.664062 1096.824219 730.125 1102.648438 716.890625 C 1106.574219 707.222656 1111.234375 695.902344 1110.816406 685.304688 C 1110.484375 675.789062 1105.214844 667.558594 1100.78125 659.453125 C 1093.539062 661.222656 1085.847656 661.960938 1078.84375 664.460938 C 1073.402344 669.667969 1068.960938 675.832031 1063.648438 681.160156 Z M 1063.648438 681.160156 " fill-opacity="1" fill-rule="nonzero"/></g></g></g></g><g clip-path="url(#6a34647e79)"><g clip-path="url(#b4d719239b)"><g clip-path="url(#ce78a6d9a9)"><g clip-path="url(#6ae98afe91)"><path fill="#ababab" d="M 1067.949219 777.082031 C 1054.890625 783.011719 1041.226562 786.507812 1027.703125 791.046875 C 1034.308594 799.578125 1041.832031 806.710938 1050.519531 813.058594 C 1060.714844 820.648438 1072.738281 828.929688 1086.152344 826.570312 C 1100.066406 824.054688 1113.523438 815.625 1125.410156 808.222656 C 1142.617188 796.957031 1155.503906 779.800781 1157.773438 758.980469 C 1158.695312 749.390625 1159.234375 736.949219 1152.828125 729.035156 C 1145.582031 719.675781 1135.316406 712.152344 1125.460938 705.742188 C 1118.878906 720.644531 1114.214844 735.585938 1105.609375 749.75 C 1096.519531 764.089844 1082.765625 770.128906 1067.949219 777.082031 Z M 1067.949219 777.082031 " fill-opacity="1" fill-rule="nonzero"/></g></g></g></g><g clip-path="url(#4219abd2c7)"><g clip-path="url(#8e598ddd91)"><g clip-path="url(#660bdc2b31)"><g clip-path="url(#664c516df5)"><path fill="#ffffff" d="M 1000.5625 529.15625 C 997.847656 516.519531 996.273438 503.707031 997.117188 490.773438 C 997.578125 482.445312 1000.144531 473.902344 1002.007812 465.695312 C 976.269531 463.941406 952.609375 470.230469 928.207031 477.730469 C 914.4375 481.996094 901.542969 488.621094 890.441406 497.867188 C 882.804688 504.445312 878.628906 513.417969 876.53125 523.117188 C 882.324219 529.394531 886.667969 535.605469 895.40625 537.742188 C 931.675781 545.902344 965.503906 539 1000.5625 529.15625 Z M 1000.5625 529.15625 " fill-opacity="1" fill-rule="nonzero"/></g></g></g></g><g clip-path="url(#54858eb3e6)"><g clip-path="url(#2ac89da3ee)"><g clip-path="url(#34eaf1ad7a)"><g clip-path="url(#d29ffc0b0c)"><path fill="#ffffff" d="M 1052.640625 618.691406 C 1062.507812 620.265625 1072.785156 623.035156 1082.332031 618.558594 C 1095.722656 612.148438 1102.753906 599.179688 1105.953125 585.230469 C 1109.941406 566.996094 1109.890625 547.675781 1107.90625 529.175781 C 1106.351562 514.175781 1101.980469 500.042969 1099.109375 485.351562 C 1108.972656 478.710938 1119.453125 475.597656 1130.09375 482.46875 C 1157.203125 500.523438 1170.871094 539.085938 1197.816406 557.660156 C 1209.652344 565.964844 1223.886719 570.347656 1238.125 565.96875 C 1255.300781 560.878906 1267.011719 544.542969 1267.335938 526.835938 C 1254.695312 496.300781 1230.25 470.582031 1203.039062 452.363281 C 1181.644531 438.90625 1158.417969 425.027344 1133.269531 420.484375 C 1111.347656 416.472656 1087.664062 419.132812 1067.554688 428.945312 C 1046.03125 439.835938 1029.429688 459.75 1023.960938 483.390625 C 1018.726562 507.234375 1026.828125 531.699219 1032.921875 554.601562 C 1039.050781 575.730469 1043.339844 598.78125 1052.640625 618.691406 Z M 1052.640625 618.691406 " fill-opacity="1" fill-rule="nonzero"/></g></g></g></g><g clip-path="url(#29fbae2201)"><g clip-path="url(#910dd3db97)"><g clip-path="url(#bc17568792)"><g clip-path="url(#6774ea64ac)"><path fill="#ffffff" d="M 925.964844 669.488281 C 964.695312 664.589844 999.105469 649.796875 1032.628906 630.367188 C 1022.605469 614.054688 1018.140625 593.117188 1012.609375 574.875 C 987.199219 582.246094 961.082031 589.246094 934.769531 592.238281 C 925.179688 593.4375 916.511719 592.359375 907.707031 596.472656 C 898.730469 600.492188 887.785156 606.738281 883.277344 615.910156 C 877.339844 629.097656 880.703125 644.144531 884.464844 657.453125 C 897.457031 667.917969 909.46875 671.089844 925.964844 669.488281 Z M 925.964844 669.488281 " fill-opacity="1" fill-rule="nonzero"/></g></g></g></g><g clip-path="url(#dcd7e339ca)"><g clip-path="url(#11b15f8e19)"><g clip-path="url(#05383febde)"><g clip-path="url(#8ca9c772fd)"><path fill="#ffffff" d="M 1244.917969 626.585938 C 1233.480469 633.945312 1220.847656 634.027344 1207.960938 631.324219 C 1197.277344 629.335938 1187.453125 628.496094 1178.007812 622.488281 C 1167.535156 616.132812 1160.847656 606.949219 1153.9375 597.105469 C 1150.816406 609.765625 1146.300781 621.566406 1138.488281 632.148438 C 1140.96875 649.871094 1142.886719 666.179688 1154.675781 680.671875 C 1174.660156 707.625 1215.882812 711.601562 1243.039062 693.613281 C 1262.179688 681.949219 1272.972656 662.714844 1276.089844 640.851562 C 1285.878906 647.8125 1295.082031 654.921875 1307.707031 654.875 C 1323.4375 654.632812 1335.863281 643.546875 1343.589844 630.699219 C 1354.378906 613.304688 1355.792969 593.925781 1358.796875 574.132812 C 1352.59375 541.949219 1336.738281 510.007812 1312.441406 487.699219 C 1297.003906 473.613281 1277.601562 465.039062 1256.421875 468.488281 C 1276.667969 497.007812 1285.65625 532.101562 1278.132812 566.550781 C 1274.304688 589.070312 1265.339844 614.042969 1244.917969 626.585938 Z M 1244.917969 626.585938 " fill-opacity="1" fill-rule="nonzero"/></g></g></g></g><g clip-path="url(#4a5494e6a4)"><g clip-path="url(#8f6b994de5)"><g clip-path="url(#bcddd0d312)"><g clip-path="url(#335891deaf)"><path fill="#ffffff" d="M 1065.097656 712.71875 C 1069.582031 701.8125 1066.722656 691.945312 1063.648438 681.160156 C 1036 705.261719 1000.742188 719.066406 965.007812 725.757812 C 956.332031 727.394531 947.582031 727.269531 938.863281 728.367188 C 941.070312 737.523438 945.617188 745.394531 950.875 753.089844 C 979.488281 759.875 1009.363281 757.601562 1035.121094 742.652344 C 1046.742188 735.691406 1059.660156 725.523438 1065.097656 712.71875 Z M 1065.097656 712.71875 " fill-opacity="1" fill-rule="nonzero"/></g></g></g></g><g clip-path="url(#5d8d6a1842)"><g clip-path="url(#0aa2579ddb)"><g clip-path="url(#26f8578ab5)"><g clip-path="url(#7c42dd78de)"><path fill="#ffffff" d="M 1091.878906 799.441406 C 1102.511719 792.535156 1114.378906 781.21875 1115.261719 767.75 C 1115.894531 760.082031 1110.003906 755.195312 1105.609375 749.75 C 1096.519531 764.089844 1082.765625 770.128906 1067.949219 777.082031 C 1054.890625 783.011719 1041.226562 786.507812 1027.703125 791.046875 C 1034.308594 799.578125 1041.832031 806.710938 1050.519531 813.058594 C 1065.265625 810.46875 1079.15625 808.050781 1091.878906 799.441406 Z M 1091.878906 799.441406 " fill-opacity="1" fill-rule="nonzero"/></g></g></g></g><g clip-path="url(#afc962f874)"><g clip-path="url(#8d06edee8b)"><g clip-path="url(#6e16d8ae29)"><g clip-path="url(#895ed3ca5e)"><path fill="#232323" d="M 716.152344 849.285156 C 723.425781 834.207031 720.867188 816.277344 709.867188 803.742188 C 698.980469 791.578125 682.824219 787.25 666.964844 788.453125 C 646.976562 789.796875 629.09375 799.839844 614.25 812.773438 C 595.621094 829.425781 580.363281 849.339844 566.300781 869.878906 C 572.34375 854.667969 581.53125 837.707031 581.746094 821.195312 C 582.105469 808.535156 575.847656 796.246094 564.882812 789.742188 C 551.1875 781.316406 532.023438 783.28125 517.941406 789.796875 C 498.433594 798.796875 481.9375 816.074219 469.117188 832.984375 C 453.914062 852.417969 444.601562 876.492188 436.449219 899.65625 C 430.722656 915.234375 430.019531 931.304688 422.753906 946.363281 C 409.960938 978.789062 384.453125 999.644531 371.429688 1031.601562 C 363.257812 1052.53125 361.988281 1074.683594 364.992188 1096.785156 C 347.59375 1101.96875 332.964844 1114.054688 325.164062 1130.53125 C 316.371094 1148.261719 315.894531 1168.472656 320.175781 1187.488281 C 326.660156 1214.535156 341.417969 1238 360.65625 1257.847656 C 381.855469 1279.484375 408.183594 1295.886719 437.375 1304.238281 C 461.078125 1310.722656 486.8125 1311.496094 509.492188 1300.9375 C 519.113281 1296.757812 526.863281 1290.070312 533.617188 1282.160156 C 550.054688 1284.980469 566.363281 1283.335938 582.621094 1280.105469 C 602.082031 1275.859375 618.394531 1266.703125 636.726562 1259.570312 C 657.195312 1251.617188 677.90625 1243.679688 699.953125 1241.894531 C 723.117188 1237.4375 746.195312 1238.292969 769.558594 1236.746094 C 785.007812 1235.019531 802.773438 1233.972656 816.09375 1225.347656 C 829.507812 1216.765625 838.359375 1201.652344 837.773438 1185.542969 C 837.386719 1169.910156 827.617188 1156.105469 815.898438 1146.492188 C 797.152344 1131.273438 772.878906 1124.164062 749.195312 1121.570312 C 737.4375 1120 725.839844 1120.867188 714.070312 1121.660156 C 736.96875 1108.488281 760.289062 1096.175781 784.730469 1086.152344 C 816.039062 1071.6875 846.007812 1062.050781 875.140625 1044 C 888.980469 1035.03125 898.964844 1020.675781 897.421875 1003.566406 C 896.253906 990.574219 888.46875 978.871094 877.175781 972.429688 C 860.371094 962.78125 840.921875 961.308594 822.101562 964.160156 C 799.953125 967.210938 780.078125 975.335938 759.378906 983.1875 C 780.0625 966.367188 805.566406 950.796875 823.414062 930.835938 C 834.910156 918.046875 843.574219 900.761719 842.308594 883.179688 C 841.035156 868.09375 830.230469 856.058594 816.285156 850.988281 C 797.339844 843.882812 776.160156 848.007812 758.367188 856.460938 C 717.085938 875.015625 682.050781 909.300781 648.519531 939.066406 C 660.511719 921.996094 673.425781 905.496094 686.605469 889.320312 C 696.78125 876.65625 708.847656 863.820312 716.152344 849.285156 Z M 716.152344 849.285156 " fill-opacity="1" fill-rule="nonzero"/></g></g></g></g><g clip-path="url(#910900b3c3)"><g clip-path="url(#c7361d515d)"><g clip-path="url(#79062ef34d)"><g clip-path="url(#e01b3bc0a6)"><path fill="#ababab" d="M 538.519531 933.460938 C 532.160156 942.398438 527.9375 951.433594 519.546875 958.066406 C 521.453125 941.203125 528.484375 924.546875 534.339844 908.726562 C 542.433594 889.371094 550.304688 869.941406 557.707031 850.328125 C 561.175781 840.449219 566.324219 827.621094 563.519531 817.117188 C 561.941406 810.902344 557.316406 807.65625 551.914062 804.863281 C 538.820312 801.964844 526.558594 805.984375 516.050781 813.8125 C 493.101562 830.976562 475.289062 855.871094 464.011719 882.035156 C 455.445312 900.488281 448.488281 919.566406 442.039062 938.847656 C 436.488281 952.945312 432.707031 967.046875 425.269531 979.753906 C 412.820312 1002.871094 394.183594 1022.894531 387.578125 1048.835938 C 383.679688 1065.527344 382.738281 1084.40625 388.199219 1100.867188 C 394.480469 1117.96875 405.972656 1133.273438 420.722656 1144.03125 C 430.8125 1151.679688 442.09375 1156.027344 452.742188 1162.824219 C 436.976562 1165.835938 419.453125 1160.234375 405.957031 1152.289062 C 390.691406 1143.210938 379.796875 1129.871094 370.597656 1114.941406 C 360.261719 1121.449219 350.867188 1128.070312 345.398438 1139.449219 C 336.339844 1158.441406 339.734375 1180.441406 347.605469 1199.191406 C 359.667969 1227.636719 382.914062 1251.699219 409.273438 1267.359375 C 429.832031 1279.015625 452.464844 1287.230469 476.417969 1285.191406 C 488.183594 1284.972656 498.875 1280.71875 508.753906 1274.5625 C 494.835938 1265.601562 481.898438 1257.898438 473.492188 1243 C 469.632812 1236.371094 467.882812 1228.933594 467.394531 1221.339844 C 485.242188 1238.894531 503.816406 1253.714844 528.695312 1259.828125 C 544.648438 1263.535156 559.910156 1261.402344 575.648438 1257.9375 C 596.648438 1253.023438 615.828125 1241.605469 636.71875 1234.757812 C 659.507812 1226.546875 683.097656 1221.957031 707.097656 1219.132812 C 736.691406 1213.808594 765.195312 1217.1875 794.386719 1210.285156 C 802.183594 1208.351562 807.925781 1204.007812 812.4375 1197.421875 C 815.082031 1191.359375 816.316406 1185.222656 813.558594 1178.96875 C 807.96875 1165.941406 793.925781 1156.855469 781.453125 1151.3125 C 753.683594 1140.171875 722.226562 1137.800781 693.425781 1146.464844 C 680.023438 1150.207031 666.113281 1155.238281 652.003906 1154 C 646.453125 1153.417969 639.871094 1153.390625 635.0625 1150.402344 C 627.546875 1145.960938 620.785156 1140.339844 613.363281 1135.734375 C 585.828125 1118.425781 555.789062 1106.1875 522.910156 1105.570312 C 541.8125 1098.808594 562.117188 1098.40625 581.570312 1103.027344 C 607.105469 1108.078125 629.976562 1120.371094 649.320312 1137.601562 C 669.867188 1120.5625 695.113281 1108.574219 718.226562 1095.179688 C 747.164062 1078.398438 777.78125 1065.742188 808.339844 1052.347656 C 825.996094 1045.601562 843.089844 1037.734375 859.703125 1028.734375 C 866.273438 1025.0625 873.492188 1019.675781 875.925781 1012.234375 C 877.53125 1006.445312 875.816406 1001.410156 873.71875 996.046875 C 862.183594 983.894531 846.386719 980.964844 830.324219 981.4375 C 808.300781 982.402344 785.554688 990.058594 764.941406 997.511719 C 724.925781 1012.699219 689 1034.347656 651.820312 1055.046875 C 650.570312 1052.792969 649.320312 1050.539062 648.082031 1048.265625 C 655.867188 1041.753906 664.144531 1035.894531 672.621094 1030.3125 C 678.28125 1027.082031 683.921875 1023.753906 689.339844 1020.140625 C 698.871094 1013.832031 706.855469 1005.683594 716.195312 998.992188 C 739.882812 982.335938 761.933594 962.175781 783.707031 942.902344 C 798.789062 928.859375 814.582031 915.289062 820.449219 894.738281 C 821.335938 888.449219 822.328125 882.019531 818.152344 876.628906 C 811.335938 867.765625 799.683594 865.808594 789.140625 866.269531 C 772.257812 867.085938 755.011719 876.171875 740.410156 884.160156 C 713.847656 899.582031 689.617188 919.324219 665.984375 938.851562 C 651.902344 950.746094 637.734375 962.460938 624.269531 975.089844 C 615.707031 982.933594 607.953125 991.132812 598.527344 998.019531 C 597.335938 984.304688 608.617188 969.722656 614.949219 958.105469 C 637.632812 923.386719 661.167969 889.277344 686.640625 856.554688 C 693.203125 847.109375 701.917969 836.023438 697.675781 823.847656 C 694.875 818.929688 691.660156 814.582031 686.347656 812.15625 C 674.546875 806.660156 659.65625 808.523438 647.941406 813.429688 C 631.109375 820.492188 616.429688 834.300781 603.84375 847.273438 C 578.257812 873.789062 559.351562 903.109375 538.519531 933.460938 Z M 634.269531 1047.550781 C 641.578125 1057.527344 649.328125 1070.183594 646.015625 1083.070312 C 639.496094 1072.246094 631.695312 1062.441406 622.671875 1053.585938 C 600.125 1031.878906 573.425781 1013.929688 545.574219 999.769531 C 534.28125 994.15625 523.753906 987.800781 511.667969 983.972656 C 508.664062 982.570312 505.71875 981.078125 502.78125 979.519531 C 520.378906 979.367188 538.015625 983.890625 554.378906 990.082031 C 584.957031 1001.9375 613.957031 1021.527344 634.269531 1047.550781 Z M 634.269531 1047.550781 " fill-opacity="1" fill-rule="nonzero"/></g></g></g></g><g clip-path="url(#7987506b98)"><g clip-path="url(#ab1f18eb62)"><g clip-path="url(#9922a37364)"><g clip-path="url(#91d8aa944d)"><path fill="#ffffff" d="M 725.96875 1036.734375 C 712.402344 1045.960938 699.371094 1054.714844 688.21875 1066.941406 C 676.945312 1078.660156 670.136719 1093.371094 658.925781 1105.160156 C 653.707031 1098.292969 650.019531 1090.660156 646.015625 1083.070312 C 639.496094 1072.246094 631.695312 1062.441406 622.671875 1053.585938 C 600.125 1031.878906 573.425781 1013.929688 545.574219 999.769531 C 534.28125 994.15625 523.753906 987.800781 511.667969 983.972656 C 500.753906 980.824219 490.949219 977.34375 479.453125 979.011719 C 458.675781 981.566406 440.457031 997.136719 430.082031 1014.648438 C 421.015625 1031.4375 413.605469 1048.175781 412.84375 1067.523438 C 411.53125 1088.375 416.925781 1109.078125 432.847656 1123.457031 C 450.117188 1138.273438 471.546875 1145.839844 493.445312 1150.648438 C 480.605469 1157.71875 466.910156 1160 452.742188 1162.824219 C 436.976562 1165.835938 419.453125 1160.234375 405.957031 1152.289062 C 400.648438 1158.914062 395.75 1165.234375 393.5 1173.609375 C 389.214844 1189.464844 392.472656 1206.027344 399.585938 1220.535156 C 407.25 1236.066406 417.703125 1251.484375 431.191406 1262.503906 C 443.730469 1273.015625 461.40625 1278.066406 476.417969 1285.191406 C 488.183594 1284.972656 498.875 1280.71875 508.753906 1274.5625 C 494.835938 1265.601562 481.898438 1257.898438 473.492188 1243 C 469.632812 1236.371094 467.882812 1228.933594 467.394531 1221.339844 C 467.128906 1209.371094 467.261719 1198.058594 473.589844 1187.382812 C 477.816406 1179.773438 484.421875 1175.195312 491.585938 1170.660156 C 492.132812 1181.011719 491.375 1191.308594 496.613281 1200.667969 C 505.136719 1216.03125 522.160156 1225.453125 538.992188 1228.632812 C 555.832031 1231.632812 571.484375 1227.535156 587.273438 1221.984375 C 601.738281 1216.738281 616.742188 1213.320312 631.289062 1208.246094 C 643.644531 1204.019531 655.484375 1199.445312 668.449219 1197.257812 C 703.3125 1190.414062 742.921875 1198.222656 778.117188 1201.128906 C 789.917969 1202.03125 800.941406 1199.507812 812.4375 1197.421875 C 815.082031 1191.359375 816.316406 1185.222656 813.558594 1178.96875 C 807.96875 1165.941406 793.925781 1156.855469 781.453125 1151.3125 C 753.683594 1140.171875 722.226562 1137.800781 693.425781 1146.464844 C 680.023438 1150.207031 666.113281 1155.238281 652.003906 1154 C 646.453125 1153.417969 639.871094 1153.390625 635.0625 1150.402344 C 627.546875 1145.960938 620.785156 1140.339844 613.363281 1135.734375 C 585.828125 1118.425781 555.789062 1106.1875 522.910156 1105.570312 C 541.8125 1098.808594 562.117188 1098.40625 581.570312 1103.027344 C 607.105469 1108.078125 629.976562 1120.371094 649.320312 1137.601562 C 669.867188 1120.5625 695.113281 1108.574219 718.226562 1095.179688 C 747.164062 1078.398438 777.78125 1065.742188 808.339844 1052.347656 C 825.996094 1045.601562 843.089844 1037.734375 859.703125 1028.734375 C 866.273438 1025.0625 873.492188 1019.675781 875.925781 1012.234375 C 877.53125 1006.445312 875.816406 1001.410156 873.71875 996.046875 C 855.828125 990.488281 838.195312 992.742188 820.339844 996.777344 C 786.78125 1004.777344 754.667969 1017.433594 725.96875 1036.734375 Z M 542.65625 1082.320312 C 537.375 1083.191406 532.101562 1083.742188 526.785156 1084.277344 C 525.152344 1068.136719 522.457031 1052.328125 516.777344 1037.078125 C 513.265625 1027.457031 508.40625 1018.890625 504.164062 1009.609375 C 514.054688 1016.207031 522.21875 1024.105469 528.800781 1034.011719 C 538.566406 1048.753906 546.074219 1064.128906 542.65625 1082.320312 Z M 542.65625 1082.320312 " fill-opacity="1" fill-rule="nonzero"/></g></g></g></g><g clip-path="url(#c613213dbf)"><g clip-path="url(#fde393e3a4)"><g clip-path="url(#e2a18bb6b3)"><g clip-path="url(#48d47f3cc8)"><path fill="#ffffff" d="M 799.828125 881.628906 C 780.894531 883.902344 763.230469 897.808594 748.308594 908.800781 C 717.035156 932.445312 687.101562 958.5 661.023438 987.832031 C 651.636719 998.570312 642.816406 1009.628906 636.449219 1022.515625 C 647.96875 1030.410156 659.121094 1031.6875 672.621094 1030.3125 C 678.28125 1027.082031 683.921875 1023.753906 689.339844 1020.140625 C 698.875 1013.832031 706.855469 1005.683594 716.195312 998.992188 C 739.882812 982.335938 761.933594 962.175781 783.707031 942.902344 C 798.789062 928.859375 814.582031 915.289062 820.449219 894.738281 C 814.421875 888.386719 809.96875 880.207031 799.828125 881.628906 Z M 799.828125 881.628906 " fill-opacity="1" fill-rule="nonzero"/></g></g></g></g><g clip-path="url(#f919897925)"><g clip-path="url(#f477d3dd05)"><g clip-path="url(#fc3d279c9f)"><g clip-path="url(#06a929e82a)"><path fill="#ffffff" d="M 637.929688 845.277344 C 621.382812 860.1875 608.117188 877.378906 595.128906 895.34375 C 581.421875 914.613281 569.328125 935.269531 559.992188 957.011719 C 558.675781 960.90625 555.746094 966.3125 558.546875 970.152344 C 563.277344 977.652344 572.566406 978.722656 580.597656 977.351562 C 593.199219 975 605.085938 965.878906 614.949219 958.105469 C 637.632812 923.386719 661.167969 889.277344 686.640625 856.554688 C 693.203125 847.109375 701.917969 836.023438 697.675781 823.847656 C 688.019531 822.203125 678.789062 819.917969 669.210938 823.171875 C 657.484375 827.175781 647.042969 837.125 637.929688 845.277344 Z M 637.929688 845.277344 " fill-opacity="1" fill-rule="nonzero"/></g></g></g></g><g clip-path="url(#6cf79e14d5)"><g clip-path="url(#e973d3e9c4)"><g clip-path="url(#53498e3946)"><g clip-path="url(#e73258101b)"><path fill="#ffffff" d="M 468.210938 913.027344 C 464.777344 923.035156 460.359375 933.085938 458.371094 943.507812 C 456.71875 948.007812 462.503906 951.015625 465.695312 952.9375 C 476.65625 958.105469 491.160156 954.785156 501.441406 949.382812 C 518.023438 940.550781 527.195312 925.535156 534.339844 908.726562 C 542.433594 889.371094 550.304688 869.941406 557.707031 850.328125 C 561.175781 840.449219 566.324219 827.621094 563.519531 817.117188 C 561.941406 810.902344 557.316406 807.65625 551.914062 804.863281 C 540.558594 810.570312 529.550781 816.15625 520.40625 825.210938 C 494.328125 849.003906 480.492188 880.625 468.210938 913.027344 Z M 468.210938 913.027344 " fill-opacity="1" fill-rule="nonzero"/></g></g></g></g><g clip-path="url(#0d1a02a155)"><g clip-path="url(#b814af4bf4)"><g clip-path="url(#49c0a25733)"><g clip-path="url(#3815cf5da9)"><path fill="#232323" d="M 592.945312 690.082031 C 574.953125 687.46875 559.425781 679.976562 543.800781 671.085938 C 504.054688 648.351562 467.746094 619.773438 437.476562 585.339844 C 424.644531 602.355469 404.917969 616.019531 383.726562 619.671875 C 366.652344 622.53125 351.128906 615.289062 336.609375 607.25 C 319.554688 621.332031 298.421875 627.382812 276.675781 628.726562 C 263.199219 629.347656 249.871094 625.84375 239.277344 617.253906 C 222.402344 604.058594 211.664062 584.390625 201.011719 566.714844 C 185.910156 560.65625 171.660156 553.371094 159.777344 542.003906 C 146.066406 528.695312 132.867188 512.484375 126.105469 494.449219 C 119.679688 477.433594 116.777344 459.28125 118.628906 441.148438 C 103.777344 437.359375 90.367188 430.613281 81.066406 418.03125 C 66.507812 399.835938 62.609375 376.902344 64.574219 354.230469 C 67.910156 319.078125 84.269531 285.449219 106.542969 258.394531 C 127.445312 233.027344 155.589844 211.191406 187.179688 201.199219 C 208.558594 194.453125 232.105469 193.347656 252.75 203.246094 C 261.746094 207.4375 268.785156 213.910156 275.675781 220.902344 C 297.898438 211.132812 321.789062 207.242188 345.960938 206.847656 C 374.320312 206.25 402.40625 214.578125 425.21875 231.621094 C 446.394531 246.753906 461.679688 269.304688 467.382812 294.75 C 469.535156 304.507812 469.679688 314.007812 469.925781 323.933594 C 481.183594 328.632812 491.328125 334.980469 502.019531 340.753906 C 540.734375 362.144531 582.152344 379.210938 623.789062 393.96875 C 644.546875 401.152344 664.9375 409.222656 685.300781 417.457031 C 702.226562 423.214844 717.609375 431.992188 728.785156 446.257812 C 741.976562 462.417969 747.855469 484.027344 743.335938 504.511719 C 739.160156 524.730469 725.195312 541.660156 706.679688 550.609375 C 695.867188 555.566406 684.097656 560.261719 671.96875 558.714844 C 653.09375 556.261719 634.71875 551.46875 616.90625 544.851562 C 606.457031 541.097656 596.398438 536.332031 585.929688 532.703125 C 608.480469 548.839844 633.734375 561.296875 657.152344 576.148438 C 669.367188 584.347656 679.589844 594.996094 685.027344 608.863281 C 690.765625 621.910156 690.621094 637.070312 684.511719 649.960938 C 677.636719 664.480469 664.785156 676.269531 650.25 682.886719 C 632.296875 690.785156 612.28125 693.164062 592.945312 690.082031 Z M 592.945312 690.082031 " fill-opacity="1" fill-rule="nonzero"/></g></g></g></g><g clip-path="url(#cf2da3b2f5)"><g clip-path="url(#1af5bea1a7)"><g clip-path="url(#751d26377f)"><g clip-path="url(#f5161c6d6f)"><path fill="#ababab" d="M 566.4375 655.878906 C 528.023438 635.535156 492.898438 609.414062 462.34375 578.503906 C 440.703125 558.222656 422.296875 535.09375 401.535156 514.070312 C 409.402344 530.601562 421.042969 541.773438 423.417969 560.898438 C 423.355469 567.984375 421.699219 574.972656 416.992188 580.464844 C 405.65625 590.496094 389.953125 601.238281 374.148438 600.929688 C 360.476562 600.046875 346.804688 591.898438 335.902344 584.074219 C 320.039062 571.792969 305.132812 557.832031 292.492188 542.238281 C 282.734375 530.246094 283.78125 515.273438 284.09375 500.804688 C 284.839844 487.257812 285.363281 473.667969 295.632812 463.453125 C 299.007812 460.394531 304.070312 454.742188 308.871094 454.785156 C 314.804688 458.019531 320.550781 463.296875 327.15625 464.964844 C 335.867188 467.074219 346.199219 465.75 354.957031 466.550781 C 360.566406 466.152344 363.746094 473.964844 366.472656 477.867188 C 372.898438 488.476562 370.4375 498.261719 370.410156 509.816406 C 374.007812 503.722656 376.988281 497.414062 378.3125 490.429688 C 380.574219 479.703125 377.972656 468.808594 375.257812 458.433594 C 376.988281 457.027344 378.71875 455.621094 380.441406 454.25 C 398.960938 439.832031 413.832031 418.949219 429.410156 401.332031 C 443.859375 384.816406 457.113281 367.816406 465.140625 347.152344 C 511.464844 376.785156 561.367188 397.980469 613.019531 416.34375 C 639.929688 425.75 666.898438 435.730469 692.832031 447.640625 C 702.644531 451.96875 710.539062 459.574219 715.851562 468.839844 C 721.21875 478.0625 724.011719 488.191406 720.253906 498.554688 C 711.777344 521.078125 688.820312 535.289062 664.976562 534.460938 C 649.503906 533.785156 633.921875 527.632812 619.46875 522.40625 C 587.257812 509.828125 555.476562 495.289062 525.5625 477.921875 C 499.738281 463.25 475.339844 446.242188 449.527344 431.585938 C 452.328125 424.289062 454.917969 417.082031 455.714844 409.242188 C 440.011719 421.816406 427.855469 439.449219 419.671875 457.699219 C 427.484375 453.90625 433.695312 448.269531 440.042969 442.457031 C 451.96875 452.1875 462.152344 463.585938 473.632812 473.757812 C 515.90625 512.433594 565.824219 545.128906 614.476562 575.246094 C 626.785156 583.136719 641.15625 588.367188 649.667969 600.242188 C 655.394531 607.640625 658 616.394531 658.558594 625.609375 C 660.195312 650.507812 635.113281 671.023438 611.464844 670.558594 C 595.601562 671.175781 580.351562 662.667969 566.4375 655.878906 Z M 566.4375 655.878906 " fill-opacity="1" fill-rule="nonzero"/></g></g></g></g><g clip-path="url(#59233c23f9)"><g clip-path="url(#e8d35d820d)"><g clip-path="url(#ff92abed5b)"><g clip-path="url(#b7d5ed7636)"><path fill="#ababab" d="M 243.773438 224.558594 C 245.878906 225.726562 247.957031 226.9375 250.027344 228.183594 C 222.40625 244.253906 200.90625 269.722656 193.457031 301.171875 C 201.726562 292.292969 208.121094 282.175781 217.441406 274.222656 C 240.964844 252.523438 271.429688 240.28125 302.722656 235.292969 C 328.25 232.054688 354.84375 229.117188 379.847656 236.917969 C 403.804688 244.4375 427.070312 261.25 437.609375 284.523438 C 446.707031 303.097656 448.128906 326.421875 439.628906 345.464844 C 431.945312 363.066406 417.4375 378.84375 405.242188 393.539062 C 392.089844 409.027344 379.453125 426.242188 363.890625 439.136719 C 356.425781 444.082031 348.03125 446.855469 339.035156 445.714844 C 324.269531 444.609375 312.367188 430.007812 308.796875 416.558594 C 303.792969 396.710938 308.5625 373.921875 315.972656 355.230469 C 324.804688 333.265625 339.800781 316.90625 355.3125 299.554688 C 343.851562 304.457031 334.410156 311.414062 326.207031 320.796875 C 308.859375 340.65625 288.765625 357.757812 265.546875 370.371094 C 253.375 376.867188 239.503906 380.476562 227.945312 387.914062 C 237.480469 389.488281 245.539062 392.460938 255.34375 391.386719 C 267.398438 390.269531 277.054688 384.964844 287.414062 379.179688 C 284.742188 391.492188 284.105469 403.742188 287.179688 416.0625 C 289.359375 424.558594 293.058594 432.320312 296.96875 440.101562 C 286.527344 448.160156 279.429688 455.953125 272.734375 467.25 C 254.851562 467.914062 233.957031 471.476562 219.429688 482.441406 C 203.886719 496.542969 196.761719 519.667969 196.148438 540.222656 C 177.507812 530.207031 162.742188 514.953125 151.003906 497.550781 C 140.3125 479.734375 133.988281 457.714844 136.417969 436.855469 C 138.984375 417.042969 146.160156 399.597656 154.085938 381.5 C 138.035156 390.925781 130.085938 405.742188 122.601562 422.011719 C 111.773438 416.328125 101.898438 410.769531 95.675781 399.6875 C 84.496094 380.183594 85.890625 355.621094 91.566406 334.597656 C 98.386719 310.460938 111.230469 287.222656 128.289062 268.8125 C 144.058594 249.730469 164.707031 233.800781 187.828125 224.777344 C 205.683594 218.027344 226.246094 215.359375 243.773438 224.558594 Z M 243.773438 224.558594 " fill-opacity="1" fill-rule="nonzero"/></g></g></g></g><g clip-path="url(#404fa196f1)"><g clip-path="url(#0704fb8373)"><g clip-path="url(#9152b5678b)"><g clip-path="url(#2340ff61e0)"><path fill="#ababab" d="M 270.054688 535.84375 C 272.855469 546.910156 280.480469 555.949219 287.589844 564.59375 C 297.136719 576.035156 308.265625 585.367188 319.277344 595.335938 C 309.699219 599.949219 299.859375 603.574219 289.40625 605.566406 C 278.195312 607.714844 265.511719 609.652344 255.335938 603.050781 C 244.902344 596.070312 236.972656 584.160156 229.988281 573.90625 C 219.015625 557.503906 213.75 537.640625 219.5625 518.324219 C 222.464844 509.101562 226.9375 497.386719 236.089844 492.761719 C 246.046875 487.445312 257.894531 484.972656 269.035156 483.621094 C 268.503906 501.539062 265.886719 518.03125 270.054688 535.84375 Z M 270.054688 535.84375 " fill-opacity="1" fill-rule="nonzero"/></g></g></g></g><g clip-path="url(#06034cfae7)"><g clip-path="url(#ea67bef3e7)"><g clip-path="url(#30cd140103)"><g clip-path="url(#463d40f658)"><path fill="#ffffff" d="M 637.199219 638.503906 C 616.425781 640.789062 594.015625 632.238281 575.984375 622.550781 C 547.066406 606.722656 519.804688 587.066406 494.320312 566.199219 C 466.742188 543.652344 439.925781 519.621094 415.710938 493.472656 C 403.613281 480.613281 393.292969 466.425781 380.441406 454.25 C 398.960938 439.832031 413.832031 418.949219 429.410156 401.332031 C 443.859375 384.816406 457.113281 367.816406 465.140625 347.152344 C 511.464844 376.785156 561.367188 397.980469 613.019531 416.34375 C 639.929688 425.75 666.898438 435.730469 692.832031 447.640625 C 702.644531 451.96875 710.539062 459.574219 715.851562 468.839844 C 715.175781 475.597656 714.957031 485.535156 709.800781 490.535156 C 702.402344 496.789062 691.050781 498.285156 681.640625 498.316406 C 657.667969 498.351562 633.007812 490.289062 610.484375 482.589844 C 577.6875 470.941406 545.910156 456.125 514.425781 441.328125 C 501.726562 435.011719 488.0625 428.464844 477.410156 418.972656 C 467.75 410.050781 462.996094 398.601562 457.59375 386.929688 C 449.449219 395.832031 441.878906 405.117188 435.796875 415.574219 C 426.960938 430.800781 417.988281 444.648438 411.679688 461.058594 C 414.351562 459.976562 417.027344 458.898438 419.671875 457.699219 C 427.484375 453.90625 433.695312 448.269531 440.042969 442.457031 C 451.96875 452.1875 462.152344 463.585938 473.632812 473.757812 C 515.90625 512.433594 565.824219 545.128906 614.476562 575.246094 C 626.785156 583.136719 641.15625 588.367188 649.667969 600.242188 C 655.394531 607.640625 658 616.394531 658.558594 625.609375 C 651.761719 631.285156 646.617188 637.636719 637.199219 638.503906 Z M 637.199219 638.503906 " fill-opacity="1" fill-rule="nonzero"/></g></g></g></g><g clip-path="url(#37202e74fb)"><g clip-path="url(#cf87c7614f)"><g clip-path="url(#b8bed1f4f4)"><g clip-path="url(#17059778d1)"><path fill="#ffffff" d="M 363.890625 439.136719 C 353.457031 435.484375 343.636719 433.050781 338.003906 422.425781 C 329.039062 406.039062 333.835938 387.667969 339.914062 371.246094 C 348.707031 346.953125 363.578125 326.878906 379.617188 306.976562 C 376.339844 301.617188 373.347656 296.675781 367.507812 293.816406 C 359.949219 290.03125 352.089844 291.636719 344.414062 294.085938 C 323.761719 301.003906 304.820312 314.960938 286.101562 323.410156 C 273.078125 329.1875 258.050781 332.976562 243.945312 329.0625 C 231.566406 325.773438 221.292969 316.105469 217.539062 303.804688 C 214.46875 294.007812 216.203125 284.136719 217.441406 274.222656 C 240.964844 252.523438 271.429688 240.28125 302.722656 235.292969 C 328.25 232.054688 354.84375 229.117188 379.851562 236.917969 C 403.804688 244.4375 427.070312 261.25 437.609375 284.523438 C 446.707031 303.097656 448.128906 326.421875 439.628906 345.464844 C 431.945312 363.066406 417.4375 378.84375 405.242188 393.539062 C 392.089844 409.027344 379.453125 426.242188 363.890625 439.136719 Z M 363.890625 439.136719 " fill-opacity="1" fill-rule="nonzero"/></g></g></g></g><g clip-path="url(#141333c86c)"><g clip-path="url(#72ca9c41db)"><g clip-path="url(#0108823beb)"><g clip-path="url(#457863af17)"><path fill="#ffffff" d="M 190.089844 328.324219 C 188.210938 345.449219 191.574219 363.421875 203.707031 376.289062 C 210.195312 383.300781 218.699219 386.527344 227.945312 387.914062 C 237.480469 389.488281 245.539062 392.460938 255.34375 391.386719 C 267.394531 390.269531 277.054688 384.964844 287.414062 379.179688 C 284.742188 391.492188 284.105469 403.742188 287.179688 416.0625 C 280.042969 431.625 269.910156 445.078125 254.136719 452.59375 C 225.984375 467.609375 188.714844 453.804688 173.085938 427.109375 C 161.964844 409.640625 160.597656 389.636719 166.507812 370.089844 C 154.878906 372.355469 143.796875 374.808594 132.660156 369.113281 C 118.945312 362.046875 113.3125 346.433594 112.238281 331.882812 C 110.539062 309.246094 119.1875 288.960938 128.289062 268.8125 C 144.058594 249.730469 164.707031 233.800781 187.828125 224.777344 C 205.683594 218.027344 226.246094 215.359375 243.773438 224.558594 C 245.878906 225.726562 247.957031 226.9375 250.027344 228.183594 C 222.40625 244.253906 200.90625 269.722656 193.457031 301.171875 C 190.847656 309.804688 191.222656 319.394531 190.089844 328.324219 Z M 190.089844 328.324219 " fill-opacity="1" fill-rule="nonzero"/></g></g></g></g><g clip-path="url(#7e9c471ac7)"><g clip-path="url(#42b6156551)"><g clip-path="url(#01862d8193)"><g clip-path="url(#b22609b894)"><path fill="#ffffff" d="M 390.542969 592.207031 C 360.429688 584.160156 333.585938 562.277344 322.476562 532.738281 C 318.890625 523.039062 317.253906 512.371094 322.5 502.929688 C 327.191406 494.175781 339.136719 491.519531 347.8125 495.402344 C 353.171875 498.449219 356.914062 504.851562 360.644531 509.617188 C 369.96875 522.796875 381.679688 534.28125 394.742188 543.761719 C 403.84375 550.378906 413.976562 554.847656 423.417969 560.898438 C 423.355469 567.984375 421.699219 574.972656 416.992188 580.464844 C 410.019531 585.316406 399.71875 595.359375 390.542969 592.207031 Z M 390.542969 592.207031 " fill-opacity="1" fill-rule="nonzero"/></g></g></g></g><g clip-path="url(#a95d325ebe)"><g clip-path="url(#e74b5f7b22)"><g clip-path="url(#abac1c9b53)"><g clip-path="url(#5af356269f)"><path fill="#ffffff" d="M 262.269531 579.53125 C 256.25 570.082031 250.832031 557.457031 253.316406 546.046875 C 254.542969 539.769531 260.179688 535.554688 264.464844 531.238281 C 266.347656 532.777344 268.203125 534.308594 270.054688 535.84375 C 272.855469 546.910156 280.480469 555.949219 287.589844 564.59375 C 297.136719 576.035156 308.265625 585.367188 319.277344 595.335938 C 309.699219 599.949219 299.859375 603.574219 289.40625 605.566406 C 279.007812 598.035156 269.195312 590.628906 262.269531 579.53125 Z M 262.269531 579.53125 " fill-opacity="1" fill-rule="nonzero"/></g></g></g></g></svg>