<svg xmlns="http://www.w3.org/2000/svg" xmlns:xlink="http://www.w3.org/1999/xlink" width="1920" zoomAndPan="magnify" viewBox="0 0 1440 1439.999935" height="1920" preserveAspectRatio="xMidYMid meet" version="1.0"><defs><clipPath id="e78db2565b"><path d="M 24 216 L 1400 216 L 1400 1218 L 24 1218 Z M 24 216 " clip-rule="nonzero"/></clipPath><clipPath id="3b578f03ab"><path d="M 779.300781 -143.058594 L 1545.8125 977.332031 L 660.640625 1582.914062 L -105.867188 462.527344 Z M 779.300781 -143.058594 " clip-rule="nonzero"/></clipPath><clipPath id="0e116e71fc"><path d="M 1545.890625 977.449219 L 779.382812 -142.941406 L -105.785156 462.644531 L 660.722656 1583.03125 Z M 1545.890625 977.449219 " clip-rule="nonzero"/></clipPath><clipPath id="0c6e0395fc"><path d="M 1545.890625 977.449219 L 779.382812 -142.941406 L -105.785156 462.644531 L 660.722656 1583.03125 Z M 1545.890625 977.449219 " clip-rule="nonzero"/></clipPath><clipPath id="5408470024"><path d="M 468 522 L 1354 522 L 1354 1176 L 468 1176 Z M 468 522 " clip-rule="nonzero"/></clipPath><clipPath id="e1aed6e08c"><path d="M 779.300781 -143.058594 L 1545.8125 977.332031 L 660.640625 1582.914062 L -105.867188 462.527344 Z M 779.300781 -143.058594 " clip-rule="nonzero"/></clipPath><clipPath id="fd5c06d472"><path d="M 1545.890625 977.449219 L 779.382812 -142.941406 L -105.785156 462.644531 L 660.722656 1583.03125 Z M 1545.890625 977.449219 " clip-rule="nonzero"/></clipPath><clipPath id="8f165fcb17"><path d="M 1545.890625 977.449219 L 779.382812 -142.941406 L -105.785156 462.644531 L 660.722656 1583.03125 Z M 1545.890625 977.449219 " clip-rule="nonzero"/></clipPath><clipPath id="3f0be13bea"><path d="M 71 262 L 795 262 L 795 913 L 71 913 Z M 71 262 " clip-rule="nonzero"/></clipPath><clipPath id="891709ffcb"><path d="M 779.300781 -143.058594 L 1545.8125 977.332031 L 660.640625 1582.914062 L -105.867188 462.527344 Z M 779.300781 -143.058594 " clip-rule="nonzero"/></clipPath><clipPath id="4a91f673f4"><path d="M 1545.890625 977.449219 L 779.382812 -142.941406 L -105.785156 462.644531 L 660.722656 1583.03125 Z M 1545.890625 977.449219 " clip-rule="nonzero"/></clipPath><clipPath id="90a0329c3e"><path d="M 1545.890625 977.449219 L 779.382812 -142.941406 L -105.785156 462.644531 L 660.722656 1583.03125 Z M 1545.890625 977.449219 " clip-rule="nonzero"/></clipPath><clipPath id="76b38db84d"><path d="M 333 797 L 541 797 L 541 1049 L 333 1049 Z M 333 797 " clip-rule="nonzero"/></clipPath><clipPath id="f93aa9550f"><path d="M 779.300781 -143.058594 L 1545.8125 977.332031 L 660.640625 1582.914062 L -105.867188 462.527344 Z M 779.300781 -143.058594 " clip-rule="nonzero"/></clipPath><clipPath id="8067696689"><path d="M 1545.890625 977.449219 L 779.382812 -142.941406 L -105.785156 462.644531 L 660.722656 1583.03125 Z M 1545.890625 977.449219 " clip-rule="nonzero"/></clipPath><clipPath id="2400d886ee"><path d="M 1545.890625 977.449219 L 779.382812 -142.941406 L -105.785156 462.644531 L 660.722656 1583.03125 Z M 1545.890625 977.449219 " clip-rule="nonzero"/></clipPath><clipPath id="c3b9083d32"><path d="M 663 522 L 1342 522 L 1342 1112 L 663 1112 Z M 663 522 " clip-rule="nonzero"/></clipPath><clipPath id="1137d003aa"><path d="M 779.300781 -143.058594 L 1545.8125 977.332031 L 660.640625 1582.914062 L -105.867188 462.527344 Z M 779.300781 -143.058594 " clip-rule="nonzero"/></clipPath><clipPath id="34fde43af1"><path d="M 1545.890625 977.449219 L 779.382812 -142.941406 L -105.785156 462.644531 L 660.722656 1583.03125 Z M 1545.890625 977.449219 " clip-rule="nonzero"/></clipPath><clipPath id="c6014574d6"><path d="M 1545.890625 977.449219 L 779.382812 -142.941406 L -105.785156 462.644531 L 660.722656 1583.03125 Z M 1545.890625 977.449219 " clip-rule="nonzero"/></clipPath><clipPath id="d81464f379"><path d="M 331 289 L 795 289 L 795 709 L 331 709 Z M 331 289 " clip-rule="nonzero"/></clipPath><clipPath id="b5ee9af2f4"><path d="M 779.300781 -143.058594 L 1545.8125 977.332031 L 660.640625 1582.914062 L -105.867188 462.527344 Z M 779.300781 -143.058594 " clip-rule="nonzero"/></clipPath><clipPath id="753a0a034f"><path d="M 1545.890625 977.449219 L 779.382812 -142.941406 L -105.785156 462.644531 L 660.722656 1583.03125 Z M 1545.890625 977.449219 " clip-rule="nonzero"/></clipPath><clipPath id="d24343b201"><path d="M 1545.890625 977.449219 L 779.382812 -142.941406 L -105.785156 462.644531 L 660.722656 1583.03125 Z M 1545.890625 977.449219 " clip-rule="nonzero"/></clipPath><clipPath id="984b1bbd88"><path d="M 121 262 L 476 262 L 476 748 L 121 748 Z M 121 262 " clip-rule="nonzero"/></clipPath><clipPath id="b9d829181b"><path d="M 779.300781 -143.058594 L 1545.8125 977.332031 L 660.640625 1582.914062 L -105.867188 462.527344 Z M 779.300781 -143.058594 " clip-rule="nonzero"/></clipPath><clipPath id="03f4ab539c"><path d="M 1545.890625 977.449219 L 779.382812 -142.941406 L -105.785156 462.644531 L 660.722656 1583.03125 Z M 1545.890625 977.449219 " clip-rule="nonzero"/></clipPath><clipPath id="c12510bac9"><path d="M 1545.890625 977.449219 L 779.382812 -142.941406 L -105.785156 462.644531 L 660.722656 1583.03125 Z M 1545.890625 977.449219 " clip-rule="nonzero"/></clipPath><clipPath id="fdb1c140b9"><path d="M 539 818 L 751 818 L 751 1019 L 539 1019 Z M 539 818 " clip-rule="nonzero"/></clipPath><clipPath id="0c98a0157a"><path d="M 779.300781 -143.058594 L 1545.8125 977.332031 L 660.640625 1582.914062 L -105.867188 462.527344 Z M 779.300781 -143.058594 " clip-rule="nonzero"/></clipPath><clipPath id="74e3593d36"><path d="M 1545.890625 977.449219 L 779.382812 -142.941406 L -105.785156 462.644531 L 660.722656 1583.03125 Z M 1545.890625 977.449219 " clip-rule="nonzero"/></clipPath><clipPath id="e8f62dd219"><path d="M 1545.890625 977.449219 L 779.382812 -142.941406 L -105.785156 462.644531 L 660.722656 1583.03125 Z M 1545.890625 977.449219 " clip-rule="nonzero"/></clipPath><clipPath id="6fd6cba9b8"><path d="M 405 894 L 541 894 L 541 1045 L 405 1045 Z M 405 894 " clip-rule="nonzero"/></clipPath><clipPath id="86722dca55"><path d="M 779.300781 -143.058594 L 1545.8125 977.332031 L 660.640625 1582.914062 L -105.867188 462.527344 Z M 779.300781 -143.058594 " clip-rule="nonzero"/></clipPath><clipPath id="71dac3f9af"><path d="M 1545.890625 977.449219 L 779.382812 -142.941406 L -105.785156 462.644531 L 660.722656 1583.03125 Z M 1545.890625 977.449219 " clip-rule="nonzero"/></clipPath><clipPath id="98cdd19b93"><path d="M 1545.890625 977.449219 L 779.382812 -142.941406 L -105.785156 462.644531 L 660.722656 1583.03125 Z M 1545.890625 977.449219 " clip-rule="nonzero"/></clipPath></defs><g clip-path="url(#e78db2565b)"><g clip-path="url(#3b578f03ab)"><g clip-path="url(#0e116e71fc)"><g clip-path="url(#0c6e0395fc)"><path fill="#232323" d="M 1092.941406 1215.078125 C 1056.601562 1209.792969 1025.238281 1194.664062 993.671875 1176.703125 C 913.386719 1130.773438 840.042969 1073.035156 778.894531 1003.480469 C 752.984375 1037.847656 713.140625 1065.445312 670.335938 1072.820312 C 635.847656 1078.597656 604.488281 1063.96875 575.164062 1047.722656 C 540.714844 1076.164062 498.03125 1088.390625 454.105469 1091.097656 C 426.886719 1092.351562 399.96875 1085.273438 378.570312 1067.917969 C 344.476562 1041.265625 322.785156 1001.53125 301.269531 965.824219 C 270.761719 953.582031 241.980469 938.867188 217.972656 915.902344 C 190.277344 889.015625 163.617188 856.269531 149.957031 819.839844 C 136.972656 785.464844 131.109375 748.800781 134.851562 712.171875 C 104.847656 704.515625 77.757812 690.886719 58.96875 665.472656 C 29.566406 628.71875 21.6875 582.390625 25.65625 536.589844 C 32.386719 465.589844 65.421875 397.65625 110.410156 343.011719 C 152.625 291.773438 209.472656 247.667969 273.28125 227.492188 C 316.460938 213.863281 364.023438 211.636719 405.71875 231.632812 C 423.894531 240.097656 438.109375 253.175781 452.03125 267.296875 C 496.921875 247.570312 545.171875 239.714844 593.996094 238.921875 C 651.28125 237.71875 708.011719 254.546875 754.089844 288.96875 C 796.863281 319.546875 827.746094 365.097656 839.265625 416.496094 C 843.617188 436.210938 843.910156 455.398438 844.40625 475.453125 C 867.148438 484.941406 887.632812 497.765625 909.234375 509.433594 C 987.433594 552.644531 1071.09375 587.128906 1155.203125 616.9375 C 1197.128906 631.453125 1238.320312 647.761719 1279.449219 664.390625 C 1313.632812 676.023438 1344.707031 693.761719 1367.28125 722.582031 C 1393.929688 755.226562 1405.804688 798.875 1396.679688 840.25 C 1388.253906 881.089844 1360.046875 915.289062 1322.652344 933.367188 C 1300.8125 943.375 1277.042969 952.859375 1252.542969 949.730469 C 1214.410156 944.777344 1177.300781 935.089844 1141.316406 921.71875 C 1120.210938 914.136719 1099.894531 904.503906 1078.746094 897.179688 C 1124.300781 929.777344 1175.308594 954.945312 1222.613281 984.941406 C 1247.289062 1001.511719 1267.941406 1023.015625 1278.921875 1051.027344 C 1290.511719 1077.386719 1290.226562 1108.011719 1277.890625 1134.042969 C 1264 1163.378906 1238.042969 1187.191406 1208.6875 1200.550781 C 1172.421875 1216.507812 1131.996094 1221.304688 1092.941406 1215.078125 Z M 1092.941406 1215.078125 " fill-opacity="1" fill-rule="nonzero"/></g></g></g></g><g clip-path="url(#5408470024)"><g clip-path="url(#e1aed6e08c)"><g clip-path="url(#fd5c06d472)"><g clip-path="url(#8f165fcb17)"><path fill="#ababab" d="M 1039.394531 1145.980469 C 961.796875 1104.882812 890.84375 1052.121094 829.128906 989.675781 C 785.410156 948.707031 748.230469 901.976562 706.289062 859.511719 C 722.183594 892.902344 745.695312 915.476562 750.496094 954.105469 C 750.371094 968.421875 747.027344 982.53125 737.523438 993.628906 C 714.628906 1013.886719 682.910156 1035.585938 650.988281 1034.957031 C 623.375 1033.175781 595.753906 1016.714844 573.730469 1000.910156 C 541.6875 976.101562 511.578125 947.898438 486.046875 916.394531 C 466.335938 892.171875 468.449219 861.925781 469.074219 832.699219 C 470.582031 805.332031 471.636719 777.882812 492.375 757.253906 C 499.191406 751.078125 509.417969 739.652344 519.117188 739.742188 C 531.097656 746.28125 542.707031 756.941406 556.046875 760.308594 C 573.648438 764.574219 594.511719 761.898438 612.207031 763.519531 C 623.535156 762.714844 629.957031 778.492188 635.464844 786.378906 C 648.449219 807.808594 643.476562 827.574219 643.421875 850.917969 C 650.6875 838.605469 656.707031 825.859375 659.386719 811.757812 C 663.949219 790.089844 658.695312 768.078125 653.210938 747.121094 C 656.703125 744.28125 660.199219 741.441406 663.679688 738.667969 C 701.082031 709.550781 731.117188 667.375 762.582031 631.785156 C 791.761719 598.429688 818.53125 564.089844 834.746094 522.347656 C 928.320312 582.214844 1029.117188 625.035156 1133.449219 662.132812 C 1187.808594 681.144531 1242.28125 701.304688 1294.664062 725.367188 C 1314.480469 734.105469 1330.429688 749.472656 1341.160156 768.1875 C 1352.003906 786.824219 1357.648438 807.277344 1350.0625 828.214844 C 1332.945312 873.710938 1286.570312 902.410156 1238.410156 900.734375 C 1207.160156 899.367188 1175.6875 886.941406 1146.492188 876.378906 C 1081.425781 850.96875 1017.230469 821.597656 956.804688 786.511719 C 904.640625 756.871094 855.355469 722.507812 803.21875 692.902344 C 808.878906 678.160156 814.105469 663.605469 815.710938 647.769531 C 784 673.164062 759.449219 708.785156 742.921875 745.644531 C 758.695312 737.988281 771.246094 726.601562 784.0625 714.863281 C 808.15625 734.519531 828.722656 757.539062 851.917969 778.089844 C 937.308594 856.21875 1038.140625 922.269531 1136.417969 983.117188 C 1161.277344 999.058594 1190.304688 1009.625 1207.496094 1033.609375 C 1219.066406 1048.554688 1224.332031 1066.242188 1225.464844 1084.855469 C 1228.773438 1135.148438 1178.113281 1176.585938 1130.347656 1175.648438 C 1098.304688 1176.890625 1067.496094 1159.703125 1039.394531 1145.980469 Z M 1039.394531 1145.980469 " fill-opacity="1" fill-rule="nonzero"/></g></g></g></g><g clip-path="url(#3f0be13bea)"><g clip-path="url(#891709ffcb)"><g clip-path="url(#4a91f673f4)"><g clip-path="url(#90a0329c3e)"><path fill="#ababab" d="M 387.597656 274.679688 C 391.847656 277.039062 396.042969 279.492188 400.230469 282.007812 C 344.433594 314.464844 301.015625 365.910156 285.972656 429.429688 C 302.675781 411.5 315.59375 391.066406 334.410156 375 C 381.925781 331.175781 443.457031 306.445312 506.664062 296.375 C 558.226562 289.839844 611.941406 283.910156 662.453125 299.667969 C 710.839844 314.863281 757.835938 348.828125 779.125 395.839844 C 797.507812 433.355469 800.378906 480.472656 783.214844 518.941406 C 767.699219 554.492188 738.398438 586.359375 713.765625 616.042969 C 687.203125 647.328125 661.679688 682.101562 630.246094 708.144531 C 615.164062 718.128906 598.210938 723.730469 580.042969 721.421875 C 550.21875 719.191406 526.175781 689.695312 518.960938 662.527344 C 508.847656 622.433594 518.480469 576.398438 533.449219 538.648438 C 551.285156 494.28125 581.574219 461.234375 612.902344 426.1875 C 589.75 436.085938 570.679688 450.144531 554.113281 469.09375 C 519.074219 509.203125 478.492188 543.746094 431.59375 569.222656 C 407.007812 582.34375 378.988281 589.632812 355.644531 604.652344 C 374.910156 607.832031 391.183594 613.847656 410.988281 611.671875 C 435.332031 609.414062 454.84375 598.699219 475.765625 587.019531 C 470.367188 611.890625 469.085938 636.636719 475.296875 661.523438 C 479.699219 678.6875 487.171875 694.359375 495.070312 710.082031 C 473.984375 726.355469 459.652344 742.101562 446.121094 764.914062 C 410.003906 766.261719 367.796875 773.449219 338.457031 795.597656 C 307.0625 824.078125 292.679688 870.789062 291.445312 912.3125 C 253.785156 892.074219 223.964844 861.265625 200.25 826.109375 C 178.652344 790.121094 165.871094 745.636719 170.78125 703.503906 C 175.957031 663.484375 190.453125 628.242188 206.460938 591.683594 C 174.042969 610.726562 157.984375 640.652344 142.867188 673.515625 C 121 662.03125 101.046875 650.804688 88.480469 628.417969 C 65.894531 589.015625 68.710938 539.40625 80.171875 496.9375 C 93.941406 448.183594 119.878906 401.246094 154.339844 364.058594 C 186.1875 325.511719 227.890625 293.339844 274.59375 275.117188 C 310.65625 261.484375 352.191406 256.097656 387.597656 274.679688 Z M 387.597656 274.679688 " fill-opacity="1" fill-rule="nonzero"/></g></g></g></g><g clip-path="url(#76b38db84d)"><g clip-path="url(#f93aa9550f)"><g clip-path="url(#8067696689)"><g clip-path="url(#2400d886ee)"><path fill="#ababab" d="M 440.726562 903.472656 C 446.378906 925.828125 461.785156 944.085938 476.144531 961.550781 C 495.429688 984.664062 517.914062 1003.515625 540.152344 1023.65625 C 520.804688 1032.972656 500.933594 1040.292969 479.816406 1044.316406 C 457.175781 1048.65625 431.554688 1052.570312 411 1039.230469 C 389.921875 1025.132812 373.910156 1001.070312 359.792969 980.355469 C 337.628906 947.222656 326.992188 907.097656 338.734375 868.078125 C 344.59375 849.449219 353.621094 825.789062 372.109375 816.445312 C 392.222656 805.710938 416.148438 800.71875 438.65625 797.984375 C 437.585938 834.179688 432.304688 867.492188 440.726562 903.472656 Z M 440.726562 903.472656 " fill-opacity="1" fill-rule="nonzero"/></g></g></g></g><g clip-path="url(#c3b9083d32)"><g clip-path="url(#1137d003aa)"><g clip-path="url(#34fde43af1)"><g clip-path="url(#c6014574d6)"><path fill="#ffffff" d="M 1182.316406 1110.898438 C 1140.363281 1115.507812 1095.09375 1098.238281 1058.675781 1078.664062 C 1000.261719 1046.683594 945.191406 1006.980469 893.710938 964.824219 C 838.007812 919.277344 783.835938 870.726562 734.921875 817.902344 C 710.484375 791.929688 689.640625 763.265625 663.679688 738.667969 C 701.082031 709.550781 731.117188 667.375 762.582031 631.785156 C 791.761719 598.429688 818.53125 564.089844 834.746094 522.347656 C 928.320312 582.214844 1029.117188 625.035156 1133.449219 662.132812 C 1187.808594 681.144531 1242.28125 701.304688 1294.664062 725.367188 C 1314.480469 734.105469 1330.429688 749.472656 1341.160156 768.1875 C 1339.796875 781.839844 1339.359375 801.917969 1328.949219 812.011719 C 1314 824.644531 1291.078125 827.667969 1272.066406 827.726562 C 1223.644531 827.796875 1173.832031 811.503906 1128.339844 795.953125 C 1062.089844 772.417969 997.902344 742.484375 934.304688 712.59375 C 908.652344 699.832031 881.054688 686.605469 859.535156 667.429688 C 840.023438 649.402344 830.421875 626.273438 819.507812 602.699219 C 803.058594 620.675781 787.761719 639.433594 775.484375 660.554688 C 757.636719 691.308594 739.511719 719.285156 726.773438 752.429688 C 732.175781 750.25 737.574219 748.066406 742.921875 745.644531 C 758.695312 737.988281 771.246094 726.601562 784.0625 714.863281 C 808.15625 734.519531 828.722656 757.539062 851.917969 778.089844 C 937.308594 856.21875 1038.140625 922.269531 1136.417969 983.117188 C 1161.277344 999.058594 1190.304688 1009.625 1207.496094 1033.609375 C 1219.066406 1048.554688 1224.332031 1066.242188 1225.464844 1084.855469 C 1211.734375 1096.320312 1201.34375 1109.144531 1182.316406 1110.898438 Z M 1182.316406 1110.898438 " fill-opacity="1" fill-rule="nonzero"/></g></g></g></g><g clip-path="url(#d81464f379)"><g clip-path="url(#b5ee9af2f4)"><g clip-path="url(#753a0a034f)"><g clip-path="url(#d24343b201)"><path fill="#ffffff" d="M 630.246094 708.144531 C 609.171875 700.765625 589.332031 695.851562 577.953125 674.386719 C 559.84375 641.28125 569.53125 604.171875 581.808594 571.003906 C 599.566406 521.933594 629.597656 481.386719 661.992188 441.179688 C 655.371094 430.359375 649.324219 420.375 637.53125 414.601562 C 622.265625 406.949219 606.386719 410.191406 590.886719 415.140625 C 549.171875 429.109375 510.910156 457.300781 473.109375 474.367188 C 446.796875 486.035156 416.449219 493.6875 387.957031 485.78125 C 362.953125 479.132812 342.195312 459.601562 334.613281 434.757812 C 328.410156 414.960938 331.917969 395.027344 334.410156 375 C 381.925781 331.175781 443.457031 306.445312 506.664062 296.375 C 558.226562 289.839844 611.941406 283.910156 662.453125 299.667969 C 710.839844 314.863281 757.835938 348.828125 779.125 395.839844 C 797.507812 433.355469 800.378906 480.472656 783.214844 518.941406 C 767.699219 554.492188 738.398438 586.359375 713.765625 616.042969 C 687.203125 647.328125 661.679688 682.101562 630.246094 708.144531 Z M 630.246094 708.144531 " fill-opacity="1" fill-rule="nonzero"/></g></g></g></g><g clip-path="url(#984b1bbd88)"><g clip-path="url(#b9d829181b)"><g clip-path="url(#03f4ab539c)"><g clip-path="url(#c12510bac9)"><path fill="#ffffff" d="M 279.175781 484.28125 C 275.382812 518.871094 282.179688 555.179688 306.683594 581.167969 C 319.796875 595.335938 336.972656 601.851562 355.644531 604.652344 C 374.910156 607.832031 391.183594 613.847656 410.988281 611.671875 C 435.332031 609.414062 454.84375 598.699219 475.765625 587.019531 C 470.367188 611.890625 469.085938 636.636719 475.296875 661.523438 C 460.882812 692.957031 440.417969 720.128906 408.554688 735.3125 C 351.695312 765.640625 276.410156 737.75 244.839844 683.820312 C 222.378906 648.535156 219.613281 608.125 231.542969 568.640625 C 208.0625 573.222656 185.671875 578.171875 163.175781 566.667969 C 135.480469 552.390625 124.09375 520.847656 121.921875 491.460938 C 118.488281 445.734375 135.957031 404.761719 154.339844 364.058594 C 186.1875 325.511719 227.890625 293.339844 274.59375 275.117188 C 310.65625 261.484375 352.191406 256.097656 387.597656 274.679688 C 391.847656 277.039062 396.042969 279.492188 400.230469 282.007812 C 344.433594 314.464844 301.015625 365.910156 285.972656 429.429688 C 280.703125 446.875 281.460938 466.246094 279.175781 484.28125 Z M 279.175781 484.28125 " fill-opacity="1" fill-rule="nonzero"/></g></g></g></g><g clip-path="url(#fdb1c140b9)"><g clip-path="url(#0c98a0157a)"><g clip-path="url(#74e3593d36)"><g clip-path="url(#e8f62dd219)"><path fill="#ffffff" d="M 684.101562 1017.347656 C 623.273438 1001.082031 569.046875 956.878906 546.605469 897.207031 C 539.367188 877.621094 536.054688 856.070312 546.652344 837 C 556.125 819.3125 580.253906 813.953125 597.78125 821.796875 C 608.601562 827.953125 616.160156 840.882812 623.703125 850.515625 C 642.53125 877.132812 666.191406 900.335938 692.578125 919.488281 C 710.964844 932.851562 731.429688 941.878906 750.496094 954.105469 C 750.371094 968.421875 747.027344 982.53125 737.523438 993.628906 C 723.441406 1003.429688 702.636719 1023.714844 684.101562 1017.347656 Z M 684.101562 1017.347656 " fill-opacity="1" fill-rule="nonzero"/></g></g></g></g><g clip-path="url(#6fd6cba9b8)"><g clip-path="url(#86722dca55)"><g clip-path="url(#71dac3f9af)"><g clip-path="url(#98cdd19b93)"><path fill="#ffffff" d="M 425.003906 991.71875 C 412.847656 972.636719 401.894531 947.128906 406.914062 924.082031 C 409.394531 911.40625 420.773438 902.890625 429.429688 894.167969 C 433.238281 897.277344 436.980469 900.375 440.726562 903.472656 C 446.378906 925.828125 461.785156 944.085938 476.144531 961.550781 C 495.429688 984.664062 517.914062 1003.515625 540.152344 1023.65625 C 520.804688 1032.972656 500.933594 1040.292969 479.816406 1044.316406 C 458.816406 1029.101562 438.996094 1014.140625 425.003906 991.71875 Z M 425.003906 991.71875 " fill-opacity="1" fill-rule="nonzero"/></g></g></g></g></svg>