<svg xmlns="http://www.w3.org/2000/svg" xmlns:xlink="http://www.w3.org/1999/xlink" width="1920" zoomAndPan="magnify" viewBox="0 0 1440 1439.999935" height="1920" preserveAspectRatio="xMidYMid meet" version="1.0"><defs><clipPath id="b4643e15b4"><path d="M 1 414.980469 L 1439 414.980469 L 1439 954 L 1 954 Z M 1 414.980469 " clip-rule="nonzero"/></clipPath><clipPath id="483f0aa591"><path d="M 1 414.980469 L 1439 414.980469 L 1439 1024.730469 L 1 1024.730469 Z M 1 414.980469 " clip-rule="nonzero"/></clipPath></defs><g clip-path="url(#b4643e15b4)"><path fill="#ffffff" d="M 1438.394531 682.265625 L 1438.394531 683.378906 C 1438.394531 683.753906 1438.394531 683.753906 1438.394531 684.125 C 1438.394531 832.820312 1317.949219 953.265625 1169.253906 953.265625 L 270.746094 953.265625 C 122.050781 953.265625 1.605469 832.449219 1.605469 684.125 C 1.605469 683.378906 1.605469 683.007812 1.605469 682.265625 C 1.605469 681.523438 1.605469 681.148438 1.605469 680.40625 C 3.835938 533.566406 123.164062 414.980469 270.746094 414.980469 L 1169.253906 414.980469 C 1169.253906 414.980469 1169.253906 414.980469 1169.625 414.980469 C 1317.207031 414.980469 1437.277344 534.3125 1438.394531 682.265625 Z M 1438.394531 682.265625 L 1438.394531 683.378906 C 1438.394531 683.753906 1438.394531 683.753906 1438.394531 684.125 C 1438.394531 832.820312 1317.949219 953.265625 1169.253906 953.265625 L 270.746094 953.265625 C 122.050781 953.265625 1.605469 832.449219 1.605469 684.125 C 1.605469 683.378906 1.605469 683.007812 1.605469 682.265625 C 1.605469 681.523438 1.605469 681.148438 1.605469 680.40625 C 3.835938 533.566406 123.164062 414.980469 270.746094 414.980469 L 1169.253906 414.980469 C 1169.253906 414.980469 1169.253906 414.980469 1169.625 414.980469 C 1317.207031 414.980469 1437.277344 534.3125 1438.394531 682.265625 Z M 1438.394531 682.265625 " fill-opacity="1" fill-rule="nonzero"/></g><path fill="#000000" d="M 408.292969 570.371094 L 457.734375 570.371094 C 472.976562 570.371094 484.871094 574.832031 493.792969 583.753906 C 502.714844 592.675781 507.175781 604.941406 507.175781 619.8125 L 507.175781 644.347656 C 507.175781 659.589844 502.714844 671.484375 493.792969 680.40625 C 484.871094 689.328125 472.976562 693.789062 457.734375 693.789062 L 439.890625 693.789062 L 439.890625 778.175781 L 408.292969 778.175781 C 408.292969 778.175781 408.292969 570.371094 408.292969 570.371094 Z M 455.875 664.421875 C 462.195312 664.421875 466.65625 662.5625 470.003906 659.21875 C 473.347656 655.871094 475.207031 651.039062 475.207031 645.089844 L 475.207031 619.441406 C 475.207031 613.121094 473.347656 608.660156 470.003906 605.3125 C 466.65625 601.96875 461.824219 600.109375 455.875 600.109375 L 439.519531 600.109375 L 439.519531 664.421875 Z M 577.808594 570.371094 L 609.40625 570.371094 L 609.40625 748.808594 L 665.539062 748.808594 L 665.539062 778.546875 L 577.808594 778.546875 Z M 799.738281 732.449219 L 765.910156 732.449219 L 759.21875 778.546875 L 727.621094 778.546875 L 762.191406 570.371094 L 804.570312 570.371094 L 839.144531 778.546875 L 807.171875 778.546875 Z M 795.648438 701.96875 L 783.011719 614.980469 L 770.371094 701.96875 Z M 999.738281 570.371094 L 957.359375 691.558594 L 957.359375 778.546875 L 925.761719 778.546875 L 925.761719 691.558594 L 883.382812 570.371094 L 916.839844 570.371094 L 941.375 649.921875 L 966.28125 570.371094 C 966.28125 570.371094 999.738281 570.371094 999.738281 570.371094 Z M 999.738281 570.371094 " fill-opacity="1" fill-rule="nonzero"/><g clip-path="url(#483f0aa591)"><path fill="#000000" d="M 1169.625 414.980469 C 1169.253906 414.980469 1169.253906 414.980469 1169.625 414.980469 L 270.746094 414.980469 C 123.164062 414.980469 3.835938 533.566406 1.605469 680.40625 C 1.605469 681.148438 1.605469 681.523438 1.605469 682.265625 C 1.605469 683.007812 1.605469 683.378906 1.605469 684.125 C 1.605469 691.1875 1.976562 697.878906 2.347656 704.570312 L 1.605469 704.570312 L 1.605469 752.152344 C 1.605469 752.898438 1.605469 753.269531 1.605469 754.011719 C 1.605469 754.753906 1.605469 755.128906 1.605469 755.871094 C 1.605469 904.195312 122.050781 1025.011719 270.746094 1025.011719 L 1169.253906 1025.011719 C 1317.949219 1025.011719 1438.394531 904.566406 1438.394531 755.871094 C 1438.394531 755.5 1438.394531 755.5 1438.394531 755.128906 L 1438.394531 704.570312 L 1437.652344 704.570312 C 1438.023438 697.878906 1438.394531 691.1875 1438.394531 684.125 C 1438.394531 683.753906 1438.394531 683.753906 1438.394531 683.378906 L 1438.394531 682.265625 C 1437.277344 534.3125 1317.207031 414.980469 1169.625 414.980469 Z M 38.78125 682.265625 L 38.78125 680.777344 C 39.894531 619.441406 64.429688 562.191406 107.925781 519.070312 C 151.417969 475.949219 209.410156 452.15625 270.746094 452.15625 L 1169.625 452.15625 C 1230.960938 452.15625 1288.953125 475.949219 1332.820312 519.441406 C 1376.3125 562.9375 1400.847656 620.554688 1401.21875 682.265625 L 1401.21875 684.125 C 1401.21875 812.003906 1297.132812 916.09375 1169.253906 916.09375 L 270.746094 916.09375 C 142.867188 916.09375 38.78125 812.003906 38.78125 684.125 Z M 38.78125 682.265625 " fill-opacity="1" fill-rule="nonzero"/></g></svg>